<svg xmlns="http://www.w3.org/2000/svg" width="40" height="40" viewBox="0 0 36.705 36.705">
								<g id="accountant" transform="translate(-0.5 -0.5)">
									<path id="Path_88049" data-name="Path 88049"
										d="M35.484,6.35H24.817a3.456,3.456,0,0,0-2.925-2.868C20.63,1.016,18.451.5,15.87.5c-1.032,0-4.531.172-6.538,2.753C7.841,5.145,7.439,7.841,8.185,11.339a1.838,1.838,0,0,0-.631,2.351c.172.86.746,3.5,2.179,3.785A10.277,10.277,0,0,0,11,20.4v2.868l-7.226,2.81A5.1,5.1,0,0,0,.5,30.839v5.792a.542.542,0,0,0,.574.574h30.4a.542.542,0,0,0,.574-.574V33.19h3.441A1.69,1.69,0,0,0,37.2,31.469V8.07A1.725,1.725,0,0,0,35.484,6.35ZM10.479,16.444c-.631-.4-.631.975-1.778-3.04-.344-1.2.287-1.09.229-1.09a.605.605,0,0,0,.574-.688C8.644,8.242,8.931,5.662,10.25,4a7.43,7.43,0,0,1,5.964-2.351h.057c3.613-.172,4.7,2.466,4.7,2.523.287.746,1.262-.057,2.237,1.262.574.8,1.032,2.523-.115,6.079a.81.81,0,0,0,.057.516c.344.459,1.09-.115.688,1.319,0,.057-.631,2.982-1.376,2.982a.722.722,0,0,0-.459.057.483.483,0,0,0-.229.4c-.057.229-1.09,5.563-5.563,5.735-4.473-.172-5.506-5.506-5.563-5.735.057-.115-.057-.229-.172-.344Zm8.144,19.614H13.977l1.663-4.875c.172-.516-.287-.631-1.434-2.237l2.122-.574,2.065.574C16.5,32.043,16.272,28.889,18.623,36.058Zm-7.284-11.7,3.728,3.154-3.556.975L10.02,24.874Zm6.137,3.154,3.67-3.212,1.262.516-1.548,3.67Zm2.982-5.62V23.44l-4.187,3.613-4.187-3.5V21.892A5.707,5.707,0,0,0,20.458,21.892ZM1.647,30.839a3.987,3.987,0,0,1,2.523-3.67l4.76-1.835L10.651,29.4a.551.551,0,0,0,.516.344h.172L13,29.29l1.434,1.835-1.721,4.932H1.647ZM30.9,36.058H19.827l-1.721-4.932,1.434-1.835,1.491.4H21.2a.5.5,0,0,0,.516-.344l1.721-4.129,4.875,1.893a3.987,3.987,0,0,1,2.523,3.67v5.276Zm5.162-4.588a.542.542,0,0,1-.574.574H32.043V30.781a5.163,5.163,0,0,0-3.269-4.76l-7.169-2.753V20.4a12.283,12.283,0,0,0,1.262-2.925c1.376-.287,2.007-2.925,2.179-3.785a1.907,1.907,0,0,0-.574-2.351,13.348,13.348,0,0,0,.631-3.9H35.6a.542.542,0,0,1,.574.574V31.469Z"
										fill="#fff" />
									<path id="Path_88050" data-name="Path 88050"
										d="M56.368,17.3H54.074a.574.574,0,1,0,0,1.147h2.294a.574.574,0,1,0,0-1.147Z"
										transform="translate(-22.604 -7.165)" fill="#fff" />
									<path id="Path_88051" data-name="Path 88051"
										d="M56.368,25.3H54.074a.574.574,0,1,0,0,1.147h2.294a.574.574,0,1,0,0-1.147Z"
										transform="translate(-22.604 -10.577)" fill="#fff" />
									<path id="Path_88052" data-name="Path 88052"
										d="M56.368,33.3H54.074a.574.574,0,0,0,0,1.147h2.294a.574.574,0,0,0,0-1.147Z"
										transform="translate(-22.604 -13.989)" fill="#fff" />
									<path id="Path_88053" data-name="Path 88053"
										d="M48.231,17.3H47.084a.574.574,0,0,0,0,1.147h1.147a.574.574,0,1,0,0-1.147Z"
										transform="translate(-19.629 -7.165)" fill="#fff" />
									<path id="Path_88054" data-name="Path 88054"
										d="M48.221,25.284c-.516.057-1.721-.287-1.721.574a.542.542,0,0,0,.574.574h1.147a.574.574,0,0,0,0-1.147Z"
										transform="translate(-19.619 -10.561)" fill="#fff" />
									<path id="Path_88055" data-name="Path 88055"
										d="M48.221,33.3H47.074a.574.574,0,0,0,0,1.147h1.147a.574.574,0,0,0,0-1.147Z"
										transform="translate(-19.619 -13.989)" fill="#fff" />
									<path id="Path_88056" data-name="Path 88056"
										d="M56.368,41.2H54.074a.574.574,0,0,0,0,1.147h2.294a.574.574,0,0,0,0-1.147Z"
										transform="translate(-22.604 -17.358)" fill="#fff" />
								</g>
							</svg>
