<svg xmlns="http://www.w3.org/2000/svg" width="40" height="40" viewBox="0 0 37.696 36.058">
    <g id="enter" transform="translate(0 -0.333)">
        <path id="Path_88063" d="M24.994,221.458H1.229a1.229,1.229,0,1,1,0-2.458H24.994a1.229,1.229,0,1,1,0,2.458Zm0,0"
              transform="translate(0 -201.868)" fill="#f84464"/>
        <path id="Path_88064"
              d="M225.233,149.2a1.23,1.23,0,0,1-.869-2.1l5.687-5.687-5.687-5.687a1.23,1.23,0,0,1,1.739-1.739l6.556,6.556a1.23,1.23,0,0,1,0,1.739L226.1,148.84A1.22,1.22,0,0,1,225.233,149.2Zm0,0"
              transform="translate(-206.794 -123.055)" fill="#f84464"/>
        <path id="Path_88065"
              d="M53.338,36.39a17.935,17.935,0,0,1-16.78-11.434,1.229,1.229,0,1,1,2.288-.9,15.57,15.57,0,1,0,0-11.394,1.229,1.229,0,1,1-2.288-.9A18.029,18.029,0,1,1,53.338,36.39Zm0,0"
              transform="translate(-33.67 0)" fill="#f84464"/>
    </g>
</svg>
