<svg xmlns="http://www.w3.org/2000/svg" width="40" height="40" viewBox="0 0 42.576 30.891">
    <g id="handshake" transform="translate(-5.326 -16.13)">
        <path id="Path_88066"
              d="M31.441,66.842a1.622,1.622,0,0,0,.08.706,1.984,1.984,0,0,0,1.25,1.214,1.34,1.34,0,0,0,1.211-.117l1.1-1.18a1.383,1.383,0,0,0,.212-1.412,2.366,2.366,0,0,0-1.867-1.343Z"
              transform="translate(-12.12 -22.553)" fill="#f84464"/>
        <path id="Path_88067"
              d="M26.7,57.39l-1.922,2.062a1.686,1.686,0,0,0-.284,1.7,2.261,2.261,0,0,0,1.445,1.4,1.6,1.6,0,0,0,1.647-.377l1.78-1.909a1.672,1.672,0,0,0,.284-1.7,2.259,2.259,0,0,0-1.445-1.4,1.438,1.438,0,0,0-1.5.22Z"
              transform="translate(-8.845 -19.002)" fill="#f84464"/>
        <path id="Path_88068"
              d="M19.711,50.947l-1.775,1.906a1.69,1.69,0,0,0-.284,1.7,2.263,2.263,0,0,0,1.445,1.4,1.637,1.637,0,0,0,1.457-.168l1.97-2.115a1.679,1.679,0,0,0,.284-1.7,2.252,2.252,0,0,0-1.446-1.4A1.627,1.627,0,0,0,19.711,50.947Z"
              transform="translate(-5.672 -15.952)" fill="#f84464"/>
        <path id="Path_88069"
              d="M13.062,44.077l-1.967,2.116a1.668,1.668,0,0,0-.284,1.7,2.251,2.251,0,0,0,1.446,1.4,1.63,1.63,0,0,0,1.453-.17l1.973-2.115v0a1.661,1.661,0,0,0,.284-1.694,2.239,2.239,0,0,0-1.445-1.4,1.387,1.387,0,0,0-1.46.167Z"
              transform="translate(-2.495 -12.839)" fill="#f84464"/>
        <path id="Path_88070"
              d="M48.714,20.779a11.929,11.929,0,0,1-4.763.963,14.143,14.143,0,0,0-3.613.54l-5.371,1.982a.478.478,0,0,1-.112.028c-.259.041-.5.076-.715.106-1.308.184-1.459.241-1.609.628a1.409,1.409,0,0,0,.385,1.312c.3.36,1.49,1.484,3.931.906l3.059-.4c1.713-.221,3.086.9,4.183,1.8l8.225,6.58.006,0a11.646,11.646,0,0,0,4.76-3.3Z"
              transform="translate(-12.607 -2.158)" fill="#f84464"/>
        <path id="Path_88071"
              d="M27.789,20c-.488.045-1.046.107-1.632.168a27.631,27.631,0,0,1-5.954.313L11.787,31.438a4.762,4.762,0,0,1,.773.927,2.756,2.756,0,0,1,2.8-.664,3.452,3.452,0,0,1,2.219,2.152,3.1,3.1,0,0,1,.159,1.3,2.976,2.976,0,0,1,1.286.1A3.444,3.444,0,0,1,21.241,37.4a3.085,3.085,0,0,1,.164,1.3,2.938,2.938,0,0,1,1.286.1A3.459,3.459,0,0,1,24.9,40.946a3.073,3.073,0,0,1,.05,1.9,2.812,2.812,0,0,1,.315.078,3.2,3.2,0,0,1,2.009,1.945,2.624,2.624,0,0,1-.34,2.494l1.493,1.194a1.308,1.308,0,0,0,1.4.08,2.007,2.007,0,0,0,1.066-1.387,1.585,1.585,0,0,0-.023-.711l-1.894-1.515a.611.611,0,0,1-.1-.842.582.582,0,0,1,.826-.1l2.277,1.825a1.634,1.634,0,0,0,1.468-.05,2.276,2.276,0,0,0,1.227-1.6,1.673,1.673,0,0,0-.522-1.638l-2.059-1.648a.6.6,0,0,1-.1-.84.574.574,0,0,1,.823-.1l2.994,2.394a1.608,1.608,0,0,0,1.694.129,2.283,2.283,0,0,0,1.225-1.6,1.669,1.669,0,0,0-.527-1.639l-2.995-2.391a.612.612,0,0,1-.1-.846.584.584,0,0,1,.827-.1s4.547,3.636,4.551,3.636a1.626,1.626,0,0,0,1.462-.055,2.264,2.264,0,0,0,1.231-1.6,1.67,1.67,0,0,0-.527-1.638l-8.9-7.123c-1.021-.837-2.076-1.7-3.3-1.54l-3,.391a4.935,4.935,0,0,1-5.028-1.3,2.581,2.581,0,0,1-.592-2.536c.418-1.083,1.22-1.195,2.543-1.381.2-.025.41-.056.645-.093l5.316-1.961a7.389,7.389,0,0,1,1.124-.3A7.7,7.7,0,0,0,27.789,20Z"
              transform="translate(-3 -1.781)" fill="#f84464"/>
        <path id="Path_88072"
              d="M13.238,16.154c-.968-.073-1.852.656-3.124,2.313L6.859,22.706c-1.177,1.529-1.618,2.48-1.52,3.286a2.752,2.752,0,0,0,1,1.679L7.878,28.9,16.26,17.993l-1.085-.868a3.762,3.762,0,0,0-1.937-.971Z"
              transform="translate(0 -0.009)" fill="#f84464"/>
        <path id="Path_88073"
              d="M67.623,16.134a3.741,3.741,0,0,0-1.949.947l-1.1.851,8.266,11,1.068-.831a3.3,3.3,0,0,0,1.482-2.02c.107-.8-.32-1.762-1.479-3.311l-3.2-4.28c-1.247-1.674-2.12-2.417-3.091-2.355Z"
              transform="translate(-27.508 0)" fill="#f84464"/>
    </g>
</svg>
