<svg width="61" height="69" viewBox="0 0 61 69" fill="none" xmlns="http://www.w3.org/2000/svg">
<ellipse cx="31.8076" cy="13.7058" rx="10.0214" ry="10.8699" fill="white"/>
<path d="M38.0163 54.8335L34.2422 52.0899C22.9214 43.8596 11.5976 35.6306 0.270848 27.4031C0.182791 27.3468 0.111977 27.2687 0.0658003 27.177C0.0196241 27.0852 -0.000224053 26.9832 0.00832458 26.8815C0.0201233 25.0828 0.00832458 23.2856 0.00832458 21.4869C-0.066064 19.9923 0.359671 18.5143 1.22246 17.2719C2.08525 16.0294 3.33921 15.0886 4.79859 14.5887C5.3585 14.4003 5.9461 14.3002 6.5389 14.2922C9.03137 14.2608 11.5253 14.2779 14.0178 14.2794C14.0886 14.2794 14.1653 14.2894 14.2523 14.2965C14.2774 14.6243 14.3024 14.9421 14.326 15.2599C14.5022 16.9005 14.9415 18.5046 15.6283 20.0146C16.5149 22.0821 17.7621 23.9873 19.3154 25.6472C20.7431 27.2245 22.125 28.8455 23.4612 30.5102C24.3461 31.609 25.0569 32.8447 25.902 33.9749C27.2235 35.8235 28.4254 37.7494 29.5006 39.7415C29.69 40.1778 29.9782 40.5675 30.3442 40.8817C30.5935 41.0506 30.8782 41.1644 31.178 41.2152C31.4779 41.2659 31.7856 41.2523 32.0795 41.1753C32.3733 41.0984 32.646 40.9599 32.8783 40.7698C33.1106 40.5796 33.2968 40.3425 33.4237 40.075C34.8283 37.523 36.3666 35.0417 38.0325 32.6409C39.7869 30.2119 41.6956 27.8905 43.7475 25.69C45.3498 24.0176 46.6335 22.0846 47.5394 19.9804C48.2733 18.2759 48.6839 16.4578 48.7517 14.6129C48.759 14.3407 48.8416 14.2751 49.0938 14.2765C50.8636 14.2865 52.6261 14.2765 54.3914 14.2836C56.04 14.3751 57.6009 15.0307 58.7948 16.133C59.9888 17.2353 60.7376 18.7124 60.9073 20.2997C60.955 20.7052 60.9796 21.1129 60.981 21.5211C60.981 24.7507 60.981 27.9818 60.9884 31.2128C60.9939 31.3219 60.9754 31.4309 60.9343 31.5326C60.8931 31.6343 60.8301 31.7264 60.7495 31.8029C53.2435 39.4042 45.741 47.0056 38.242 54.6069C38.1682 54.681 38.0945 54.7494 38.0075 54.8378" fill="#3E7C7B"/>
<path d="M50.5176 68.998H50.1194C35.7211 68.998 21.3222 68.998 6.92292 68.998C5.90055 69.019 4.88764 68.805 3.96763 68.3736C3.04762 67.9422 2.24683 67.3057 1.63121 66.5166C0.623876 65.3161 0.0629456 63.8234 0.0383842 62.2779C-0.00881058 59.9747 0.0192057 57.6701 0.0280547 55.3669C0.0437398 55.2275 0.112003 55.0986 0.219791 55.0048C2.05252 53.4152 3.88967 51.8303 5.73125 50.2502L14.5493 42.6536C14.9224 42.3315 14.9195 42.3286 15.3059 42.618L50.202 68.7443C50.2831 68.8056 50.3613 68.8711 50.5161 68.9965" fill="#63B3B4"/>
<path d="M31.5823 35.586C31.4599 35.375 31.3567 35.1769 31.2343 34.9945C30.2176 33.4742 29.1985 31.954 28.1769 30.4337C28.0944 30.3111 27.9926 30.2014 27.9174 30.0745C26.5407 27.9921 24.9983 26.0164 23.3041 24.1654C22.4856 23.1678 21.5741 22.2641 20.7969 21.2394C19.3633 19.368 18.4999 17.1464 18.3044 14.8257C18.0417 12.6581 18.3348 10.4613 19.1578 8.42893C19.9808 6.39656 21.3085 4.59103 23.0239 3.17144C24.3225 2.01573 25.8613 1.14103 27.5376 0.605731C29.2139 0.0704306 30.989 -0.113151 32.7445 0.0672426C34.9397 0.248006 37.0574 0.937492 38.9182 2.07728C40.779 3.21707 42.3281 4.77356 43.4341 6.61485C44.765 8.60991 45.3524 10.9838 45.0992 13.3449C44.8854 16.7597 43.5216 20.0131 41.216 22.6091C38.0825 25.95 35.2882 29.5739 32.8714 33.431C32.4289 34.1308 32.0248 34.8563 31.5794 35.6002M22.4207 14.2998C22.4187 16.0897 22.8747 17.8523 23.748 19.4307C24.3438 20.6407 25.2289 21.6963 26.3302 22.5105C27.4314 23.3246 28.7173 23.8739 30.0817 24.1129C31.446 24.352 32.8496 24.274 34.1766 23.8854C35.5035 23.4968 36.7158 22.8087 37.7132 21.8779C38.7686 20.8639 39.6004 19.6538 40.1584 18.3206C40.7165 16.9874 40.9891 15.5587 40.9601 14.1208C40.931 12.6829 40.6007 11.2657 39.9892 9.95455C39.3777 8.64342 38.4976 7.46564 37.4021 6.49228C36.2175 5.40869 34.7257 4.69063 33.1171 4.42968C31.5085 4.16873 29.856 4.37672 28.3702 5.02712C26.5472 5.83701 25.0109 7.14709 23.9525 8.7943C22.8942 10.4415 22.3604 12.3531 22.4177 14.2913" fill="#F84464"/>
<path d="M41.1631 56.9175L60.9672 36.5977C60.979 36.7402 60.9923 36.8242 60.9923 36.9126C60.9923 45.2142 60.9923 53.5159 60.9923 61.8175C61.0471 63.0762 60.7527 64.3262 60.1397 65.438C59.5267 66.5499 58.6174 67.4832 57.5057 68.1414C57.3339 68.2827 57.1135 68.3567 56.888 68.3487C56.6626 68.3408 56.4483 68.2516 56.2875 68.0986C51.3409 64.4172 46.3722 60.7685 41.4109 57.1099C41.3371 57.0557 41.2634 56.9959 41.1675 56.9189" fill="#F9AA1A"/>
<path d="M0.0234375 50.8172V31.5977L11.7248 40.5354L0.0234375 50.8186" fill="#F84464"/>
<path d="M37.4969 11.0114C37.4924 13.1577 36.9708 15.2735 35.9734 17.1912C35.0458 18.8308 33.6824 20.2015 32.0238 21.162C31.9211 21.2211 31.8019 21.248 31.6827 21.2388C31.5636 21.2296 31.4503 21.1848 31.3586 21.1107C29.2578 19.8882 27.6596 18.0008 26.8353 15.7688C26.2201 14.0184 25.9291 12.1768 25.9755 10.3287C25.9755 9.90108 26.1938 9.6317 26.5448 9.62457C28.098 9.52013 29.5783 8.94793 30.7776 7.98839C30.9634 7.85584 31.1433 7.71189 31.3248 7.57221C31.3757 7.51353 31.4394 7.46647 31.5113 7.4344C31.5833 7.40233 31.6617 7.38606 31.7409 7.38674C31.8201 7.38742 31.8982 7.40505 31.9696 7.43835C32.0409 7.47165 32.1038 7.51979 32.1536 7.57934C33.1388 8.43018 34.3046 9.06257 35.5693 9.43217C35.9774 9.52784 36.3934 9.58841 36.8126 9.61318C37.2713 9.65166 37.4807 9.84976 37.494 10.3358C37.494 10.561 37.494 10.7876 37.494 11.0142M29.698 15.0049C29.698 15.2087 29.698 15.414 29.698 15.6178C29.698 15.8216 29.698 16.0268 29.7053 16.2306C29.6975 16.3629 29.7182 16.4953 29.7662 16.6193C29.8143 16.7434 29.8885 16.8565 29.9843 16.9513C30.08 17.0461 30.1952 17.1206 30.3224 17.17C30.4496 17.2194 30.586 17.2427 30.723 17.2383C31.3886 17.244 32.0548 17.244 32.7214 17.2383C32.8695 17.2439 33.017 17.2183 33.1538 17.1634C33.2907 17.1085 33.4136 17.0255 33.514 16.9202C33.6144 16.8149 33.6899 16.6898 33.7354 16.5535C33.7809 16.4172 33.7952 16.273 33.7774 16.1309C33.7848 15.3883 33.7774 14.6458 33.7774 13.9032C33.7843 13.7282 33.7504 13.5539 33.6781 13.3933C33.6059 13.2327 33.4971 13.0898 33.36 12.9754C33.2881 12.8948 33.242 12.7957 33.2273 12.6903C33.1904 12.5236 33.1919 12.3482 33.1579 12.1801C33.1314 11.9767 33.0585 11.7815 32.9444 11.6087C32.8304 11.4359 32.6781 11.2896 32.4985 11.1806C32.3189 11.0715 32.1164 11.0023 31.9058 10.9779C31.6952 10.9536 31.4816 10.9748 31.2805 11.0399C30.9662 11.1599 30.6981 11.3711 30.5132 11.6445C30.3284 11.9179 30.2357 12.2399 30.2481 12.5663C30.248 12.7161 30.1961 12.8616 30.1006 12.9796C29.9704 13.0928 29.8669 13.2317 29.7969 13.3868C29.727 13.5419 29.6922 13.7098 29.695 13.879C29.695 14.2552 29.695 14.6315 29.695 15.0092" fill="#151414"/>
<path d="M30.6533 12.7699C30.6178 12.6115 30.6169 12.4476 30.6506 12.2888C30.6842 12.1299 30.7518 11.9796 30.849 11.8474C30.9461 11.7152 31.0706 11.604 31.2147 11.5208C31.3588 11.4377 31.5191 11.3845 31.6857 11.3646C32.3788 11.3318 32.8552 11.8991 32.8449 12.7699H30.6533Z" fill="#151414"/>
<path d="M31.7427 16.0754C31.2634 16.0754 31.228 16.0141 31.3003 15.5053C31.4106 15.1588 31.4273 14.7908 31.3489 14.4363C31.3347 14.378 31.3341 14.3174 31.3469 14.2589C31.3598 14.2003 31.386 14.1453 31.4235 14.0976C31.4609 14.0499 31.5089 14.0108 31.5638 13.9832C31.6187 13.9555 31.6793 13.9399 31.7412 13.9375C31.9728 13.9375 32.1262 14.147 32.1291 14.4178C32.1291 14.7969 32.1439 15.176 32.1837 15.558C32.2324 16.0141 32.1837 16.0839 31.7412 16.0839" fill="#151414"/>
</svg>
