<svg xmlns="http://www.w3.org/2000/svg" width="50" height="50" viewBox="0 0 48.01 52.533">
						<g id="Group_31915" data-name="Group 31915" transform="translate(-226 -102.344)">
							<g id="Group_31913" data-name="Group 31913" transform="translate(226 102.344)">
								<g id="Group_31912" data-name="Group 31912" transform="translate(0 0)">
									<g id="Group_31845" data-name="Group 31845">
										<g id="Glyph" transform="translate(18.806 6.564)">
											<g id="Glyph-2" data-name="Glyph" transform="translate(0 0)">
												<path id="Path_10" data-name="Path 10"
													d="M55,45.917v.092h2.011v-.092A1.008,1.008,0,0,0,55,45.917Z"
													transform="translate(-50.807 -42.13)" fill="#fff" />
												<path id="Path_11" data-name="Path 11"
													d="M27.356,18.835a8.509,8.509,0,0,1-4.395-1.516.536.536,0,0,0-.585,0,8.562,8.562,0,0,1-4.394,1.516.531.531,0,0,0-.361.134.448.448,0,0,0-.151.33,7.881,7.881,0,0,0,4.972,7.836.539.539,0,0,0,.454,0A7.88,7.88,0,0,0,27.868,19.3.49.49,0,0,0,27.356,18.835Zm-2.844,4.689a.806.806,0,0,1-.838.77H21.663a.806.806,0,0,1-.838-.77V21.882a.771.771,0,0,1,.5-.706v-.159a1.345,1.345,0,0,1,2.682,0v.159a.771.771,0,0,1,.5.706Z"
													transform="translate(-17.47 -17.233)" fill="#fff" />
												<path id="Path_12" data-name="Path 12"
													d="M60.845,63.549a.094.094,0,0,1,.022-.078.313.313,0,0,0-.057-.437.385.385,0,0,0-.479,0,.313.313,0,0,0-.057.437.093.093,0,0,1,.022.078c-.026.12-.1.464-.153.7a.193.193,0,0,0,.047.17.232.232,0,0,0,.173.075h.416a.232.232,0,0,0,.173-.075A.193.193,0,0,0,61,64.25Z"
													transform="translate(-55.372 -58.255)" fill="#fff" />
											</g>
										</g>
										<g id="Group_6" data-name="Group 6">
											<path id="Path_24" data-name="Path 24"
												d="M282.586,229.935q0,5.133,0,10.267c0,.869.035.727-.769.727q-10.187,0-20.374-.005a.971.971,0,0,0-1.014.558c-.779,1.339-1.5,2.7-2.3,4.035-.144.241-.229.317-.442.032-.991-1.321-2.055-2.593-2.978-3.961-.789-1.169-1.732-2.25-2.581-3.387-1.457-1.953-2.871-3.933-4.351-5.87a23.344,23.344,0,0,1-1.483-2.059.686.686,0,0,0-.668-.36c-3.405.011-6.81.007-10.215.008a.753.753,0,0,0-.223.009c-.546.179-.572-.107-.57-.491.009-2.322,0-4.643,0-6.965,0-1.066-.01-2.132.009-3.2a7.346,7.346,0,0,1,3.634-6.2,10.8,10.8,0,0,1,4.319-1.31c.346-.061.544.213.424.6a9.768,9.768,0,0,0-.229,3.583,12.494,12.494,0,0,0,1.549,5.258,21.918,21.918,0,0,0,2.636,3.519c1.1,1.286,2.268,2.527,3.337,3.841a55.908,55.908,0,0,1,4.9,7.21,5.4,5.4,0,0,0,1.132,1.632,3.608,3.608,0,0,0,4.768-.257,21.687,21.687,0,0,0,1.461-2.345c.782-1.111,1.256-2.385,2.12-3.457.17-.211.829-1.136,1.056-1.414.232-.258-.162.226,0,0a43.678,43.678,0,0,1,3.508-4.146c.743-.8,1.418-1.658,2.125-2.487a12.743,12.743,0,0,0,2.237-3.981,11.322,11.322,0,0,0,.8-5.015,18.864,18.864,0,0,0-.264-2.18c-.053-.242.019-.311.285-.3a9.138,9.138,0,0,1,3.241.681,7.7,7.7,0,0,1,4.8,5.782,7.5,7.5,0,0,1,.117,1.535c.01,3.371.005,6.741.005,10.112Z"
												transform="translate(-234.581 -203.374)" fill="#fff" />
											<path id="Path_25" data-name="Path 25"
												d="M286.794,179.378a12.521,12.521,0,0,1,4.585.277,12.011,12.011,0,0,1,6.508,3.937,11.036,11.036,0,0,1,2.525,5.318,10.484,10.484,0,0,1-1.845,8.046,17.255,17.255,0,0,1-1.812,2.126,50.765,50.765,0,0,0-4.148,4.848,39.258,39.258,0,0,0-2.794,4.1c-.411.738-.871,1.453-1.318,2.173-.059.1-.086.246-.239.258-.192.014-.15-.164-.211-.256-.851-1.292-1.505-2.688-2.483-3.915-.491-.616-.893-1.284-1.4-1.9-.417-.51-.717-1.136-1.166-1.649-1.3-1.488-2.581-2.99-3.94-4.43a12.722,12.722,0,0,1-2.822-5.065,8.012,8.012,0,0,1-.346-2.405,12.52,12.52,0,0,1,.394-2.784,10.414,10.414,0,0,1,2.1-4.2,12.751,12.751,0,0,1,4.5-3.463,27.628,27.628,0,0,1,3.225-1.012,2.663,2.663,0,0,1,.687-.008m1.442,18.253c4.364.015,7.983-3.247,8-7.214a7.651,7.651,0,0,0-7.926-7.437c-4.367-.013-7.988,3.252-8,7.212a7.662,7.662,0,0,0,7.926,7.439"
												transform="translate(-264.269 -179.276)" fill="#fff" />
											<path id="Path_26" data-name="Path 26"
												d="M246.632,320.854c-1.7,0-3.408.08-5.1-.027a6.435,6.435,0,0,1-3.357-1.2,10.517,10.517,0,0,1-2.432-2.324,7.172,7.172,0,0,1-1.244-3.112c-.041-.255.19-.466.325-.687.486-.794,1.129-1.486,1.689-2.232.954-1.27,1.839-2.585,2.831-3.83,1.429-1.791,2.754-3.646,4.122-5.475a28.248,28.248,0,0,1,1.877-2.463c.213-.228.318-.221.486.007.717.971,1.441,1.938,2.161,2.908.631.849,1.257,1.7,1.89,2.55q1.406,1.887,2.817,3.77,1.609,2.141,3.229,4.275c.355.466.364.847-.106,1.461-.638.834-1.042,1.782-1.589,2.66a32.782,32.782,0,0,0-1.752,3.129c-.264.548-.618.635-1.187.624-1.552-.031-3.1-.01-4.657-.01Z"
												transform="translate(-234.492 -268.356)" fill="#fff" />
											<path id="Path_27" data-name="Path 27"
												d="M326.285,335.208c3.161,0,6.321.011,9.482-.011.529,0,.664.145.65.612-.048,1.63.076,3.265-.1,4.891a7.125,7.125,0,0,1-1.9,4.071,8.6,8.6,0,0,1-4,2.45,7.706,7.706,0,0,1-2.2.266q-9.145-.011-18.29.006c-.434,0-.578-.056-.36-.462q.518-.964,1.084-1.9c.715-1.187,1.346-2.418,1.981-3.645.491-.949,1.2-1.833,1.7-2.8a18.663,18.663,0,0,0,1.619-3.009.826.826,0,0,1,.855-.483c3.161.022,6.321.012,9.482.012Z"
												transform="translate(-288.416 -294.961)" fill="#fff" />
											<path id="Path_28" data-name="Path 28"
												d="M234.6,304.263v-5.017c0-2.009.011-4.019-.01-6.028,0-.426.131-.553.6-.55,2.522.02,5.045.009,7.567.011a.5.5,0,0,1,.417.1L234.6,304.263"
												transform="translate(-234.559 -263.409)" fill="#fff" />
										</g>
									</g>
								</g>
							</g>
						</g>
					</svg>
