<svg width="372" height="81" viewBox="0 0 372 81" fill="none" xmlns="http://www.w3.org/2000/svg">
<path d="M80.9053 62V23.2139H81.749L107.536 52.9033V23.2139H111.359V62H110.489L84.9131 32.6797V62H80.9053ZM139.335 22.2383C145.206 22.2383 150.119 24.1982 154.074 28.1182C158.029 32.0381 160.007 36.8633 160.007 42.5938C160.007 48.2715 158.029 53.0879 154.074 57.043C150.137 60.998 145.329 62.9756 139.651 62.9756C133.903 62.9756 129.052 61.0068 125.097 57.0693C121.142 53.1318 119.164 48.3682 119.164 42.7783C119.164 39.0518 120.061 35.5977 121.854 32.416C123.664 29.2344 126.125 26.7471 129.236 24.9541C132.348 23.1436 135.714 22.2383 139.335 22.2383ZM139.52 26.0352C136.654 26.0352 133.938 26.7822 131.372 28.2764C128.806 29.7705 126.802 31.7832 125.36 34.3145C123.919 36.8457 123.198 39.667 123.198 42.7783C123.198 47.3838 124.789 51.2773 127.971 54.459C131.17 57.623 135.02 59.2051 139.52 59.2051C142.525 59.2051 145.303 58.4756 147.852 57.0166C150.418 55.5576 152.413 53.5625 153.837 51.0312C155.278 48.5 155.999 45.6875 155.999 42.5938C155.999 39.5176 155.278 36.7402 153.837 34.2617C152.413 31.7656 150.4 29.7705 147.799 28.2764C145.197 26.7822 142.438 26.0352 139.52 26.0352ZM167.785 23.2139H171.74V37.7686L187.218 23.2139H192.465L173.823 40.6162L193.915 62H188.773L171.74 43.9121V62H167.785V23.2139ZM215.536 23.2139L233.624 62H229.458L223.367 49.2383H206.65L200.586 62H196.262L214.587 23.2139H215.536ZM215.062 31.4404L208.391 45.4941H221.653L215.062 31.4404ZM239.768 23.2139H247.414C250.49 23.2139 252.854 23.583 254.507 24.3213C256.159 25.042 257.46 26.1582 258.409 27.6699C259.376 29.1816 259.859 30.8604 259.859 32.7061C259.859 34.4287 259.438 36.002 258.594 37.4258C257.75 38.832 256.511 39.9746 254.876 40.8535C256.897 41.5391 258.453 42.3477 259.543 43.2793C260.633 44.1934 261.477 45.3096 262.074 46.6279C262.689 47.9287 262.997 49.3438 262.997 50.873C262.997 53.9844 261.854 56.6211 259.569 58.7832C257.302 60.9277 254.252 62 250.42 62H239.768V23.2139ZM243.564 27.0107V39.4297H245.779C248.469 39.4297 250.446 39.1836 251.712 38.6914C252.978 38.1816 253.979 37.3906 254.718 36.3184C255.456 35.2285 255.825 34.0244 255.825 32.7061C255.825 30.9307 255.201 29.542 253.953 28.54C252.723 27.5205 250.754 27.0107 248.047 27.0107H243.564ZM243.564 43.332V58.2031H248.363C251.193 58.2031 253.268 57.9307 254.586 57.3857C255.904 56.8232 256.959 55.9531 257.75 54.7754C258.559 53.5977 258.963 52.3232 258.963 50.9521C258.963 49.2295 258.4 47.7266 257.275 46.4434C256.15 45.1602 254.604 44.2812 252.635 43.8066C251.316 43.4902 249.022 43.332 245.753 43.332H243.564ZM269.167 26.958V23.2139H289.628L273.412 58.2295H288.811V62H267.427L283.748 26.958H269.167ZM312.462 23.2139L330.55 62H326.384L320.293 49.2383H303.576L297.512 62H293.188L311.513 23.2139H312.462ZM311.987 31.4404L305.316 45.4941H318.579L311.987 31.4404ZM352.435 23.2139L370.522 62H366.356L360.266 49.2383H343.549L337.484 62H333.16L351.485 23.2139H352.435ZM351.96 31.4404L345.289 45.4941H358.552L351.96 31.4404Z" fill="white"/>
<ellipse cx="31.8076" cy="19.7058" rx="10.0214" ry="10.8699" fill="white"/>
<path d="M38.0163 60.8335L34.2422 58.0899C22.9214 49.8596 11.5976 41.6306 0.270848 33.4031C0.182791 33.3468 0.111977 33.2687 0.0658003 33.177C0.0196241 33.0852 -0.000224053 32.9832 0.00832458 32.8815C0.0201233 31.0828 0.00832458 29.2856 0.00832458 27.4869C-0.066064 25.9923 0.359671 24.5143 1.22246 23.2719C2.08525 22.0294 3.33921 21.0886 4.79859 20.5887C5.3585 20.4003 5.9461 20.3002 6.5389 20.2922C9.03137 20.2608 11.5253 20.2779 14.0178 20.2794C14.0886 20.2794 14.1653 20.2894 14.2523 20.2965C14.2774 20.6243 14.3024 20.9421 14.326 21.2599C14.5022 22.9005 14.9415 24.5046 15.6283 26.0146C16.5149 28.0821 17.7621 29.9873 19.3154 31.6472C20.7431 33.2245 22.125 34.8455 23.4612 36.5102C24.3461 37.609 25.0569 38.8447 25.902 39.9749C27.2235 41.8235 28.4254 43.7494 29.5006 45.7415C29.69 46.1778 29.9782 46.5675 30.3442 46.8817C30.5935 47.0506 30.8782 47.1644 31.178 47.2152C31.4779 47.2659 31.7856 47.2523 32.0795 47.1753C32.3733 47.0984 32.646 46.9599 32.8783 46.7698C33.1106 46.5796 33.2968 46.3425 33.4237 46.075C34.8283 43.523 36.3666 41.0417 38.0325 38.6409C39.7869 36.2119 41.6956 33.8905 43.7475 31.69C45.3498 30.0176 46.6335 28.0846 47.5394 25.9804C48.2733 24.2759 48.6839 22.4578 48.7517 20.6129C48.759 20.3407 48.8416 20.2751 49.0938 20.2765C50.8636 20.2865 52.6261 20.2765 54.3914 20.2836C56.04 20.3751 57.6009 21.0307 58.7948 22.133C59.9888 23.2353 60.7376 24.7124 60.9073 26.2997C60.955 26.7052 60.9796 27.1129 60.981 27.5211C60.981 30.7507 60.981 33.9818 60.9884 37.2128C60.9939 37.3219 60.9754 37.4309 60.9343 37.5326C60.8931 37.6343 60.8301 37.7264 60.7495 37.8029C53.2435 45.4042 45.741 53.0056 38.242 60.6069C38.1682 60.681 38.0945 60.7494 38.0075 60.8378" fill="#3E7C7B"/>
<path d="M50.5176 74.998H50.1194C35.7211 74.998 21.3222 74.998 6.92292 74.998C5.90055 75.019 4.88764 74.805 3.96763 74.3736C3.04762 73.9422 2.24683 73.3057 1.63121 72.5166C0.623876 71.3161 0.0629456 69.8234 0.0383842 68.2779C-0.00881058 65.9747 0.0192057 63.6701 0.0280547 61.3669C0.0437398 61.2275 0.112003 61.0986 0.219791 61.0048C2.05252 59.4152 3.88967 57.8303 5.73125 56.2502L14.5493 48.6536C14.9224 48.3315 14.9195 48.3286 15.3059 48.618L50.202 74.7443C50.2831 74.8056 50.3613 74.8711 50.5161 74.9965" fill="#63B3B4"/>
<path d="M31.5823 41.586C31.4599 41.375 31.3567 41.1769 31.2343 40.9945C30.2176 39.4742 29.1985 37.954 28.1769 36.4337C28.0944 36.3111 27.9926 36.2014 27.9174 36.0745C26.5407 33.9921 24.9983 32.0164 23.3041 30.1654C22.4856 29.1678 21.5741 28.2641 20.7969 27.2394C19.3633 25.368 18.4999 23.1464 18.3044 20.8257C18.0417 18.6581 18.3348 16.4613 19.1578 14.4289C19.9808 12.3966 21.3085 10.591 23.0239 9.17144C24.3225 8.01573 25.8613 7.14103 27.5376 6.60573C29.2139 6.07043 30.989 5.88685 32.7445 6.06724C34.9397 6.24801 37.0574 6.93749 38.9182 8.07728C40.779 9.21707 42.3281 10.7736 43.4341 12.6149C44.765 14.6099 45.3524 16.9838 45.0992 19.3449C44.8854 22.7597 43.5216 26.0131 41.216 28.6091C38.0825 31.95 35.2882 35.5739 32.8714 39.431C32.4289 40.1308 32.0248 40.8563 31.5794 41.6002M22.4207 20.2998C22.4187 22.0897 22.8747 23.8523 23.748 25.4307C24.3438 26.6407 25.2289 27.6963 26.3302 28.5105C27.4314 29.3246 28.7173 29.8739 30.0817 30.1129C31.446 30.352 32.8496 30.274 34.1766 29.8854C35.5035 29.4968 36.7158 28.8087 37.7132 27.8779C38.7686 26.8639 39.6004 25.6538 40.1584 24.3206C40.7165 22.9874 40.9891 21.5587 40.9601 20.1208C40.931 18.6829 40.6007 17.2657 39.9892 15.9545C39.3777 14.6434 38.4976 13.4656 37.4021 12.4923C36.2175 11.4087 34.7257 10.6906 33.1171 10.4297C31.5085 10.1687 29.856 10.3767 28.3702 11.0271C26.5472 11.837 25.0109 13.1471 23.9525 14.7943C22.8942 16.4415 22.3604 18.3531 22.4177 20.2913" fill="#F84464"/>
<path d="M41.1631 62.9175L60.9672 42.5977C60.979 42.7402 60.9923 42.8242 60.9923 42.9126C60.9923 51.2142 60.9923 59.5159 60.9923 67.8175C61.0471 69.0762 60.7527 70.3262 60.1397 71.438C59.5267 72.5499 58.6174 73.4832 57.5057 74.1414C57.3339 74.2827 57.1135 74.3567 56.888 74.3487C56.6626 74.3408 56.4483 74.2516 56.2875 74.0986C51.3409 70.4172 46.3722 66.7685 41.4109 63.1099C41.3371 63.0557 41.2634 62.9959 41.1675 62.9189" fill="#F9AA1A"/>
<path d="M0.0234375 56.8172V37.5977L11.7248 46.5354L0.0234375 56.8186" fill="#F84464"/>
<path d="M37.4969 17.0114C37.4924 19.1577 36.9708 21.2735 35.9734 23.1912C35.0458 24.8308 33.6824 26.2015 32.0238 27.162C31.9211 27.2211 31.8019 27.248 31.6827 27.2388C31.5636 27.2296 31.4503 27.1848 31.3586 27.1107C29.2578 25.8882 27.6596 24.0008 26.8353 21.7688C26.2201 20.0184 25.9291 18.1768 25.9755 16.3287C25.9755 15.9011 26.1938 15.6317 26.5448 15.6246C28.098 15.5201 29.5783 14.9479 30.7776 13.9884C30.9634 13.8558 31.1433 13.7119 31.3248 13.5722C31.3757 13.5135 31.4394 13.4665 31.5113 13.4344C31.5833 13.4023 31.6617 13.3861 31.7409 13.3867C31.8201 13.3874 31.8982 13.405 31.9696 13.4383C32.0409 13.4716 32.1038 13.5198 32.1536 13.5793C33.1388 14.4302 34.3046 15.0626 35.5693 15.4322C35.9774 15.5278 36.3934 15.5884 36.8126 15.6132C37.2713 15.6517 37.4807 15.8498 37.494 16.3358C37.494 16.561 37.494 16.7876 37.494 17.0142M29.698 21.0049C29.698 21.2087 29.698 21.414 29.698 21.6178C29.698 21.8216 29.698 22.0268 29.7053 22.2306C29.6975 22.3629 29.7182 22.4953 29.7662 22.6193C29.8143 22.7434 29.8885 22.8565 29.9843 22.9513C30.08 23.0461 30.1952 23.1206 30.3224 23.17C30.4496 23.2194 30.586 23.2427 30.723 23.2383C31.3886 23.244 32.0548 23.244 32.7214 23.2383C32.8695 23.2439 33.017 23.2183 33.1538 23.1634C33.2907 23.1085 33.4136 23.0255 33.514 22.9202C33.6144 22.8149 33.6899 22.6898 33.7354 22.5535C33.7809 22.4172 33.7952 22.273 33.7774 22.1309C33.7848 21.3883 33.7774 20.6458 33.7774 19.9032C33.7843 19.7282 33.7504 19.5539 33.6781 19.3933C33.6059 19.2327 33.4971 19.0898 33.36 18.9754C33.2881 18.8948 33.242 18.7957 33.2273 18.6903C33.1904 18.5236 33.1919 18.3482 33.1579 18.1801C33.1314 17.9767 33.0585 17.7815 32.9444 17.6087C32.8304 17.4359 32.6781 17.2896 32.4985 17.1806C32.3189 17.0715 32.1164 17.0023 31.9058 16.9779C31.6952 16.9536 31.4816 16.9748 31.2805 17.0399C30.9662 17.1599 30.6981 17.3711 30.5132 17.6445C30.3284 17.9179 30.2357 18.2399 30.2481 18.5663C30.248 18.7161 30.1961 18.8616 30.1006 18.9796C29.9704 19.0928 29.8669 19.2317 29.7969 19.3868C29.727 19.5419 29.6922 19.7098 29.695 19.879C29.695 20.2552 29.695 20.6315 29.695 21.0092" fill="#151414"/>
<path d="M30.6533 18.7699C30.6178 18.6115 30.6169 18.4476 30.6506 18.2888C30.6842 18.1299 30.7518 17.9796 30.849 17.8474C30.9461 17.7152 31.0706 17.604 31.2147 17.5208C31.3588 17.4377 31.5191 17.3845 31.6857 17.3646C32.3788 17.3318 32.8552 17.8991 32.8449 18.7699H30.6533Z" fill="#151414"/>
<path d="M31.7427 22.0754C31.2634 22.0754 31.228 22.0141 31.3003 21.5053C31.4106 21.1588 31.4273 20.7908 31.3489 20.4363C31.3347 20.378 31.3341 20.3174 31.3469 20.2589C31.3598 20.2003 31.386 20.1453 31.4235 20.0976C31.4609 20.0499 31.5089 20.0108 31.5638 19.9832C31.6187 19.9555 31.6793 19.9399 31.7412 19.9375C31.9728 19.9375 32.1262 20.147 32.1291 20.4178C32.1291 20.7969 32.1439 21.176 32.1837 21.558C32.2324 22.0141 32.1837 22.0839 31.7412 22.0839" fill="#151414"/>
</svg>
