<svg xmlns="http://www.w3.org/2000/svg" width="40" height="40" viewBox="0 0 38 33.529">
								<g id="newspaper-folded" transform="translate(0 -26)">
									<path id="Path_88039" data-name="Path 88039"
										d="M69.543,336H60.86a.86.86,0,1,0,0,1.719h8.683a.86.86,0,1,0,0-1.719Z"
										transform="translate(-54.842 -283.348)" fill="#f84464" />
									<path id="Path_88040" data-name="Path 88040"
										d="M220.543,336H211.86a.86.86,0,1,0,0,1.719h8.683a.86.86,0,1,0,0-1.719Z"
										transform="translate(-192.86 -283.348)" fill="#f84464" />
									<path id="Path_88041" data-name="Path 88041"
										d="M82.525,86H60.86a.86.86,0,1,0,0,1.719H82.525a.86.86,0,1,0,0-1.719Z"
										transform="translate(-54.842 -54.842)" fill="#f84464" />
									<path id="Path_88042" data-name="Path 88042"
										d="M220.543,136H211.86a.86.86,0,1,0,0,1.719h8.683a.86.86,0,1,0,0-1.719Z"
										transform="translate(-192.86 -100.543)" fill="#f84464" />
									<path id="Path_88043" data-name="Path 88043"
										d="M220.543,186H211.86a.86.86,0,1,0,0,1.719h8.683a.86.86,0,1,0,0-1.719Z"
										transform="translate(-192.86 -146.244)" fill="#f84464" />
									<path id="Path_88044" data-name="Path 88044"
										d="M220.543,236H211.86a.86.86,0,0,0,0,1.719h8.683a.86.86,0,0,0,0-1.719Z"
										transform="translate(-192.86 -191.946)" fill="#f84464" />
									<path id="Path_88045" data-name="Path 88045"
										d="M220.543,286H211.86a.86.86,0,1,0,0,1.719h8.683a.86.86,0,1,0,0-1.719Z"
										transform="translate(-192.86 -237.647)" fill="#f84464" />
									<path id="Path_88046" data-name="Path 88046"
										d="M69.543,286H60.86a.86.86,0,0,0,0,1.719h8.683a.86.86,0,0,0,0-1.719Z"
										transform="translate(-54.842 -237.647)" fill="#f84464" />
									<path id="Path_88047" data-name="Path 88047"
										d="M69.543,136H60.86a.86.86,0,0,0-.86.86v8.683a.86.86,0,0,0,.86.86h8.683a.86.86,0,0,0,.86-.86V136.86A.86.86,0,0,0,69.543,136Zm-.86,8.683H61.719v-6.964h6.964Z"
										transform="translate(-54.842 -100.543)" fill="#f84464" />
									<path id="Path_88048" data-name="Path 88048"
										d="M36.281,30.3H33.7V27.719A1.721,1.721,0,0,0,31.982,26H1.719A1.721,1.721,0,0,0,0,27.719V55.231a4.3,4.3,0,0,0,4.3,4.3H33.7a4.3,4.3,0,0,0,4.3-4.3V32.018A1.721,1.721,0,0,0,36.281,30.3Zm0,24.932A2.582,2.582,0,0,1,33.7,57.81H4.3a2.582,2.582,0,0,1-2.579-2.579V27.719H31.982V53.941a2.152,2.152,0,0,0,2.149,2.149.86.86,0,1,0,0-1.719.43.43,0,0,1-.43-.43V32.018h2.579Z"
										fill="#f84464" />
								</g>
							</svg>