<svg viewBox="0 0 256 183" fill="none" xmlns="http://www.w3.org/2000/svg">
<mask id="mask0_376_16993" style="mask-type:luminance" maskUnits="userSpaceOnUse" x="0" y="0" width="252" height="183">
<path d="M252 0H0V182.2H252V0Z" fill="white"/>
</mask>
<g mask="url(#mask0_376_16993)">
<path d="M179.697 182.2H79.197C74.397 182.2 71.197 178.3 72.097 173.5L82.097 118.2C82.997 113.4 87.497 109.5 92.297 109.5H192.797C197.597 109.5 200.797 113.4 199.897 118.2L189.897 173.5C188.997 178.3 184.397 182.2 179.697 182.2Z" fill="#202533"/>
<path d="M188.238 21.5547L147.984 98.01L211.785 131.601L252.039 55.1461L188.238 21.5547Z" fill="#C8C6C4"/>
<path d="M190.003 27.5352L159.859 84.7882L216.05 114.373L246.194 57.1198L190.003 27.5352Z" fill="#EDEBE9"/>
<path d="M208.597 46.9985C203.797 45.4985 198.097 48.8985 195.897 54.6985C194.097 59.6985 198.397 63.3984 196.397 67.4984C194.497 71.5984 188.297 71.7985 187.897 77.0985C187.497 82.3985 190.197 84.3985 186.797 90.4985L193.197 93.8985C193.197 93.8985 193.197 89.7985 195.997 87.8985C198.797 85.9985 205.297 82.5985 203.797 77.7985C202.397 72.8985 205.297 69.4985 206.997 68.3985C208.697 67.2985 211.997 63.6985 213.797 59.5985C215.697 55.3985 213.897 48.6985 208.597 46.9985Z" fill="#F84464"/>
<path d="M214.8 62.1007C219.3 64.7007 219 70.8007 216 74.7007C213.5 78.0007 208.6 76.6007 206.8 79.5007C205 82.5007 208.1 87.9007 204.2 90.0007C200.3 92.1007 197.5 91.2007 195.8 95.5007L190 92.4007C190 92.4007 192.6 90.8007 192.1 88.1007C191.5 85.4007 191.4 79.3007 195.6 78.4007C199.8 77.4007 200.7 74.0007 200.6 72.4007C200.5 70.8007 200.2 67.4007 203 64.1007C205.8 60.8007 211.9 60.5007 214.8 62.1007Z" fill="white"/>
<path d="M194.398 92.0977C194.398 92.0977 205.598 72.1977 210.998 67.0977" stroke="#F84464" stroke-width="1.7169" stroke-miterlimit="10" stroke-linecap="round"/>
<path d="M201.902 95.4981L185.302 86.698C184.602 86.298 183.602 86.798 183.502 87.698L182.102 96.3981L195.802 103.598L202.202 97.4981C202.802 96.9981 202.702 95.8981 201.902 95.4981Z" fill="#525660"/>
<path d="M93.2984 0L180.098 4.6L174.198 116.4L87.3984 111.8L93.2984 0Z" fill="#E2E2F6"/>
<path d="M154.003 23.5981C153.703 23.0981 153.103 22.7981 152.503 22.8981L142.403 24.1981C141.903 24.2981 141.403 24.5981 141.203 25.0981C141.003 25.5981 141.003 26.1981 141.303 26.6981L143.003 28.9981L132.003 35.9981L126.503 29.0981L110.203 39.4981L112.403 42.8981L125.603 34.4981L131.103 41.3981L145.403 32.2981L147.303 34.7981C147.603 35.1981 148.003 35.4981 148.503 35.4981C148.603 35.4981 148.603 35.4981 148.703 35.4981C149.303 35.3981 149.703 35.0981 149.903 34.5981L154.003 24.9981C154.303 24.4981 154.303 23.9981 154.003 23.5981Z" fill="#F84464"/>
<path d="M101.5 86.1023L101.8 81.4023L159.5 84.4023L161.3 36.9023L166 37.2023L163.9 89.4023L101.5 86.1023Z" fill="#525660"/>
<path d="M143.902 45.5L156.102 46.2L154.302 79.2L142.102 78.6L143.902 45.5Z" fill="#525660"/>
<path d="M125.298 51.6992L137.498 52.3992L136.098 78.1992L123.898 77.4992L125.298 51.6992Z" fill="#525660"/>
<path d="M106.402 62.9023L118.602 63.5023L117.802 77.2023L105.602 76.6023L106.402 62.9023Z" fill="#525660"/>
<path d="M90.5 42.4008L116.3 118.901L34 146.601L0 45.8008L57.9 26.3008L90.5 42.4008Z" fill="#E2E2F6"/>
<path d="M90.4984 42.4008L66.1984 50.6008L57.8984 26.3008L90.4984 42.4008Z" fill="#BDBDE6"/>
<path d="M81.9381 63.7227L50.4844 74.3434L52.0519 78.9857L83.5056 68.365L81.9381 63.7227Z" fill="#525660"/>
<path d="M85.9237 75.6133L31.9219 93.8476L33.4894 98.4898L87.4912 80.2555L85.9237 75.6133Z" fill="#525660"/>
<path d="M89.8143 87.4258L35.8125 105.66L37.38 110.302L91.3818 92.068L89.8143 87.4258Z" fill="#525660"/>
<path d="M77.938 51.9062L46.4844 62.5269L48.0519 67.1692L79.5055 56.5485L77.938 51.9062Z" fill="#525660"/>
<path opacity="0.8" d="M40.4 64.5977L45.9 81.0977L29.5 86.4977L24 70.1977L40.4 64.5977Z" fill="#F84464"/>
<path d="M179.704 182.201H79.2038C74.4038 182.201 69.9038 178.301 69.1038 173.601L59.9038 118.401C59.1038 113.601 62.3038 109.801 67.1038 109.801H167.604C172.404 109.801 176.904 113.701 177.704 118.401L186.904 173.601C187.704 178.401 184.404 182.201 179.704 182.201Z" fill="#525660"/>
<path d="M89.1977 114.401L60.0977 119.901L57.7977 106.101C56.9977 101.501 60.0977 97.8008 64.6977 97.8008H78.0977C82.6977 97.8008 86.9977 101.501 87.7977 106.101L89.1977 114.401Z" fill="#525660"/>
</g>
</svg>
