<svg xmlns="http://www.w3.org/2000/svg" width="40" height="40" viewBox="0 0 38.803 47.108">
						<g id="personal-data" transform="translate(-12.344 -5.357)">
							<path id="Path_88057" data-name="Path 88057"
								d="M37,41.347l-10.721,3.73a.675.675,0,0,0-.458.634V49.76a.676.676,0,1,0,1.352,0v-3.57l10.046-3.5,10.053,3.5v3.57a.674.674,0,1,0,1.346,0V45.711a.668.668,0,0,0-.453-.634l-10.72-3.73A.544.544,0,0,0,37,41.347Z"
								transform="translate(-5.473 -14.597)" fill="#f84464" />
							<path id="Path_88058" data-name="Path 88058"
								d="M37.959,6.883a6.692,6.692,0,0,1,8.067,4.906,6.61,6.61,0,0,1-4.955,7.98A6.692,6.692,0,0,1,33,14.863a6.607,6.607,0,0,1,4.955-7.98Zm-.315-1.308a7.966,7.966,0,0,0-5.951,9.6,8.064,8.064,0,0,0,9.693,5.905,7.965,7.965,0,0,0,5.948-9.6,8.063,8.063,0,0,0-9.691-5.9Z"
								transform="translate(-7.768 0)" fill="#f84464" fill-rule="evenodd" />
							<path id="Path_88059" data-name="Path 88059"
								d="M24.956,36.456H38.537a6.268,6.268,0,0,1,3.931,1.014,9.436,9.436,0,0,1,2.639,3.665l4.1,8.457a3.916,3.916,0,0,1,.513,2.694c-.186.631-.683,1.149-1.788,1.574L43.6,55.541a1.9,1.9,0,0,1-1.689-.034,2.182,2.182,0,0,1-.98-1.21,2.22,2.22,0,0,1,1.311-2.947c1.288-.553,3.529-1.463,3.529-1.463a.674.674,0,1,0-.5-1.247s-2.239.909-3.556,1.475a3.663,3.663,0,0,0-2.051,4.628,3.747,3.747,0,0,0,.284.622c-1.72,3.288-4.6,5.731-8.2,7.7-3.606-1.968-6.48-4.411-8.2-7.7a3.76,3.76,0,0,0,.287-.622,3.662,3.662,0,0,0-2.054-4.628c-1.314-.566-3.554-1.475-3.554-1.475a.674.674,0,1,0-.5,1.247s2.239.91,3.528,1.463A2.222,2.222,0,0,1,22.557,54.3a2.19,2.19,0,0,1-.983,1.21,1.9,1.9,0,0,1-1.689.034l-4.321-1.68c-1.1-.426-1.6-.944-1.789-1.574a3.914,3.914,0,0,1,.51-2.694l4.1-8.457a9.423,9.423,0,0,1,2.636-3.665,6.274,6.274,0,0,1,3.933-1.015Zm0-1.342a7.678,7.678,0,0,0-4.727,1.266,10.617,10.617,0,0,0-3.056,4.169l-4.095,8.457a5.131,5.131,0,0,0-.6,3.665,4,4,0,0,0,2.6,2.45L19.4,56.8a3.329,3.329,0,0,0,2.811-.106,2.986,2.986,0,0,0,.381-.248,21.014,21.014,0,0,0,8.838,8.024.671.671,0,0,0,.631,0A21,21,0,0,0,40.9,56.447a2.949,2.949,0,0,0,.383.248,3.331,3.331,0,0,0,2.811.106l4.324-1.68a3.983,3.983,0,0,0,2.592-2.45,5.116,5.116,0,0,0-.594-3.665l-4.1-8.457a10.63,10.63,0,0,0-3.059-4.169,7.665,7.665,0,0,0-4.723-1.266Z"
								transform="translate(0 -12.085)" fill="#f84464" />
							<path id="Path_88060" data-name="Path 88060"
								d="M45.868,56.333,38.9,63.364a.1.1,0,0,1-.148,0l-4.2-4.2,1.3-1.336,2.5,2.509a.68.68,0,0,0,.953,0l5.171-5.175Zm-1.336-2.595a1.664,1.664,0,0,0-1,.464l-4.7,4.7-2.026-2.023a1.454,1.454,0,0,0-2.045,0l-1.172,1.191a1.453,1.453,0,0,0,0,2.039L37.8,64.32a1.321,1.321,0,0,0,2.042.006l6.978-7.043a1.518,1.518,0,0,0-.007-2.032l-1.153-1.141A1.391,1.391,0,0,0,44.532,53.739Z"
								transform="translate(-8.459 -19.645)" fill="#f84464" fill-rule="evenodd" />
						</g>
					</svg>
