<svg xmlns="http://www.w3.org/2000/svg" xmlns:xlink="http://www.w3.org/1999/xlink" width="429" height="429" viewBox="0 0 429 429">
  <defs>
    <filter id="Ellipse_2489" x="0" y="0" width="429" height="429" filterUnits="userSpaceOnUse">
      <feOffset dy="3" input="SourceAlpha"/>
      <feGaussianBlur stdDeviation="3" result="blur"/>
      <feFlood flood-opacity="0.161"/>
      <feComposite operator="in" in2="blur"/>
      <feComposite in="SourceGraphic"/>
    </filter>
    <clipPath id="clip-path">
      <rect id="Rectangle_13709" data-name="Rectangle 13709" width="303.212" height="217.826" transform="translate(0 0)" fill="none" stroke="rgba(0,0,0,0)" stroke-width="0.5"/>
    </clipPath>
  </defs>
  <g id="Group_31946" data-name="Group 31946" transform="translate(-1095 -450)">
    <g transform="matrix(1, 0, 0, 1, 1095, 450)" filter="url(#Ellipse_2489)">
      <circle id="Ellipse_2489-2" data-name="Ellipse 2489" cx="205.5" cy="205.5" r="205.5" transform="translate(9 6)" fill="#fff"/>
    </g>
    <g id="Group_31945" data-name="Group 31945" transform="translate(1155 548.996)">
      <g id="Group_31944" data-name="Group 31944" transform="translate(0 0.004)" clip-path="url(#clip-path)">
        <path id="Path_88083" data-name="Path 88083" d="M171.968,165.406a16.587,16.587,0,1,0-16.587,16.587,16.587,16.587,0,0,0,16.587-16.587" transform="translate(-112.804 -120.953)" fill="#fff" stroke="rgba(0,0,0,0)" stroke-width="0.5"/>
        <circle id="Ellipse_2490" data-name="Ellipse 2490" cx="16.587" cy="16.587" r="16.587" transform="translate(19.12 44.454) rotate(-45)" fill="none" stroke="#1a1a1a" stroke-linecap="round" stroke-linejoin="round" stroke-width="0.5"/>
        <path id="Path_88084" data-name="Path 88084" d="M223.277,177.017v12.569l7.838,7.838" transform="translate(-181.466 -143.869)" fill="#fff" stroke="rgba(0,0,0,0)" stroke-width="0.5"/>
        <path id="Path_88085" data-name="Path 88085" d="M223.277,177.017v12.569l7.838,7.838" transform="translate(-181.466 -143.869)" fill="none" stroke="#1a1a1a" stroke-linecap="round" stroke-linejoin="round" stroke-width="0.5"/>
        <rect id="Rectangle_13685" data-name="Rectangle 13685" width="113.954" height="47.416" transform="translate(189.257 51.817)" fill="#ff395e" stroke="rgba(0,0,0,0)" stroke-width="0.5"/>
        <rect id="Rectangle_13686" data-name="Rectangle 13686" width="105.109" height="39.326" transform="translate(193.68 55.862)" fill="#fff" stroke="rgba(0,0,0,0)" stroke-width="0.5"/>
        <rect id="Rectangle_13687" data-name="Rectangle 13687" width="105.109" height="39.326" transform="translate(193.68 55.862)" fill="none" stroke="#1a1a1a" stroke-linecap="round" stroke-linejoin="round" stroke-width="0.5"/>
        <path id="Path_88086" data-name="Path 88086" d="M1055.841,336.327l7.3-4.39,4.794,1.1,3.906-3.658,7.15,2.286,8.7-4.3,6.356,1.646,4.846-7.133,3.178,1.28,6.475-1.829,3.933,1.372,4.886,2.561,4.648.091,4.052-2.378,4.29,2.469,5.244,1.28,5.244-2.927v-3.384l3.575-2.926,3.456-.64s1.788-2.195,2.383-2.195h2.622" transform="translate(-858.123 -255.731)" fill="none" stroke="#1a1a1a" stroke-linecap="round" stroke-linejoin="round" stroke-width="0.5"/>
        <path id="Path_88087" data-name="Path 88087" d="M1060.8,390.62l5.415,3.576,4.731-3.943h6.232l7.389-3.209,7.15,1.284,4.846-3.393,11.824.734,6.21-2.843,8.58-1.742,3.456-2.751,9.891,3.418,3.456-4.409,6.912-3.5,10.01,2.2" transform="translate(-862.149 -303.834)" fill="none" stroke="#1a1a1a" stroke-linecap="round" stroke-linejoin="round" stroke-width="0.5"/>
        <rect id="Rectangle_13688" data-name="Rectangle 13688" width="15.492" height="1.668" transform="translate(271.909 84.192)" fill="#25383f" stroke="rgba(0,0,0,0)" stroke-width="0.5"/>
        <rect id="Rectangle_13689" data-name="Rectangle 13689" width="15.492" height="1.668" transform="translate(271.909 84.192)" fill="none" stroke="#1a1a1a" stroke-linecap="round" stroke-linejoin="round" stroke-width="0.5"/>
        <rect id="Rectangle_13690" data-name="Rectangle 13690" width="15.492" height="1.668" transform="translate(271.909 88.693)" fill="#25383f" stroke="rgba(0,0,0,0)" stroke-width="0.5"/>
        <rect id="Rectangle_13691" data-name="Rectangle 13691" width="15.492" height="1.668" transform="translate(271.909 88.693)" fill="none" stroke="#1a1a1a" stroke-linecap="round" stroke-linejoin="round" stroke-width="0.5"/>
        <path id="Path_88088" data-name="Path 88088" d="M1147.777,810.185h-3.148l3.479-16.133h3.147Z" transform="translate(-930.284 -645.357)" fill="#ff395e" stroke="rgba(0,0,0,0)" stroke-width="0.5"/>
        <path id="Path_88089" data-name="Path 88089" d="M1174.758,810.185h-3.147l3.479-16.133h3.148Z" transform="translate(-952.213 -645.357)" fill="#ff395e" stroke="rgba(0,0,0,0)" stroke-width="0.5"/>
        <path id="Path_88090" data-name="Path 88090" d="M1201.74,810.185h-3.147l3.479-16.133h3.147Z" transform="translate(-974.142 -645.357)" fill="#fff" stroke="rgba(0,0,0,0)" stroke-width="0.5"/>
        <path id="Path_88091" data-name="Path 88091" d="M1201.74,810.185h-3.147l3.479-16.133h3.147Z" transform="translate(-974.142 -645.357)" fill="none" stroke="#1a1a1a" stroke-linecap="round" stroke-linejoin="round" stroke-width="0.5"/>
        <path id="Path_88092" data-name="Path 88092" d="M1228.721,810.185h-3.148l3.479-16.133h3.148Z" transform="translate(-996.071 -645.357)" fill="#fff" stroke="rgba(0,0,0,0)" stroke-width="0.5"/>
        <path id="Path_88093" data-name="Path 88093" d="M1228.721,810.185h-3.148l3.479-16.133h3.148Z" transform="translate(-996.071 -645.357)" fill="none" stroke="#1a1a1a" stroke-linecap="round" stroke-linejoin="round" stroke-width="0.5"/>
        <path id="Path_88094" data-name="Path 88094" d="M1255.7,810.185h-3.148l3.479-16.133h3.147Z" transform="translate(-1018 -645.357)" fill="#ff395e" stroke="rgba(0,0,0,0)" stroke-width="0.5"/>
        <path id="Path_88095" data-name="Path 88095" d="M1318.4,810.185h3.147l-3.479-16.133h-3.148Z" transform="translate(-1068.688 -645.357)" fill="#fff" stroke="rgba(0,0,0,0)" stroke-width="0.5"/>
        <path id="Path_88096" data-name="Path 88096" d="M1318.4,810.185h3.147l-3.479-16.133h-3.148Z" transform="translate(-1068.688 -645.357)" fill="none" stroke="#1a1a1a" stroke-linecap="round" stroke-linejoin="round" stroke-width="0.5"/>
        <path id="Path_88097" data-name="Path 88097" d="M1291.42,810.185h3.147l-3.479-16.133h-3.147Z" transform="translate(-1046.759 -645.357)" fill="#d1e0e6" stroke="rgba(0,0,0,0)" stroke-width="0.5"/>
        <path id="Path_88098" data-name="Path 88098" d="M1291.42,810.185h3.147l-3.479-16.133h-3.147Z" transform="translate(-1046.759 -645.357)" fill="none" stroke="#1a1a1a" stroke-width="0.5"/>
        <path id="Path_88099" data-name="Path 88099" d="M1015.036,985.435c5.332-44.28-69.144-60.973-96.438-5.459-10.193-8.213-32.839-9.035-35.4,5.562h36.945v-.1Z" transform="translate(-717.81 -767.9)" fill="#fff" stroke="rgba(0,0,0,0)" stroke-width="0.5"/>
        <path id="Path_88100" data-name="Path 88100" d="M1015.036,985.435c5.332-44.28-69.144-60.973-96.438-5.459-10.193-8.213-32.839-9.035-35.4,5.562h36.945v-.1Z" transform="translate(-717.81 -767.9)" fill="none" stroke="#1a1a1a" stroke-linecap="round" stroke-linejoin="round" stroke-width="0.5"/>
        <path id="Path_88101" data-name="Path 88101" d="M110.928,1062.177s6.31-11.917,15.178-17.313c11.968-7.283,26.224-6.9,36.4-2.927,13.342,5.207,24.919,20.233,24.927,20.24Z" transform="translate(-90.155 -844.538)" fill="#fff" stroke="rgba(0,0,0,0)" stroke-width="0.5"/>
        <path id="Path_88102" data-name="Path 88102" d="M110.928,1062.177s6.31-11.917,15.178-17.313c11.968-7.283,26.224-6.9,36.4-2.927,13.342,5.207,24.919,20.233,24.927,20.24Z" transform="translate(-90.155 -844.538)" fill="none" stroke="#1a1a1a" stroke-linecap="round" stroke-linejoin="round" stroke-width="0.5"/>
        <rect id="Rectangle_13692" data-name="Rectangle 13692" width="4.97" height="21.166" transform="translate(178.572 196.473)" fill="#25383f" stroke="rgba(0,0,0,0)" stroke-width="0.5"/>
        <rect id="Rectangle_13693" data-name="Rectangle 13693" width="4.97" height="21.166" transform="translate(178.572 196.473)" fill="none" stroke="#1a1a1a" stroke-linecap="round" stroke-linejoin="round" stroke-width="0.5"/>
        <rect id="Rectangle_13694" data-name="Rectangle 13694" width="4.97" height="21.166" transform="translate(254.157 196.473)" fill="#25383f" stroke="rgba(0,0,0,0)" stroke-width="0.5"/>
        <rect id="Rectangle_13695" data-name="Rectangle 13695" width="4.97" height="21.166" transform="translate(254.157 196.473)" fill="none" stroke="#1a1a1a" stroke-linecap="round" stroke-linejoin="round" stroke-width="0.5"/>
        <rect id="Rectangle_13696" data-name="Rectangle 13696" width="108.609" height="35.345" rx="17.672" transform="translate(163.646 164.827)" fill="#fff" stroke="rgba(0,0,0,0)" stroke-width="0.5"/>
        <rect id="Rectangle_13697" data-name="Rectangle 13697" width="108.609" height="35.345" rx="17.672" transform="translate(163.646 164.827)" fill="none" stroke="#1a1a1a" stroke-linecap="round" stroke-linejoin="round" stroke-width="0.5"/>
        <path id="Path_88103" data-name="Path 88103" d="M979.1,921.369H892.42a9.22,9.22,0,0,1-9.22-9.22V898.73a9.22,9.22,0,0,1,9.22-9.22H979.1a9.221,9.221,0,0,1,9.22,9.22v13.418a9.221,9.221,0,0,1-9.22,9.22" transform="translate(-717.811 -722.94)" fill="#fff" stroke="rgba(0,0,0,0)" stroke-width="0.5"/>
        <rect id="Rectangle_13698" data-name="Rectangle 13698" width="105.123" height="31.859" rx="15.93" transform="translate(165.389 166.57)" fill="none" stroke="#1a1a1a" stroke-linecap="round" stroke-linejoin="round" stroke-width="0.5"/>
        <path id="Path_88104" data-name="Path 88104" d="M744.757,1106.749h-2.3a23.34,23.34,0,0,1-6.771-1.3,14.9,14.9,0,0,1-6.4-4.816l-.683,6.064h-2.3l-.316-12.1s3.355-2.623,12.222,2.913c4.083,2.306,7.166,7.519,7.166,7.519s1.491,1.467-.621,1.727" transform="translate(-590.04 -889.11)" fill="#25383f" stroke="rgba(0,0,0,0)" stroke-width="0.5"/>
        <path id="Path_88105" data-name="Path 88105" d="M744.757,1106.749h-2.3a23.34,23.34,0,0,1-6.771-1.3,14.9,14.9,0,0,1-6.4-4.816l-.683,6.064h-2.3l-.316-12.1s3.355-2.623,12.222,2.913c4.083,2.306,7.166,7.519,7.166,7.519s1.491,1.467-.621,1.727" transform="translate(-590.04 -889.11)" fill="none" stroke="#1a1a1a" stroke-linecap="round" stroke-linejoin="round" stroke-width="0.5"/>
        <path id="Path_88106" data-name="Path 88106" d="M711.238,976.748s2.838,22.549,8.791,25.405a9.34,9.34,0,0,0-4.658,1.493c-1.944-3.68-7.564-4.407-7.564-4.407a74.539,74.539,0,0,0-4.189-22.326c1.151,0,7.62-.166,7.62-.166" transform="translate(-571.857 -793.841)" fill="#fff" stroke="rgba(0,0,0,0)" stroke-width="0.5"/>
        <path id="Path_88107" data-name="Path 88107" d="M711.238,976.748s2.838,22.549,8.791,25.405a9.34,9.34,0,0,0-4.658,1.493c-1.944-3.68-7.564-4.407-7.564-4.407a74.539,74.539,0,0,0-4.189-22.326C704.769,976.914,711.238,976.748,711.238,976.748Z" transform="translate(-571.857 -793.841)" fill="none" stroke="#1a1a1a" stroke-linecap="round" stroke-linejoin="round" stroke-width="0.5"/>
        <path id="Path_88108" data-name="Path 88108" d="M267.006,825.794l-15.731,62.751h2.061l20.328-60.381Z" transform="translate(-204.221 -671.155)" fill="#fff" stroke="rgba(0,0,0,0)" stroke-width="0.5"/>
        <path id="Path_88109" data-name="Path 88109" d="M267.006,825.794l-15.731,62.751h2.061l20.328-60.381Z" transform="translate(-204.221 -671.155)" fill="none" stroke="#1a1a1a" stroke-linecap="round" stroke-linejoin="round" stroke-width="0.5"/>
        <path id="Path_88110" data-name="Path 88110" d="M490.911,835.022l15.3,61.023h-2.061L484.7,838.279Z" transform="translate(-393.935 -678.655)" fill="#fff" stroke="rgba(0,0,0,0)" stroke-width="0.5"/>
        <path id="Path_88111" data-name="Path 88111" d="M490.911,835.022l15.3,61.023h-2.061L484.7,838.279Z" transform="translate(-393.935 -678.655)" fill="none" stroke="#1a1a1a" stroke-linecap="round" stroke-linejoin="round" stroke-width="0.5"/>
        <path id="Path_88112" data-name="Path 88112" d="M262.98,555.64a73.716,73.716,0,0,1-17.712-1.976,49.237,49.237,0,0,1-11.3-4.235,40.526,40.526,0,0,1-7.36-4.978,39.437,39.437,0,0,1-4.938-5.041,43.912,43.912,0,0,1-5.979-9.714,52.364,52.364,0,0,1-2.66-7.292,57.372,57.372,0,0,1-1.8-9.1,40.818,40.818,0,0,1-.292-4.371c0-.041,0-.064,0-.069h0a9.585,9.585,0,0,0-19.167-.384c0,.069,0,.222,0,.454a67.583,67.583,0,0,0,1.3,12.288,73.6,73.6,0,0,0,5.077,16.191,63.367,63.367,0,0,0,8.091,13.39,58.63,58.63,0,0,0,9.324,9.382,59.913,59.913,0,0,0,9.069,5.989,68.705,68.705,0,0,0,17.06,6.347,93.721,93.721,0,0,0,21.293,2.291,9.586,9.586,0,0,0,0-19.171m-52.041-46.775Z" transform="translate(-155.856 -405.646)" fill="#ff395e" stroke="rgba(0,0,0,0)" stroke-width="0.5"/>
        <path id="Path_88113" data-name="Path 88113" d="M423.438,259.157s7.269-6.215-1.357-12.634c-7.613-5.665-20.873-.994-21,11.43-8.448,2.982-8.65,12.089-5.909,15.158-7.509,1.367-11.236,5.406-7.136,10.1s31.845,5.537,32.862,1.956c.555-1.956-1.3-7.015-4.414-8.283,5.63-5.964,6.952-17.723,6.952-17.723" transform="translate(-313.999 -198.421)" fill="#25383f" stroke="rgba(0,0,0,0)" stroke-width="0.5"/>
        <path id="Path_88114" data-name="Path 88114" d="M423.438,259.157s7.269-6.215-1.357-12.634c-7.613-5.665-20.873-.994-21,11.43-8.448,2.982-8.65,12.089-5.909,15.158-7.509,1.367-11.236,5.406-7.136,10.1s31.845,5.537,32.862,1.956c.555-1.956-1.3-7.015-4.414-8.283C422.116,270.916,423.438,259.157,423.438,259.157Z" transform="translate(-313.999 -198.421)" fill="none" stroke="#1a1a1a" stroke-linecap="round" stroke-linejoin="round" stroke-width="0.5"/>
        <path id="Path_88115" data-name="Path 88115" d="M684.175,603.388s6.413-4.1,11.748-4.162,5.149,6.313,3.844,7.144-12.984.831-12.984.831Z" transform="translate(-556.055 -487.014)" fill="#fff" stroke="rgba(0,0,0,0)" stroke-width="0.5"/>
        <path id="Path_88116" data-name="Path 88116" d="M684.175,603.388s6.413-4.1,11.748-4.162,5.149,6.313,3.844,7.144-12.984.831-12.984.831Z" transform="translate(-556.055 -487.014)" fill="none" stroke="#1a1a1a" stroke-linecap="round" stroke-linejoin="round" stroke-width="0.5"/>
        <path id="Path_88117" data-name="Path 88117" d="M451.56,433.3s10.923,3.459,12.684,5.475c4.3,4.927,5.254,25.513,7.94,26.595s9.4.393,9.4.393l3.357,6s-11.511,4.624-17.171,2.459-8.058-15.641-8.058-15.641-4.892,13.5,1.918,18.9a25.69,25.69,0,0,0,2.878,2.317l-6.235,2s-17.46-16.652-24.051-32.023c-2.226-5.192,1.363-13,1.03-16.542-.193-2.048,4.874-1.385,9.409-.63,3.529.588,6.737,1.232,6.9.7" transform="translate(-352.314 -350.992)" fill="#fff" stroke="rgba(0,0,0,0)" stroke-width="0.5"/>
        <path id="Path_88118" data-name="Path 88118" d="M451.56,433.3s10.923,3.459,12.684,5.475c4.3,4.927,5.254,25.513,7.94,26.595s9.4.393,9.4.393l3.357,6s-11.511,4.624-17.171,2.459-8.058-15.641-8.058-15.641-4.892,13.5,1.918,18.9a25.69,25.69,0,0,0,2.878,2.317l-6.235,2s-17.46-16.652-24.051-32.023c-2.226-5.192,1.363-13,1.03-16.542-.193-2.048,4.874-1.385,9.409-.63C448.192,433.188,451.4,433.831,451.56,433.3Z" transform="translate(-352.314 -350.992)" fill="none" stroke="#1a1a1a" stroke-linecap="round" stroke-linejoin="round" stroke-width="0.5"/>
        <path id="Path_88119" data-name="Path 88119" d="M504.4,438.438l-2.046-.311-6.279-1.6s.683,4.766,1.056,6.133,4.176,25.506,4.176,25.506l3.526-.482Z" transform="translate(-403.182 -354.785)" fill="#ff395e" stroke="rgba(0,0,0,0)" stroke-width="0.5"/>
        <path id="Path_88120" data-name="Path 88120" d="M663.813,1106.749h-2.3a23.34,23.34,0,0,1-6.771-1.3,14.9,14.9,0,0,1-6.4-4.816l-.683,6.064h-2.3l-.316-12.1s3.355-2.623,12.222,2.913c4.083,2.306,7.166,7.519,7.166,7.519s1.491,1.467-.621,1.727" transform="translate(-524.254 -889.11)" fill="#25383f" stroke="rgba(0,0,0,0)" stroke-width="0.5"/>
        <path id="Path_88121" data-name="Path 88121" d="M663.813,1106.749h-2.3a23.34,23.34,0,0,1-6.771-1.3,14.9,14.9,0,0,1-6.4-4.816l-.683,6.064h-2.3l-.316-12.1s3.355-2.623,12.222,2.913c4.083,2.306,7.166,7.519,7.166,7.519s1.491,1.467-.621,1.727" transform="translate(-524.254 -889.11)" fill="none" stroke="#1a1a1a" stroke-linecap="round" stroke-linejoin="round" stroke-width="0.5"/>
        <path id="Path_88122" data-name="Path 88122" d="M649.778,968.283s2.282,23.719,7.489,26.575a9.34,9.34,0,0,0-4.658,1.493c-1.944-3.68-7.564-4.407-7.564-4.407V967.771c1.151,0,4.732.512,4.732.512" transform="translate(-524.254 -786.546)" fill="#fff" stroke="rgba(0,0,0,0)" stroke-width="0.5"/>
        <path id="Path_88123" data-name="Path 88123" d="M649.778,968.283s2.282,23.719,7.489,26.575a9.34,9.34,0,0,0-4.658,1.493c-1.944-3.68-7.564-4.407-7.564-4.407V967.771C646.2,967.771,649.778,968.283,649.778,968.283Z" transform="translate(-524.254 -786.546)" fill="none" stroke="#1a1a1a" stroke-linecap="round" stroke-linejoin="round" stroke-width="0.5"/>
        <path id="Path_88124" data-name="Path 88124" d="M487.842,727.108s-23.923,4.328-40.553,4.232a41.84,41.84,0,0,1-11.458-1.276c6.175-51.225-9.228-51.523-24.472-51.293a16.148,16.148,0,0,1-3.209-5.818c-3.716-13.333,19.708-21.042,19.708-21.042l25.686.511c26.457,2.688,34.3,74.685,34.3,74.685" transform="translate(-331.395 -529.835)" fill="#fff" stroke="rgba(0,0,0,0)" stroke-width="0.5"/>
        <path id="Path_88125" data-name="Path 88125" d="M487.842,727.108s-23.923,4.328-40.553,4.232a41.84,41.84,0,0,1-11.458-1.276c6.175-51.225-9.228-51.523-24.472-51.293a16.148,16.148,0,0,1-3.209-5.818c-3.716-13.333,19.708-21.042,19.708-21.042l25.686.511C480,655.11,487.842,727.108,487.842,727.108Z" transform="translate(-331.395 -529.835)" fill="none" stroke="#1a1a1a" stroke-linecap="round" stroke-linejoin="round" stroke-width="0.5"/>
        <path id="Path_88126" data-name="Path 88126" d="M437.565,818.143c6.175-51.225-9.228-51.523-24.471-51.293a16.144,16.144,0,0,1-3.209-5.818c6.036-1.068,22.356-2.7,30.146,8.868,7.662,11.379,8.835,38.693,8.992,49.518a41.841,41.841,0,0,1-11.458-1.276" transform="translate(-333.129 -617.913)" fill="#fff" stroke="rgba(0,0,0,0)" stroke-width="0.5"/>
        <path id="Path_88127" data-name="Path 88127" d="M437.565,818.143c6.175-51.225-9.228-51.523-24.471-51.293a16.144,16.144,0,0,1-3.209-5.818c6.036-1.068,22.356-2.7,30.146,8.868,7.662,11.379,8.835,38.693,8.992,49.518A41.841,41.841,0,0,1,437.565,818.143Z" transform="translate(-333.129 -617.913)" fill="none" stroke="#1a1a1a" stroke-linecap="round" stroke-linejoin="round" stroke-width="0.5"/>
        <path id="Path_88128" data-name="Path 88128" d="M346.477,558.17s2.878,17.334-14.61,29.263c5.032,10.933,16.943,19.887,23.731,20.853,13.3-20.915,11.569-30.655,11.569-30.655" transform="translate(-269.721 -453.647)" fill="#fff" stroke="rgba(0,0,0,0)" stroke-width="0.5"/>
        <path id="Path_88129" data-name="Path 88129" d="M346.477,558.17s2.878,17.334-14.61,29.263c5.032,10.933,16.943,19.887,23.731,20.853,13.3-20.915,11.569-30.655,11.569-30.655" transform="translate(-269.721 -453.647)" fill="none" stroke="#1a1a1a" stroke-linecap="round" stroke-linejoin="round" stroke-width="0.5"/>
        <path id="Path_88130" data-name="Path 88130" d="M494.672,353.869l-5.5,13.557s2.814,4.221,5.5,4.86a3.011,3.011,0,0,0,3.581-1.918,18.912,18.912,0,0,1,0-9.72c-1.663-5.116-3.581-6.779-3.581-6.779" transform="translate(-397.569 -287.604)" fill="#fff" stroke="rgba(0,0,0,0)" stroke-width="0.5"/>
        <path id="Path_88131" data-name="Path 88131" d="M494.672,353.869l-5.5,13.557s2.814,4.221,5.5,4.86a3.011,3.011,0,0,0,3.581-1.918,18.912,18.912,0,0,1,0-9.72C496.59,355.532,494.672,353.869,494.672,353.869Z" transform="translate(-397.569 -287.604)" fill="none" stroke="#1a1a1a" stroke-linecap="round" stroke-linejoin="round" stroke-width="0.5"/>
        <path id="Path_88132" data-name="Path 88132" d="M499.272,302.376s.378,18.638-6.656,18-8.529-8.438-8.529-8.438-4.476.128-4.476-3.2,4.093-2.046,4.093-2.046,1.07-8.429,11.139-5.06c3.321-2.357,3.818-.946,4.43.744" transform="translate(-389.797 -244.135)" fill="#fff" stroke="rgba(0,0,0,0)" stroke-width="0.5"/>
        <path id="Path_88133" data-name="Path 88133" d="M499.272,302.376s.378,18.638-6.656,18-8.529-8.438-8.529-8.438-4.476.128-4.476-3.2,4.093-2.046,4.093-2.046,1.07-8.429,11.139-5.06C498.162,299.274,498.659,300.685,499.272,302.376Z" transform="translate(-389.797 -244.135)" fill="none" stroke="#1a1a1a" stroke-linecap="round" stroke-linejoin="round" stroke-width="0.5"/>
        <path id="Path_88134" data-name="Path 88134" d="M541.41,439.056l-4.936-2.527s-.108,14,.209,20.6,0,12.022,0,12.022h2.056l3.541-19.6-3.168-4.536,3.789-.259s-.077-4.9-1.49-5.7" transform="translate(-435.998 -354.785)" fill="#fff" stroke="rgba(0,0,0,0)" stroke-width="0.5"/>
        <path id="Path_88135" data-name="Path 88135" d="M541.41,439.056l-4.936-2.527s-.108,14,.209,20.6,0,12.022,0,12.022h2.056l3.541-19.6-3.168-4.536,3.789-.259S542.822,439.854,541.41,439.056Z" transform="translate(-435.998 -354.785)" fill="none" stroke="#1a1a1a" stroke-linecap="round" stroke-linejoin="round" stroke-width="0.5"/>
        <line id="Line_940" data-name="Line 940" y2="34.627" transform="translate(165.692 0.281)" fill="none" stroke="#1a1a1a" stroke-linecap="round" stroke-linejoin="round" stroke-width="0.5"/>
        <path id="Path_88136" data-name="Path 88136" d="M819.825,191.063h24.34L832,182.95Z" transform="translate(-666.303 -148.691)" fill="#ff395e" stroke="rgba(0,0,0,0)" stroke-width="0.5"/>
        <line id="Line_941" data-name="Line 941" y2="34.627" transform="translate(201.391 0.281)" fill="none" stroke="#1a1a1a" stroke-linecap="round" stroke-linejoin="round" stroke-width="0.5"/>
        <path id="Path_88137" data-name="Path 88137" d="M1010.464,191.063h24.34l-12.17-8.113Z" transform="translate(-821.243 -148.691)" fill="#ff395e" stroke="rgba(0,0,0,0)" stroke-width="0.5"/>
        <line id="Line_942" data-name="Line 942" x2="300.507" transform="translate(0.187 217.638)" fill="#fff" stroke="rgba(0,0,0,0)" stroke-width="0.5"/>
        <line id="Line_943" data-name="Line 943" x2="300.507" transform="translate(0.187 217.638)" fill="none" stroke="#1a1a1a" stroke-linecap="round" stroke-linejoin="round" stroke-width="0.5"/>
        <rect id="Rectangle_13699" data-name="Rectangle 13699" width="3.976" height="87.892" transform="translate(207.847 129.309)" fill="#fff" stroke="rgba(0,0,0,0)" stroke-width="0.5"/>
        <rect id="Rectangle_13700" data-name="Rectangle 13700" width="3.976" height="87.892" transform="translate(207.847 129.309)" fill="none" stroke="#1a1a1a" stroke-linecap="round" stroke-linejoin="round" stroke-width="0.5"/>
        <rect id="Rectangle_13701" data-name="Rectangle 13701" width="3.976" height="87.892" transform="translate(113.919 129.309)" fill="#fff" stroke="rgba(0,0,0,0)" stroke-width="0.5"/>
        <rect id="Rectangle_13702" data-name="Rectangle 13702" width="3.976" height="87.892" transform="translate(113.919 129.309)" fill="none" stroke="#1a1a1a" stroke-linecap="round" stroke-linejoin="round" stroke-width="0.5"/>
        <path id="Path_88138" data-name="Path 88138" d="M656.692,658.974H538.89a3.532,3.532,0,0,1,0-7.063h117.8a3.532,3.532,0,0,1,0,7.063" transform="translate(-435.106 -529.834)" fill="#25383f" stroke="rgba(0,0,0,0)" stroke-width="0.5"/>
        <path id="Path_88139" data-name="Path 88139" d="M656.692,658.974H538.89a3.532,3.532,0,0,1,0-7.063h117.8a3.532,3.532,0,0,1,0,7.063Z" transform="translate(-435.106 -529.834)" fill="none" stroke="#1a1a1a" stroke-linecap="round" stroke-linejoin="round" stroke-width="0.5"/>
        <path id="Path_88140" data-name="Path 88140" d="M779.99,523.65H746.913l8.551-27.227h33.078Z" transform="translate(-607.045 -403.463)" fill="#ff395e" stroke="rgba(0,0,0,0)" stroke-width="0.5"/>
        <path id="Path_88141" data-name="Path 88141" d="M788.4,523.65H755.324l8.551-27.227h33.078Z" transform="translate(-613.881 -403.463)" fill="#fff" stroke="rgba(0,0,0,0)" stroke-width="0.5"/>
        <path id="Path_88142" data-name="Path 88142" d="M788.4,523.65H755.324l8.551-27.227h33.078Z" transform="translate(-613.881 -403.463)" fill="none" stroke="#1a1a1a" stroke-linecap="round" stroke-linejoin="round" stroke-width="0.5"/>
        <rect id="Rectangle_13703" data-name="Rectangle 13703" width="33.077" height="1.8" transform="translate(141.443 120.187)" fill="#fff" stroke="rgba(0,0,0,0)" stroke-width="0.5"/>
        <rect id="Rectangle_13704" data-name="Rectangle 13704" width="33.077" height="1.8" transform="translate(141.443 120.187)" fill="none" stroke="#1a1a1a" stroke-linecap="round" stroke-linejoin="round" stroke-width="0.5"/>
        <rect id="Rectangle_13705" data-name="Rectangle 13705" width="24.752" height="1.8" transform="translate(116.691 120.187)" fill="#fff" stroke="rgba(0,0,0,0)" stroke-width="0.5"/>
        <rect id="Rectangle_13706" data-name="Rectangle 13706" width="24.752" height="1.8" transform="translate(116.691 120.187)" fill="none" stroke="#1a1a1a" stroke-linecap="round" stroke-linejoin="round" stroke-width="0.5"/>
        <path id="Path_88143" data-name="Path 88143" d="M450.819,423.785l-9.036.009,6.3,8.043,2.74-.518-2.74,6.609s6.964,14,7.337,16.977l.87,12.311a123.7,123.7,0,0,0,1.943-17.365c.045-7.127-5.422-24.008-7.41-26.065" transform="translate(-359.054 -344.427)" fill="#fff" stroke="rgba(0,0,0,0)" stroke-width="0.5"/>
        <path id="Path_88144" data-name="Path 88144" d="M450.819,423.785l-9.036.009,6.3,8.043,2.74-.518-2.74,6.609s6.964,14,7.337,16.977l.87,12.311a123.7,123.7,0,0,0,1.943-17.365C458.274,442.722,452.807,425.841,450.819,423.785Z" transform="translate(-359.054 -344.427)" fill="none" stroke="#1a1a1a" stroke-linecap="round" stroke-linejoin="round" stroke-width="0.5"/>
        <path id="Path_88145" data-name="Path 88145" d="M619.741,591.046s7.535-2.195,10.476-2.029,9.732,4.638,8.366,7.04-7,3.106-10.022,1.16c-3.272-2.609-3.645-2.775-4.39-2.775s-5.214,1.242-5.214,1.242Z" transform="translate(-503.049 -478.71)" fill="#fff" stroke="rgba(0,0,0,0)" stroke-width="0.5"/>
        <path id="Path_88146" data-name="Path 88146" d="M619.741,591.046s7.535-2.195,10.476-2.029,9.732,4.638,8.366,7.04-7,3.106-10.022,1.16c-3.272-2.609-3.645-2.775-4.39-2.775s-5.214,1.242-5.214,1.242Z" transform="translate(-503.049 -478.71)" fill="none" stroke="#1a1a1a" stroke-linecap="round" stroke-linejoin="round" stroke-width="0.5"/>
        <path id="Path_88147" data-name="Path 88147" d="M388.437,432.567s-13.466.371-13.664,8.905c-.219,9.443,10.645,32.069,19.629,34.17S423.04,468.5,423.04,468.5l1.159-6.484-25.773,3.521L388.391,446.42" transform="translate(-304.59 -351.565)" fill="#fff" stroke="rgba(0,0,0,0)" stroke-width="0.5"/>
        <path id="Path_88148" data-name="Path 88148" d="M388.437,432.567s-13.466.371-13.664,8.905c-.219,9.443,10.645,32.069,19.629,34.17S423.04,468.5,423.04,468.5l1.159-6.484-25.773,3.521L388.391,446.42" transform="translate(-304.59 -351.565)" fill="none" stroke="#1a1a1a" stroke-linecap="round" stroke-linejoin="round" stroke-width="0.5"/>
        <rect id="Rectangle_13707" data-name="Rectangle 13707" width="8.449" height="10.566" transform="translate(197.269 111.422)" fill="#fff" stroke="rgba(0,0,0,0)" stroke-width="0.5"/>
        <rect id="Rectangle_13708" data-name="Rectangle 13708" width="8.449" height="10.566" transform="translate(197.269 111.422)" fill="none" stroke="#1a1a1a" stroke-linecap="round" stroke-linejoin="round" stroke-width="0.5"/>
        <path id="Path_88149" data-name="Path 88149" d="M1048.331,564.417l2.485,5.3h1.491l-3.065-5.8s-1.242-.21-.911.5" transform="translate(-851.973 -458.296)" fill="#fff" stroke="rgba(0,0,0,0)" stroke-width="0.5"/>
        <path id="Path_88150" data-name="Path 88150" d="M1048.331,564.417l2.485,5.3h1.491l-3.065-5.8S1048,563.71,1048.331,564.417Z" transform="translate(-851.973 -458.296)" fill="none" stroke="#1a1a1a" stroke-linecap="round" stroke-linejoin="round" stroke-width="0.5"/>
        <path id="Path_88151" data-name="Path 88151" d="M1080.422,554.207l3.4-9.4h3.189L1083.714,554Z" transform="translate(-878.1 -442.785)" fill="#fff" stroke="rgba(0,0,0,0)" stroke-width="0.5"/>
        <path id="Path_88152" data-name="Path 88152" d="M1080.422,554.207l3.4-9.4h3.189L1083.714,554Z" transform="translate(-878.1 -442.785)" fill="none" stroke="#1a1a1a" stroke-linecap="round" stroke-linejoin="round" stroke-width="0.5"/>
        <path id="Path_88153" data-name="Path 88153" d="M1069.806,566.493l.269,5.135h.58l-.207-5.26Z" transform="translate(-869.473 -460.311)" fill="#fff" stroke="rgba(0,0,0,0)" stroke-width="0.5"/>
        <path id="Path_88154" data-name="Path 88154" d="M1069.806,566.493l.269,5.135h.58l-.207-5.26Z" transform="translate(-869.473 -460.311)" fill="none" stroke="#1a1a1a" stroke-linecap="round" stroke-linejoin="round" stroke-width="0.5"/>
      </g>
    </g>
  </g>
</svg>
