<svg xmlns="http://www.w3.org/2000/svg" xmlns:xlink="http://www.w3.org/1999/xlink" width="326" height="326" viewBox="0 0 326 326">
  <defs>
    <filter id="Ellipse_2488" x="0" y="0" width="326" height="326" filterUnits="userSpaceOnUse">
      <feOffset dy="3" input="SourceAlpha"/>
      <feGaussianBlur stdDeviation="3" result="blur"/>
      <feFlood flood-opacity="0.161"/>
      <feComposite operator="in" in2="blur"/>
      <feComposite in="SourceGraphic"/>
    </filter>
    <clipPath id="clip-path">
      <rect id="Rectangle_13684" data-name="Rectangle 13684" width="235.989" height="160.024" transform="translate(0 0)" fill="none" stroke="rgba(0,0,0,0)" stroke-width="0.5"/>
    </clipPath>
  </defs>
  <g id="Group_31941" data-name="Group 31941" transform="translate(-843 -257)">
    <g transform="matrix(1, 0, 0, 1, 843, 257)" filter="url(#Ellipse_2488)">
      <circle id="Ellipse_2488-2" data-name="Ellipse 2488" cx="154" cy="154" r="154" transform="translate(9 6)" fill="#fff"/>
    </g>
    <g id="Group_31940" data-name="Group 31940" transform="translate(888.508 337.367)">
      <g id="Group_31939" data-name="Group 31939" transform="translate(0 0)" clip-path="url(#clip-path)">
        <path id="Path_88035" data-name="Path 88035" d="M1089.024,865.429c11.044-4.937,13.808-16.727,7.76-23.751-5.386-6.256-17.235-8.118-26.267-2.8-2.114-5.12-5.7-6.553-6.567-6.867-6.343-2.286-16.407,1.654-22.119,11.079-9-3.152-19-1.111-24.446,4.689-6.1,6.5-2.726,16.505-2.44,17.367C1039.919,865.86,1064.05,864.718,1089.024,865.429Z" transform="translate(-869.205 -712.831)" fill="none" stroke="#1a1a1a" stroke-width="0.5"/>
        <path id="Path_88036" data-name="Path 88036" d="M207.694,839.145v29.682s6.692-.227,9.751,0V838.705c-6.187.4-9.751.44-9.751.44" transform="translate(-178.079 -719.112)" fill="#fff" stroke="rgba(0,0,0,0)" stroke-width="0.5"/>
        <path id="Path_88037" data-name="Path 88037" d="M207.694,839.145v29.682s6.692-.227,9.751,0V838.705C211.257,839.109,207.694,839.145,207.694,839.145Z" transform="translate(-178.079 -719.112)" fill="none" stroke="#1a1a1a" stroke-linecap="round" stroke-linejoin="round" stroke-width="0.5"/>
        <path id="Path_88038" data-name="Path 88038" d="M449.916,817.737q-1.823.268-3.582.508v32.727q1.745-.09,3.582-.211Z" transform="translate(-382.69 -701.134)" fill="#fff" stroke="rgba(0,0,0,0)" stroke-width="0.5"/>
        <path id="Path_88039" data-name="Path 88039" d="M449.916,817.737q-1.823.268-3.582.508v32.727q1.745-.09,3.582-.211Z" transform="translate(-382.69 -701.134)" fill="none" stroke="#1a1a1a" stroke-linecap="round" stroke-linejoin="round" stroke-width="0.5"/>
        <path id="Path_88040" data-name="Path 88040" d="M653.86,772.754q-4.034.995-7.96,1.859v34.753q3.876-.618,7.96-1.382Z" transform="translate(-553.8 -662.565)" fill="#fff" stroke="rgba(0,0,0,0)" stroke-width="0.5"/>
        <path id="Path_88041" data-name="Path 88041" d="M653.86,772.754q-4.034.995-7.96,1.859v34.753q3.876-.618,7.96-1.382Z" transform="translate(-553.8 -662.565)" fill="none" stroke="#1a1a1a" stroke-linecap="round" stroke-linejoin="round" stroke-width="0.5"/>
        <path id="Path_88042" data-name="Path 88042" d="M973.076,193.428l-36.018,17.378,22.885,2.2c-21.678,27.977-53.921,45.215-85.17,55.837v36.718q3.9-1.07,7.925-2.282c61.723-18.633,84.849-87.435,84.849-87.435l15.977,15.843Z" transform="translate(-750.037 -165.846)" fill="#fff" stroke="rgba(0,0,0,0)" stroke-width="0.5"/>
        <path id="Path_88043" data-name="Path 88043" d="M973.076,193.428l-36.018,17.378,22.885,2.2c-21.678,27.977-53.921,45.215-85.17,55.837v36.718q3.9-1.07,7.925-2.282c61.723-18.633,84.849-87.435,84.849-87.435l15.977,15.843Z" transform="translate(-750.037 -165.846)" fill="none" stroke="#1a1a1a" stroke-linecap="round" stroke-linejoin="round" stroke-width="0.5"/>
        <rect id="Rectangle_13679" data-name="Rectangle 13679" width="20.913" height="79.555" transform="translate(39.68 80.255)" fill="none" stroke="#1a1a1a" stroke-linecap="round" stroke-linejoin="round" stroke-width="0.5"/>
        <path id="Path_88044" data-name="Path 88044" d="M624.784,284.967,627.7,290.6V404.143h-2.911Z" transform="translate(-535.694 -244.332)" fill="#ff395e" stroke="rgba(0,0,0,0)" stroke-width="0.5"/>
        <path id="Path_88045" data-name="Path 88045" d="M854.122,404.883l2.911,5.633V506.96h-2.911Z" transform="translate(-732.331 -347.149)" fill="#ff395e" stroke="rgba(0,0,0,0)" stroke-width="0.5"/>
        <path id="Path_88046" data-name="Path 88046" d="M424.94,562.828l2.911,5.633v73.922H424.94Z" transform="translate(-364.347 -482.573)" fill="#ff395e" stroke="rgba(0,0,0,0)" stroke-width="0.5"/>
        <rect id="Rectangle_13680" data-name="Rectangle 13680" width="21.909" height="119.176" transform="translate(67.18 40.634)" fill="none" stroke="#1a1a1a" stroke-linecap="round" stroke-linejoin="round" stroke-width="0.5"/>
        <rect id="Rectangle_13681" data-name="Rectangle 13681" width="21.909" height="102.077" transform="translate(99.882 57.734)" fill="none" stroke="#1a1a1a" stroke-linecap="round" stroke-linejoin="round" stroke-width="0.5"/>
        <path id="Path_88047" data-name="Path 88047" d="M535.269,19.9a6.687,6.687,0,0,0-7.5-5.763l-62.924,8.226a6.671,6.671,0,0,0-1.26.29,32.832,32.832,0,1,0,2.1,13.028,6.7,6.7,0,0,0,.893-.057L529.505,27.4a6.687,6.687,0,0,0,5.764-7.5M434.022,59.493q-.557.025-1.118.025a25.206,25.206,0,0,1,0-50.412q.561,0,1.118.025a25.206,25.206,0,0,1,0,50.362" transform="translate(-343.04 -1.283)" fill="#fff" stroke="rgba(0,0,0,0)" stroke-width="0.5"/>
        <path id="Path_88048" data-name="Path 88048" d="M535.269,19.9a6.687,6.687,0,0,0-7.5-5.763l-62.924,8.226a6.671,6.671,0,0,0-1.26.29,32.832,32.832,0,1,0,2.1,13.028,6.7,6.7,0,0,0,.893-.057L529.505,27.4A6.687,6.687,0,0,0,535.269,19.9ZM434.022,59.493q-.557.025-1.118.025a25.206,25.206,0,0,1,0-50.412q.561,0,1.118.025a25.206,25.206,0,0,1,0,50.362Z" transform="translate(-343.04 -1.283)" fill="none" stroke="#1a1a1a" stroke-linecap="round" stroke-linejoin="round" stroke-width="0.5"/>
        <path id="Path_88049" data-name="Path 88049" d="M479.77,105.241q-.557.025-1.118.025a25.206,25.206,0,0,1,0-50.412q.561,0,1.118.025a25.206,25.206,0,0,0,0,50.362" transform="translate(-388.788 -47.032)" fill="#ff395e" stroke="rgba(0,0,0,0)" stroke-width="0.5"/>
        <path id="Path_88050" data-name="Path 88050" d="M1158.3,1061.792v8.407s13.831-.813,16-.723a1.5,1.5,0,0,0,1.175-2.689,37.8,37.8,0,0,1-9.9-2.17l-2.407-2.2Z" transform="translate(-993.137 -910.389)" fill="#25383f" stroke="rgba(0,0,0,0)" stroke-width="0.5"/>
        <path id="Path_88051" data-name="Path 88051" d="M1158.3,1061.792v8.407s13.831-.813,16-.723a1.5,1.5,0,0,0,1.175-2.689,37.8,37.8,0,0,1-9.9-2.17l-2.407-2.2Z" transform="translate(-993.137 -910.389)" fill="none" stroke="#1a1a1a" stroke-linecap="round" stroke-linejoin="round" stroke-width="0.5"/>
        <path id="Path_88052" data-name="Path 88052" d="M1145.3,936.9v19.526h8.905v-18.8Z" transform="translate(-981.987 -803.307)" fill="#fff" stroke="rgba(0,0,0,0)" stroke-width="0.5"/>
        <path id="Path_88053" data-name="Path 88053" d="M1145.3,936.9v19.526h8.905v-18.8Z" transform="translate(-981.987 -803.307)" fill="none" stroke="#1a1a1a" stroke-linecap="round" stroke-linejoin="round" stroke-width="0.5"/>
        <path id="Path_88054" data-name="Path 88054" d="M993.9,1061.792v8.407s-13.831-.813-16-.723a1.5,1.5,0,0,1-1.175-2.689,37.8,37.8,0,0,0,9.9-2.17l2.407-2.2Z" transform="translate(-836.906 -910.389)" fill="#25383f" stroke="rgba(0,0,0,0)" stroke-width="0.5"/>
        <path id="Path_88055" data-name="Path 88055" d="M993.9,1061.792v8.407s-13.831-.813-16-.723a1.5,1.5,0,0,1-1.175-2.689,37.8,37.8,0,0,0,9.9-2.17l2.407-2.2Z" transform="translate(-836.906 -910.389)" fill="none" stroke="#1a1a1a" stroke-linecap="round" stroke-linejoin="round" stroke-width="0.5"/>
        <path id="Path_88056" data-name="Path 88056" d="M1060.456,936.9v19.526h-8.905v-18.8Z" transform="translate(-901.608 -803.307)" fill="#fff" stroke="rgba(0,0,0,0)" stroke-width="0.5"/>
        <path id="Path_88057" data-name="Path 88057" d="M1060.456,936.9v19.526h-8.905v-18.8Z" transform="translate(-901.608 -803.307)" fill="none" stroke="#1a1a1a" stroke-linecap="round" stroke-linejoin="round" stroke-width="0.5"/>
        <path id="Path_88058" data-name="Path 88058" d="M934.539,390.675s-8.391,6.988-1.416,10.545l1.019.54,6.66-11.085-4.23-2.78Z" transform="translate(-797.691 -332.584)" fill="#fff" stroke="rgba(0,0,0,0)" stroke-width="0.5"/>
        <path id="Path_88059" data-name="Path 88059" d="M934.539,390.675s-8.391,6.988-1.416,10.545l1.019.54,6.66-11.085-4.23-2.78Z" transform="translate(-797.691 -332.584)" fill="none" stroke="#1a1a1a" stroke-linecap="round" stroke-linejoin="round" stroke-width="0.5"/>
        <path id="Path_88060" data-name="Path 88060" d="M998.771,364.6s12.746,8.338,10.627,46.115C1007.6,442.682,1004.67,457,1004.67,457l-33.223.995s-9.237-67.592-8.7-74.308c.708-13.344,6.124-13.19,6.124-13.19Z" transform="translate(-825.448 -312.608)" fill="#fff" stroke="rgba(0,0,0,0)" stroke-width="0.5"/>
        <path id="Path_88061" data-name="Path 88061" d="M998.771,364.6s12.746,8.338,10.627,46.115C1007.6,442.682,1004.67,457,1004.67,457l-33.223.995s-9.237-67.592-8.7-74.308c.708-13.344,6.124-13.19,6.124-13.19Z" transform="translate(-825.448 -312.608)" fill="none" stroke="#1a1a1a" stroke-linecap="round" stroke-linejoin="round" stroke-width="0.5"/>
        <path id="Path_88062" data-name="Path 88062" d="M1023.349,382.071s14.914,9.283,33.724-4.148l-2.283-2.154Z" transform="translate(-877.428 -322.187)" fill="#25383f" stroke="rgba(0,0,0,0)" stroke-width="0.5"/>
        <path id="Path_88063" data-name="Path 88063" d="M1023.349,382.071s14.914,9.283,33.724-4.148l-2.283-2.154Z" transform="translate(-877.428 -322.187)" fill="none" stroke="#1a1a1a" stroke-linecap="round" stroke-linejoin="round" stroke-width="0.5"/>
        <path id="Path_88064" data-name="Path 88064" d="M854.376,232,871.1,215s5.062-1.356,5.785,3.345l-13.379,14.1,9.311,7.141-4.036,3.8s-16.914-8.84-14.4-11.39" transform="translate(-732.331 -184.187)" fill="#ff395e" stroke="rgba(0,0,0,0)" stroke-width="0.5"/>
        <path id="Path_88065" data-name="Path 88065" d="M1149.937,94.766s-3.167.722-3.642-2.094-1.9-3.176-3.167-2.346c-.594-.469-1.267-2.159,2.454-2.83s5.978-.31,6.731.629,1.109,5.414,1.109,5.414Z" transform="translate(-979.727 -74.724)" fill="#fff" stroke="rgba(0,0,0,0)" stroke-width="0.5"/>
        <path id="Path_88066" data-name="Path 88066" d="M1149.937,94.766s-3.167.722-3.642-2.094-1.9-3.176-3.167-2.346c-.594-.469-1.267-2.159,2.454-2.83s5.978-.31,6.731.629,1.109,5.414,1.109,5.414Z" transform="translate(-979.727 -74.724)" fill="none" stroke="#1a1a1a" stroke-linecap="round" stroke-linejoin="round" stroke-width="0.5"/>
        <path id="Path_88067" data-name="Path 88067" d="M1080.958,133.352l17.266-.429-2.8-7.209a2.122,2.122,0,0,1,1.989-2.8,3.211,3.211,0,0,1,3.571,2.26l3.39,9.808s.859,2.305-3.616,2.848-16.181.542-16.181.542Z" transform="translate(-926.822 -105.341)" fill="#ff395e" stroke="rgba(0,0,0,0)" stroke-width="0.5"/>
        <path id="Path_88068" data-name="Path 88068" d="M980.159,194.649l15.458-1.22s20.95,18.305,24,26.645c-22.373,15.458-39.458,4.068-39.458,4.068Z" transform="translate(-840.396 -165.847)" fill="#ff395e" stroke="rgba(0,0,0,0)" stroke-width="0.5"/>
        <path id="Path_88069" data-name="Path 88069" d="M898.749,135.579s-2.983,14.78,3.119,13.424,7.865-5.424,7.865-5.424Z" transform="translate(-769.969 -116.246)" fill="#fff" stroke="rgba(0,0,0,0)" stroke-width="0.5"/>
        <path id="Path_88070" data-name="Path 88070" d="M898.749,135.579s-2.983,14.78,3.119,13.424,7.865-5.424,7.865-5.424Z" transform="translate(-769.969 -116.246)" fill="none" stroke="#1a1a1a" stroke-linecap="round" stroke-linejoin="round" stroke-width="0.5"/>
        <path id="Path_88071" data-name="Path 88071" d="M895.208,97.493s4.882-7.5,11.481-5.6,17.619,13.855,21.149,12.216c-4.335,12.553-11.525,18.248-21.535,7.581s-11.094-14.192-11.094-14.192" transform="translate(-767.559 -78.521)" fill="#25383f" stroke="rgba(0,0,0,0)" stroke-width="0.5"/>
        <path id="Path_88072" data-name="Path 88072" d="M895.208,97.493s4.882-7.5,11.481-5.6,17.619,13.855,21.149,12.216c-4.335,12.553-11.525,18.248-21.535,7.581S895.208,97.493,895.208,97.493Z" transform="translate(-767.559 -78.521)" fill="none" stroke="#1a1a1a" stroke-linecap="round" stroke-linejoin="round" stroke-width="0.5"/>
        <path id="Path_88073" data-name="Path 88073" d="M519.707,141.918c-3.287-5-10.217,4.457-10.731,8.169-.809,2.8-.581,13.108,4.521,11.449a2.792,2.792,0,0,0,1.59-3.614,10.806,10.806,0,0,1-.73-6.319,9.549,9.549,0,0,1,4.268-5.9h0a2.791,2.791,0,0,0,1.083-3.78" transform="translate(-436.097 -120.459)" fill="#fff" stroke="rgba(0,0,0,0)" stroke-width="0.5"/>
        <path id="Path_88074" data-name="Path 88074" d="M519.707,141.918c-3.287-5-10.217,4.457-10.731,8.169-.809,2.8-.581,13.108,4.521,11.449a2.792,2.792,0,0,0,1.59-3.614,10.806,10.806,0,0,1-.73-6.319,9.549,9.549,0,0,1,4.268-5.9h0A2.791,2.791,0,0,0,519.707,141.918Z" transform="translate(-436.097 -120.459)" fill="none" stroke="#1a1a1a" stroke-linecap="round" stroke-linejoin="round" stroke-width="0.5"/>
        <line id="Line_896" data-name="Line 896" x2="111.04" transform="translate(124.735 152.598)" fill="#fff" stroke="rgba(0,0,0,0)" stroke-width="0.5"/>
        <line id="Line_897" data-name="Line 897" x2="111.04" transform="translate(124.735 152.598)" fill="none" stroke="#1a1a1a" stroke-linecap="round" stroke-linejoin="round" stroke-width="0.5"/>
        <path id="Path_88075" data-name="Path 88075" d="M318.761,397.531a2.174,2.174,0,0,0-.673-1.618,6.025,6.025,0,0,0-2.271-1.19,7.278,7.278,0,0,1-3.242-1.77,3.9,3.9,0,0,1-1.018-2.772,4.014,4.014,0,0,1,1-2.809,4.238,4.238,0,0,1,2.741-1.3V383.78h1.556v2.3a4.025,4.025,0,0,1,2.73,1.472,5.291,5.291,0,0,1,.976,3.372h-1.921a3.636,3.636,0,0,0-.7-2.346,2.3,2.3,0,0,0-1.89-.87,2.608,2.608,0,0,0-1.9.643,2.393,2.393,0,0,0-.658,1.794,2.186,2.186,0,0,0,.694,1.7,6.391,6.391,0,0,0,2.286,1.151,9.643,9.643,0,0,1,2.485,1.139,4,4,0,0,1,1.315,1.446,4.179,4.179,0,0,1,.423,1.931,3.872,3.872,0,0,1-1.06,2.84,4.7,4.7,0,0,1-2.97,1.274v1.994h-1.545v-1.994a4.5,4.5,0,0,1-3.043-1.383,4.667,4.667,0,0,1-1.1-3.273H312.9a3.072,3.072,0,0,0,.762,2.234,2.878,2.878,0,0,0,2.161.783,3.242,3.242,0,0,0,2.151-.658,2.221,2.221,0,0,0,.783-1.8" transform="translate(-266.63 -329.056)" fill="#fff" stroke="rgba(0,0,0,0)" stroke-width="0.5"/>
        <path id="Path_88076" data-name="Path 88076" d="M318.761,397.531a2.174,2.174,0,0,0-.673-1.618,6.025,6.025,0,0,0-2.271-1.19,7.278,7.278,0,0,1-3.242-1.77,3.9,3.9,0,0,1-1.018-2.772,4.014,4.014,0,0,1,1-2.809,4.238,4.238,0,0,1,2.741-1.3V383.78h1.556v2.3a4.025,4.025,0,0,1,2.73,1.472,5.291,5.291,0,0,1,.976,3.372h-1.921a3.636,3.636,0,0,0-.7-2.346,2.3,2.3,0,0,0-1.89-.87,2.608,2.608,0,0,0-1.9.643,2.393,2.393,0,0,0-.658,1.794,2.186,2.186,0,0,0,.694,1.7,6.391,6.391,0,0,0,2.286,1.151,9.643,9.643,0,0,1,2.485,1.139,4,4,0,0,1,1.315,1.446,4.179,4.179,0,0,1,.423,1.931,3.872,3.872,0,0,1-1.06,2.84,4.7,4.7,0,0,1-2.97,1.274v1.994h-1.545v-1.994a4.5,4.5,0,0,1-3.043-1.383,4.667,4.667,0,0,1-1.1-3.273H312.9a3.072,3.072,0,0,0,.762,2.234,2.878,2.878,0,0,0,2.161.783,3.242,3.242,0,0,0,2.151-.658A2.221,2.221,0,0,0,318.761,397.531Z" transform="translate(-266.63 -329.056)" fill="none" stroke="#1a1a1a" stroke-linecap="round" stroke-linejoin="round" stroke-width="0.5"/>
        <line id="Line_898" data-name="Line 898" x2="12.442" transform="translate(42.503 90.151)" fill="#fff" stroke="rgba(0,0,0,0)" stroke-width="0.5"/>
        <line id="Line_899" data-name="Line 899" x2="12.442" transform="translate(42.503 90.151)" fill="none" stroke="#1a1a1a" stroke-linecap="round" stroke-linejoin="round" stroke-width="0.5"/>
        <line id="Line_900" data-name="Line 900" x2="12.442" transform="translate(42.503 101.972)" fill="#fff" stroke="rgba(0,0,0,0)" stroke-width="0.5"/>
        <line id="Line_901" data-name="Line 901" x2="12.442" transform="translate(42.503 101.972)" fill="none" stroke="#1a1a1a" stroke-linecap="round" stroke-linejoin="round" stroke-width="0.5"/>
        <line id="Line_902" data-name="Line 902" x2="12.442" transform="translate(42.503 113.793)" fill="#fff" stroke="rgba(0,0,0,0)" stroke-width="0.5"/>
        <line id="Line_903" data-name="Line 903" x2="12.442" transform="translate(42.503 113.793)" fill="none" stroke="#1a1a1a" stroke-linecap="round" stroke-linejoin="round" stroke-width="0.5"/>
        <line id="Line_904" data-name="Line 904" x2="12.442" transform="translate(42.503 125.614)" fill="#fff" stroke="rgba(0,0,0,0)" stroke-width="0.5"/>
        <line id="Line_905" data-name="Line 905" x2="12.442" transform="translate(42.503 125.614)" fill="none" stroke="#1a1a1a" stroke-linecap="round" stroke-linejoin="round" stroke-width="0.5"/>
        <line id="Line_906" data-name="Line 906" x2="12.442" transform="translate(42.503 137.435)" fill="#fff" stroke="rgba(0,0,0,0)" stroke-width="0.5"/>
        <line id="Line_907" data-name="Line 907" x2="12.442" transform="translate(42.503 137.435)" fill="none" stroke="#1a1a1a" stroke-linecap="round" stroke-linejoin="round" stroke-width="0.5"/>
        <line id="Line_908" data-name="Line 908" x2="12.442" transform="translate(42.503 149.255)" fill="#fff" stroke="rgba(0,0,0,0)" stroke-width="0.5"/>
        <line id="Line_909" data-name="Line 909" x2="12.442" transform="translate(42.503 149.255)" fill="none" stroke="#1a1a1a" stroke-linecap="round" stroke-linejoin="round" stroke-width="0.5"/>
        <line id="Line_910" data-name="Line 910" x2="12.442" transform="translate(71.193 90.151)" fill="#fff" stroke="rgba(0,0,0,0)" stroke-width="0.5"/>
        <line id="Line_911" data-name="Line 911" x2="12.442" transform="translate(71.193 90.151)" fill="none" stroke="#1a1a1a" stroke-linecap="round" stroke-linejoin="round" stroke-width="0.5"/>
        <line id="Line_912" data-name="Line 912" x2="12.442" transform="translate(71.193 101.972)" fill="#fff" stroke="rgba(0,0,0,0)" stroke-width="0.5"/>
        <line id="Line_913" data-name="Line 913" x2="12.442" transform="translate(71.193 101.972)" fill="none" stroke="#1a1a1a" stroke-linecap="round" stroke-linejoin="round" stroke-width="0.5"/>
        <line id="Line_914" data-name="Line 914" x2="12.442" transform="translate(71.193 113.793)" fill="#fff" stroke="rgba(0,0,0,0)" stroke-width="0.5"/>
        <line id="Line_915" data-name="Line 915" x2="12.442" transform="translate(71.193 113.793)" fill="none" stroke="#1a1a1a" stroke-linecap="round" stroke-linejoin="round" stroke-width="0.5"/>
        <line id="Line_916" data-name="Line 916" x2="12.442" transform="translate(71.193 125.614)" fill="#fff" stroke="rgba(0,0,0,0)" stroke-width="0.5"/>
        <line id="Line_917" data-name="Line 917" x2="12.442" transform="translate(71.193 125.614)" fill="none" stroke="#1a1a1a" stroke-linecap="round" stroke-linejoin="round" stroke-width="0.5"/>
        <line id="Line_918" data-name="Line 918" x2="12.442" transform="translate(71.193 137.435)" fill="#fff" stroke="rgba(0,0,0,0)" stroke-width="0.5"/>
        <line id="Line_919" data-name="Line 919" x2="12.442" transform="translate(71.193 137.435)" fill="none" stroke="#1a1a1a" stroke-linecap="round" stroke-linejoin="round" stroke-width="0.5"/>
        <line id="Line_920" data-name="Line 920" x2="12.442" transform="translate(71.193 149.255)" fill="#fff" stroke="rgba(0,0,0,0)" stroke-width="0.5"/>
        <line id="Line_921" data-name="Line 921" x2="12.442" transform="translate(71.193 149.255)" fill="none" stroke="#1a1a1a" stroke-linecap="round" stroke-linejoin="round" stroke-width="0.5"/>
        <line id="Line_922" data-name="Line 922" x2="12.442" transform="translate(103.223 90.151)" fill="#fff" stroke="rgba(0,0,0,0)" stroke-width="0.5"/>
        <line id="Line_923" data-name="Line 923" x2="12.442" transform="translate(103.223 90.151)" fill="none" stroke="#1a1a1a" stroke-linecap="round" stroke-linejoin="round" stroke-width="0.5"/>
        <line id="Line_924" data-name="Line 924" x2="12.442" transform="translate(103.223 101.972)" fill="#fff" stroke="rgba(0,0,0,0)" stroke-width="0.5"/>
        <line id="Line_925" data-name="Line 925" x2="12.442" transform="translate(103.223 101.972)" fill="none" stroke="#1a1a1a" stroke-linecap="round" stroke-linejoin="round" stroke-width="0.5"/>
        <line id="Line_926" data-name="Line 926" x2="12.442" transform="translate(103.223 113.793)" fill="#fff" stroke="rgba(0,0,0,0)" stroke-width="0.5"/>
        <line id="Line_927" data-name="Line 927" x2="12.442" transform="translate(103.223 113.793)" fill="none" stroke="#1a1a1a" stroke-linecap="round" stroke-linejoin="round" stroke-width="0.5"/>
        <line id="Line_928" data-name="Line 928" x2="12.442" transform="translate(103.223 125.614)" fill="#fff" stroke="rgba(0,0,0,0)" stroke-width="0.5"/>
        <line id="Line_929" data-name="Line 929" x2="12.442" transform="translate(103.223 125.614)" fill="none" stroke="#1a1a1a" stroke-linecap="round" stroke-linejoin="round" stroke-width="0.5"/>
        <line id="Line_930" data-name="Line 930" x2="12.442" transform="translate(103.223 137.435)" fill="#fff" stroke="rgba(0,0,0,0)" stroke-width="0.5"/>
        <line id="Line_931" data-name="Line 931" x2="12.442" transform="translate(103.223 137.435)" fill="none" stroke="#1a1a1a" stroke-linecap="round" stroke-linejoin="round" stroke-width="0.5"/>
        <line id="Line_932" data-name="Line 932" x2="12.442" transform="translate(103.223 149.255)" fill="#fff" stroke="rgba(0,0,0,0)" stroke-width="0.5"/>
        <line id="Line_933" data-name="Line 933" x2="12.442" transform="translate(103.223 149.255)" fill="none" stroke="#1a1a1a" stroke-linecap="round" stroke-linejoin="round" stroke-width="0.5"/>
        <line id="Line_934" data-name="Line 934" x1="7.214" transform="translate(92.1 152.598)" fill="#fff" stroke="rgba(0,0,0,0)" stroke-width="0.5"/>
        <line id="Line_935" data-name="Line 935" x1="7.214" transform="translate(92.1 152.598)" fill="none" stroke="#1a1a1a" stroke-linecap="round" stroke-linejoin="round" stroke-width="0.5"/>
        <line id="Line_936" data-name="Line 936" x1="3.676" transform="translate(63.504 152.598)" fill="#fff" stroke="rgba(0,0,0,0)" stroke-width="0.5"/>
        <line id="Line_937" data-name="Line 937" x1="3.676" transform="translate(63.504 152.598)" fill="none" stroke="#1a1a1a" stroke-linecap="round" stroke-linejoin="round" stroke-width="0.5"/>
        <line id="Line_938" data-name="Line 938" x1="39.152" transform="translate(0.214 152.598)" fill="#fff" stroke="rgba(0,0,0,0)" stroke-width="0.5"/>
        <line id="Line_939" data-name="Line 939" x1="39.152" transform="translate(0.214 152.598)" fill="none" stroke="#1a1a1a" stroke-linecap="round" stroke-linejoin="round" stroke-width="0.5"/>
        <rect id="Rectangle_13682" data-name="Rectangle 13682" width="10.931" height="12.5" transform="translate(10.654 147.241)" fill="#25383f" stroke="rgba(0,0,0,0)" stroke-width="0.5"/>
        <rect id="Rectangle_13683" data-name="Rectangle 13683" width="10.931" height="12.5" transform="translate(10.654 147.241)" fill="none" stroke="#1a1a1a" stroke-linecap="round" stroke-linejoin="round" stroke-width="0.5"/>
        <path id="Path_88077" data-name="Path 88077" d="M94.724,171.478A11.848,11.848,0,1,1,86.4,160.157l-3.535,11.321L93.539,166.3a11.817,11.817,0,0,1,1.185,5.174" transform="translate(-60.885 -136.859)" fill="#fff" stroke="rgba(0,0,0,0)" stroke-width="0.5"/>
        <path id="Path_88078" data-name="Path 88078" d="M94.724,171.478A11.848,11.848,0,1,1,86.4,160.157l-3.535,11.321L93.539,166.3A11.817,11.817,0,0,1,94.724,171.478Z" transform="translate(-60.885 -136.859)" fill="none" stroke="#1a1a1a" stroke-linecap="round" stroke-linejoin="round" stroke-width="0.5"/>
        <path id="Path_88079" data-name="Path 88079" d="M176.934,155.084l-10.672,5.174,3.535-11.321a11.891,11.891,0,0,1,7.137,6.147" transform="translate(-142.554 -127.699)" fill="#ff395e" stroke="rgba(0,0,0,0)" stroke-width="0.5"/>
        <path id="Path_88080" data-name="Path 88080" d="M1480.008,688v12.085h-20.031V688h2l8.019,6.042,7.939-6.042Z" transform="translate(-1251.796 -589.896)" fill="#ff395e" stroke="rgba(0,0,0,0)" stroke-width="0.5"/>
        <path id="Path_88081" data-name="Path 88081" d="M1482.654,671.96l-1.828,1.392-7.939,6.042-8.018-6.042-1.516-1.142Z" transform="translate(-1254.69 -576.144)" fill="#d1e0e6" stroke="rgba(0,0,0,0)" stroke-width="0.5"/>
        <path id="Path_88082" data-name="Path 88082" d="M109.458,735.385a8.169,8.169,0,1,0-8.169,8.169,8.169,8.169,0,0,0,8.169-8.169" transform="translate(-79.843 -623.521)" fill="#ff395e" stroke="rgba(0,0,0,0)" stroke-width="0.5"/>
      </g>
    </g>
  </g>
</svg>
