<svg width="50" height="50" viewBox="0 0 50 50" fill="none" xmlns="http://www.w3.org/2000/svg">
<path d="M49.2565 32.6227L38.1405 43.8982C37.9975 44.0439 37.782 44.0876 37.593 44.0091C37.4057 43.9296 37.283 43.7436 37.283 43.5378V38.0858H17.5037C16.8173 38.0858 16.2619 37.5214 16.2619 36.8259V27.6979C16.2619 27.0023 16.8173 26.438 17.5037 26.438H37.283V20.986C37.283 20.7802 37.4058 20.5941 37.5931 20.5147C37.7821 20.4362 37.9976 20.4799 38.1406 20.6256L49.2566 31.9019C49.351 31.9976 49.4048 32.127 49.4048 32.2622C49.4047 32.3976 49.351 32.5268 49.2565 32.6227Z" fill="#1F2533"/>
<path d="M32.4962 24.2762H12.7176V29.7284C12.7176 29.9342 12.5949 30.1201 12.4075 30.1995C12.2186 30.2781 12.0028 30.2344 11.86 30.0887L0.743625 18.8132C0.649212 18.7174 0.595238 18.5881 0.595238 18.4528C0.595238 18.3174 0.649212 18.188 0.743625 18.0923L11.8601 6.81612C12.0029 6.67043 12.2187 6.62661 12.4076 6.70526C12.5949 6.78459 12.7177 6.97054 12.7177 7.17649V12.6286H32.4963C33.1827 12.6286 33.7381 13.1928 33.7381 13.8884V23.0165C33.738 23.7119 33.1826 24.2762 32.4962 24.2762Z" fill="#1F2533"/>
</svg>
