<svg xmlns="http://www.w3.org/2000/svg" width="42.993" height="42.8" viewBox="0 0 42.993 42.8">
  <g id="file" transform="translate(-0.1 0.401)">
    <path id="Path_88002" data-name="Path 88002" d="M229.723,222a7.219,7.219,0,1,0,7.219,7.219A7.227,7.227,0,0,0,229.723,222Zm0,12.8a5.578,5.578,0,1,1,5.578-5.578A5.584,5.584,0,0,1,229.723,234.8Zm0,0" transform="translate(-203.793 -203.79)" fill="#1f2533" stroke="#efefef" stroke-width="0.8"/>
    <path id="Path_88003" data-name="Path 88003" d="M41.685,37.251l-6.51-6.511a10.646,10.646,0,0,0-1.536-12.673V8.858h0a.819.819,0,0,0-.238-.58L25.36.24A.818.818,0,0,0,24.78,0a.005.005,0,0,1,0,0H2.961A2.464,2.464,0,0,0,.5,2.46V39.538A2.464,2.464,0,0,0,2.961,42H31.177a2.464,2.464,0,0,0,2.461-2.461V37.071l4.113,4.113a2.782,2.782,0,1,0,3.934-3.934Zm-15.755-2.8a9.023,9.023,0,1,1,9.023-9.023A9.034,9.034,0,0,1,25.93,34.452ZM25.6,2.8l5.237,5.237H26.421a.821.821,0,0,1-.82-.82ZM32,39.538a.821.821,0,0,1-.82.82H2.961a.821.821,0,0,1-.82-.82V2.46a.821.821,0,0,1,.82-.82h21V7.217A2.464,2.464,0,0,0,26.42,9.678H32v6.987A10.662,10.662,0,0,0,15.786,28.721H5.762a.82.82,0,1,0,0,1.641H16.237a.814.814,0,0,0,.223-.032,10.657,10.657,0,0,0,14.78,4.344l.757.757Zm8.527.486a1.142,1.142,0,0,1-1.613,0l-6.295-6.295a10.757,10.757,0,0,0,1.613-1.613l6.295,6.295a1.142,1.142,0,0,1,0,1.614Zm0,0" fill="#1f2533" stroke="#efefef" stroke-width="0.8"/>
    <path id="Path_88004" data-name="Path 88004" d="M301.324,265a.82.82,0,0,0,0,1.641,2.053,2.053,0,0,1,2.05,2.05.82.82,0,0,0,1.641,0A3.7,3.7,0,0,0,301.324,265Zm0,0" transform="translate(-275.395 -243.266)" fill="#1f2533" stroke="#efefef" stroke-width="0.8"/>
    <path id="Path_88005" data-name="Path 88005" d="M62.855,280.793H55.472a.82.82,0,0,0,0,1.641h7.382a.82.82,0,0,0,0-1.641Zm0,0" transform="translate(-49.71 -257.76)" fill="#1f2533" stroke="#efefef" stroke-width="0.8"/>
    <path id="Path_88006" data-name="Path 88006" d="M63.341,211.461H55.472a.82.82,0,0,0,0,1.641h7.869a.82.82,0,0,0,0-1.641Zm0,0" transform="translate(-49.71 -194.115)" fill="#1f2533" stroke="#efefef" stroke-width="0.8"/>
    <path id="Path_88007" data-name="Path 88007" d="M181.32,419.461a.819.819,0,1,0,.581.24A.825.825,0,0,0,181.32,419.461Zm0,0" transform="translate(-165.235 -385.053)" fill="#1f2533" stroke="#efefef" stroke-width="0.8"/>
    <path id="Path_88008" data-name="Path 88008" d="M62.427,419.461H55.473a.82.82,0,0,0,0,1.641h6.954a.82.82,0,0,0,0-1.641Zm0,0" transform="translate(-49.711 -385.053)" fill="#1f2533" stroke="#efefef" stroke-width="0.8"/>
    <path id="Path_88009" data-name="Path 88009" d="M55.469,143.77a.821.821,0,1,0-.58-.24A.825.825,0,0,0,55.469,143.77Zm0,0" transform="translate(-49.707 -130.471)" fill="#1f2533" stroke="#efefef" stroke-width="0.8"/>
    <path id="Path_88010" data-name="Path 88010" d="M110.12,142.129H97.859a.82.82,0,0,0,0,1.641h12.26a.82.82,0,0,0,0-1.641Zm0,0" transform="translate(-88.62 -130.471)" fill="#1f2533" stroke="#efefef" stroke-width="0.8"/>
    <path id="Path_88011" data-name="Path 88011" d="M55.473,74.434H71.21a.82.82,0,1,0,0-1.641H55.473a.82.82,0,1,0,0,1.641Zm0,0" transform="translate(-49.71 -66.822)" fill="#1f2533" stroke="#efefef" stroke-width="0.8"/>
  </g>
</svg>
