<svg xmlns="http://www.w3.org/2000/svg" width="45.03" height="45.03" viewBox="0 0 45.03 45.03">
  <g id="magnifier" transform="translate(1.253 1.25)">
    <g id="Group_31908" data-name="Group 31908" transform="translate(0.001 0)">
      <path id="Path_88013" data-name="Path 88013" d="M37.48,29.449a17.255,17.255,0,0,0-24.4-24.4,16.92,16.92,0,0,0-2.6,20.825.726.726,0,0,1-.1.865l-8.8,8.8C-.174,37.292-.591,39.742.963,41.3l.268.267c1.554,1.554,4,1.137,5.756-.615l8.785-8.785a.737.737,0,0,1,.883-.119A16.92,16.92,0,0,0,37.48,29.449ZM16.263,26.263a12.75,12.75,0,1,1,18.031,0A12.764,12.764,0,0,1,16.263,26.263Z" transform="translate(-0.001 0)" fill="#1f2533" stroke="#efefef" stroke-width="2.5"/>
      <g id="Group_31907" data-name="Group 31907" transform="translate(15.583 6.906)">
        <path id="Path_88014" data-name="Path 88014" d="M115.533,59.726a1.782,1.782,0,0,1-1.639-2.475A11.224,11.224,0,0,1,128.587,51.3a1.781,1.781,0,1,1-1.388,3.28,7.658,7.658,0,0,0-10.026,4.064A1.782,1.782,0,0,1,115.533,59.726Z" transform="translate(-113.752 -50.409)" fill="#1f2533" stroke="#efefef" stroke-width="2.5"/>
      </g>
    </g>
  </g>
</svg>
