<svg xmlns="http://www.w3.org/2000/svg" xmlns:xlink="http://www.w3.org/1999/xlink" width="330" height="330" viewBox="0 0 330 330">
  <defs>
    <filter id="Ellipse_2491" x="0" y="0" width="330" height="330" filterUnits="userSpaceOnUse">
      <feOffset dy="3" input="SourceAlpha"/>
      <feGaussianBlur stdDeviation="3" result="blur"/>
      <feFlood flood-opacity="0.161"/>
      <feComposite operator="in" in2="blur"/>
      <feComposite in="SourceGraphic"/>
    </filter>
    <clipPath id="clip-path">
      <rect id="Rectangle_13734" data-name="Rectangle 13734" width="222.691" height="155.852" transform="translate(0 0)" fill="none" stroke="rgba(0,0,0,0)" stroke-width="0.4"/>
    </clipPath>
  </defs>
  <g id="Group_31951" data-name="Group 31951" transform="translate(-773 -285)">
    <g transform="matrix(1, 0, 0, 1, 773, 285)" filter="url(#Ellipse_2491)">
      <circle id="Ellipse_2491-2" data-name="Ellipse 2491" cx="156" cy="156" r="156" transform="translate(9 6)" fill="#fff"/>
    </g>
    <g id="Group_31948" data-name="Group 31948" transform="translate(826.828 369.26)">
      <g id="Group_31947" data-name="Group 31947" transform="translate(0 0)" clip-path="url(#clip-path)">
        <line id="Line_944" data-name="Line 944" x2="222.322" transform="translate(0.184 155.319)" fill="none" stroke="#1a1a1a" stroke-linecap="round" stroke-linejoin="round" stroke-width="0.4"/>
        <path id="Path_88155" data-name="Path 88155" d="M120.387,882.8c-11.533-6.8-12.869-20.138-5.63-27.029,5.784-5.505,16.893-6.76,25.951-1.913,11.229-10.717,28.139-15.186,43.664-11.482a42.777,42.777,0,0,1,28.56,22.6c16.534-16.8,38.786-20.977,50.667-13.754,1.8,1.092,8.021,5.282,10.023,16.026,12.06-2.357,21.923,3.075,23.205,9.209,1.142,5.463-4.75,10.4-5.492,11H131.921c-3.913-.874-9.429-3.109-11.534-4.664" transform="translate(-96.74 -732.098)" fill="#fff" stroke="rgba(0,0,0,0)" stroke-width="0.4"/>
        <path id="Path_88156" data-name="Path 88156" d="M120.387,882.8c-11.533-6.8-12.869-20.138-5.63-27.029,5.784-5.505,16.893-6.76,25.951-1.913,11.229-10.717,28.139-15.186,43.664-11.482a42.777,42.777,0,0,1,28.56,22.6c16.534-16.8,38.786-20.977,50.667-13.754,1.8,1.092,8.021,5.282,10.023,16.026,12.06-2.357,21.923,3.075,23.205,9.209,1.142,5.463-4.75,10.4-5.492,11H131.921C128.008,886.593,122.492,884.357,120.387,882.8Z" transform="translate(-96.74 -732.098)" fill="none" stroke="#1a1a1a" stroke-linecap="round" stroke-linejoin="round" stroke-width="0.4"/>
        <path id="Path_88157" data-name="Path 88157" d="M228.591,687.778a8.877,8.877,0,1,0-8.864,9.35,9.117,9.117,0,0,0,8.864-9.35" transform="translate(-184.957 -590.51)" fill="#ff395e" stroke="rgba(0,0,0,0)" stroke-width="0.4"/>
        <path id="Path_88158" data-name="Path 88158" d="M299.082,1035.1l-3.885,4.855c4.11,2.615,6.438,7.769,2.464,11.894,0,0-15.208-10.648-14.627-12.148.982-2.535,8.332-9.577,8.332-9.577Z" transform="translate(-248.248 -896.634)" fill="#25383f" stroke="rgba(0,0,0,0)" stroke-width="0.4"/>
        <path id="Path_88159" data-name="Path 88159" d="M299.082,1035.1l-3.885,4.855c4.11,2.615,6.438,7.769,2.464,11.894,0,0-15.208-10.648-14.627-12.148.982-2.535,8.332-9.577,8.332-9.577Z" transform="translate(-248.248 -896.634)" fill="none" stroke="#1a1a1a" stroke-linecap="round" stroke-linejoin="round" stroke-width="0.4"/>
        <path id="Path_88160" data-name="Path 88160" d="M615.643,180.682s-1.136,0-.724,1.645,1.691,1.248,1.691,1.248Z" transform="translate(-539.296 -157.267)" fill="#fff" stroke="rgba(0,0,0,0)" stroke-width="0.4"/>
        <path id="Path_88161" data-name="Path 88161" d="M615.643,180.682s-1.136,0-.724,1.645,1.691,1.248,1.691,1.248Z" transform="translate(-539.296 -157.267)" fill="none" stroke="#1a1a1a" stroke-linecap="round" stroke-linejoin="round" stroke-width="0.4"/>
        <path id="Path_88162" data-name="Path 88162" d="M470.642,186.062s8.911,12.02,7.51-6.2c-.6-3.8,3.108-7.965,6.765-7.284,2.081.383,2.44.93.193,1.222.117,1.085-.83,3.728-3.061,4.121,2.489,7.107.986,31.948-15.891,23.95-13.83-6.555-8.915-15.649-8.915-15.649Z" transform="translate(-400.325 -150.152)" fill="#fff" stroke="rgba(0,0,0,0)" stroke-width="0.4"/>
        <path id="Path_88163" data-name="Path 88163" d="M470.642,186.062s8.911,12.02,7.51-6.2c-.6-3.8,3.108-7.965,6.765-7.284,2.081.383,2.44.93.193,1.222.117,1.085-.83,3.728-3.061,4.121,2.489,7.107.986,31.948-15.891,23.95-13.83-6.555-8.915-15.649-8.915-15.649Z" transform="translate(-400.325 -150.152)" fill="none" stroke="#1a1a1a" stroke-linecap="round" stroke-linejoin="round" stroke-width="0.4"/>
        <path id="Path_88164" data-name="Path 88164" d="M601.972,84.648a3.01,3.01,0,0,1-2.423-2.073l-4-11.962a3.28,3.28,0,0,1,.131-2.422,3.018,3.018,0,0,1,1.726-1.6l4.974-1.776a2.848,2.848,0,0,1,1.345-.14,3.015,3.015,0,0,1,2.4,2.007l4.191,11.7a3.282,3.282,0,0,1-.073,2.411,3.034,3.034,0,0,1-1.67,1.647l-5.166,2.041A2.846,2.846,0,0,1,601.972,84.648Z" transform="translate(-522.234 -56.267)" fill="#fff" stroke="rgba(0,0,0,0)" stroke-width="0.4"/>
        <path id="Path_88165" data-name="Path 88165" d="M601.972,84.648a3.01,3.01,0,0,1-2.423-2.073l-4-11.962a3.28,3.28,0,0,1,.131-2.422,3.018,3.018,0,0,1,1.726-1.6l4.974-1.776a2.848,2.848,0,0,1,1.345-.14,3.015,3.015,0,0,1,2.4,2.007l4.191,11.7a3.282,3.282,0,0,1-.073,2.411,3.034,3.034,0,0,1-1.67,1.647l-5.166,2.041A2.846,2.846,0,0,1,601.972,84.648Z" transform="translate(-522.234 -56.267)" fill="none" stroke="#1a1a1a" stroke-linecap="round" stroke-linejoin="round" stroke-width="0.4"/>
        <path id="Path_88166" data-name="Path 88166" d="M610.962,90.319l5.294-2.091a1.806,1.806,0,0,0,.985-2.291L613.56,75.648a1.662,1.662,0,0,0-2.115-1.055l-5.109,1.824a1.8,1.8,0,0,0-1.05,2.268l3.5,10.556a1.662,1.662,0,0,0,2.18,1.078" transform="translate(-530.842 -64.843)" fill="#fff" stroke="rgba(0,0,0,0)" stroke-width="0.4"/>
        <path id="Path_88167" data-name="Path 88167" d="M610.962,90.319l5.294-2.091a1.806,1.806,0,0,0,.985-2.291L613.56,75.648a1.662,1.662,0,0,0-2.115-1.055l-5.109,1.824a1.8,1.8,0,0,0-1.05,2.268l3.5,10.556A1.662,1.662,0,0,0,610.962,90.319Z" transform="translate(-530.842 -64.843)" fill="none" stroke="#1a1a1a" stroke-linecap="round" stroke-linejoin="round" stroke-width="0.4"/>
        <path id="Path_88168" data-name="Path 88168" d="M675.641,193.971a.637.637,0,0,0-.524-.721.616.616,0,0,0-.683.553.637.637,0,0,0,.524.721.616.616,0,0,0,.683-.553" transform="translate(-591.573 -168.202)" fill="#fff" stroke="rgba(0,0,0,0)" stroke-width="0.4"/>
        <path id="Path_88169" data-name="Path 88169" d="M675.641,193.971a.637.637,0,0,0-.524-.721.616.616,0,0,0-.683.553.637.637,0,0,0,.524.721A.616.616,0,0,0,675.641,193.971Z" transform="translate(-591.573 -168.202)" fill="none" stroke="#1a1a1a" stroke-linecap="round" stroke-linejoin="round" stroke-width="0.4"/>
        <path id="Path_88170" data-name="Path 88170" d="M333.453,584.813s2.8,11.015-3.508,30.969c-2.759,8.732-8.831,17.784-16.416,27.3,8.1,7.067,12.948,9.423,12.948,9.423s30.656-33.874,22.355-56.613c-5.093-13.951-15.379-11.077-15.379-11.077" transform="translate(-275.011 -508.814)" fill="#fff" stroke="rgba(0,0,0,0)" stroke-width="0.4"/>
        <path id="Path_88171" data-name="Path 88171" d="M333.453,584.813s2.8,11.015-3.508,30.969c-2.759,8.732-8.831,17.784-16.416,27.3,8.1,7.067,12.948,9.423,12.948,9.423s30.656-33.874,22.355-56.613C343.738,581.939,333.453,584.813,333.453,584.813Z" transform="translate(-275.011 -508.814)" fill="none" stroke="#1a1a1a" stroke-linecap="round" stroke-linejoin="round" stroke-width="0.4"/>
        <path id="Path_88172" data-name="Path 88172" d="M676.771,1087.855l.4,7.429c4.69-1.074,9.737.987,9.532,6.864,0,0-15.547.051-18.9.051-.936-2.554-.376-12.138-.376-12.138Z" transform="translate(-585.289 -946.88)" fill="#25383f" stroke="rgba(0,0,0,0)" stroke-width="0.4"/>
        <path id="Path_88173" data-name="Path 88173" d="M676.771,1087.855l.4,7.429c4.69-1.074,9.737.987,9.532,6.864,0,0-15.547.051-18.9.051-.936-2.554-.376-12.138-.376-12.138Z" transform="translate(-585.289 -946.88)" fill="none" stroke="#1a1a1a" stroke-linecap="round" stroke-linejoin="round" stroke-width="0.4"/>
        <path id="Path_88174" data-name="Path 88174" d="M493.722,522.207c4.925,19.03,2.063,47.255,2.063,47.255l-18.477,1.36s2.283-36.149-.314-45.081-17.527-19.057-17.527-19.057c-4.656-3.445-6.2-15.135-3.156-18.119,9.166-8.995,31.8,11.58,37.411,33.642" transform="translate(-398.874 -423.368)" fill="#fff" stroke="rgba(0,0,0,0)" stroke-width="0.4"/>
        <path id="Path_88175" data-name="Path 88175" d="M493.722,522.207c4.925,19.03,2.063,47.255,2.063,47.255l-18.477,1.36s2.283-36.149-.314-45.081-17.527-19.057-17.527-19.057c-4.656-3.445-6.2-15.135-3.156-18.119C465.477,479.57,488.116,500.145,493.722,522.207Z" transform="translate(-398.874 -423.368)" fill="none" stroke="#1a1a1a" stroke-linecap="round" stroke-linejoin="round" stroke-width="0.4"/>
        <path id="Path_88176" data-name="Path 88176" d="M513.745,135.06l-6.783,12.752s9.241,1.868,9.344,1.585,2.281-14.327,2.281-14.327Z" transform="translate(-444.681 -117.557)" fill="#fff" stroke="rgba(0,0,0,0)" stroke-width="0.4"/>
        <path id="Path_88177" data-name="Path 88177" d="M513.745,135.06l-6.783,12.752s9.241,1.868,9.344,1.585,2.281-14.327,2.281-14.327Z" transform="translate(-444.681 -117.557)" fill="none" stroke="#1a1a1a" stroke-linecap="round" stroke-linejoin="round" stroke-width="0.4"/>
        <path id="Path_88178" data-name="Path 88178" d="M400.785,204.423c5.463-2.268,10.332-1.262,15,.872,4.018,8.881,4.493,21.474,4.359,34.7l-24.381,4.5s-15.555-20.065,5.027-40.073" transform="translate(-342.197 -176.811)" fill="#ff395e" stroke="rgba(0,0,0,0)" stroke-width="0.4"/>
        <path id="Path_88179" data-name="Path 88179" d="M544.478,65.377s1.453,13.362-2.184,13.109-9.074-2.328-9.074-2.328-4.569-14.946,11.258-10.781" transform="translate(-467.176 -56.267)" fill="#fff" stroke="rgba(0,0,0,0)" stroke-width="0.4"/>
        <path id="Path_88180" data-name="Path 88180" d="M544.478,65.377s1.453,13.362-2.184,13.109-9.074-2.328-9.074-2.328S528.651,61.213,544.478,65.377Z" transform="translate(-467.176 -56.267)" fill="none" stroke="#1a1a1a" stroke-linecap="round" stroke-linejoin="round" stroke-width="0.4"/>
        <path id="Path_88181" data-name="Path 88181" d="M507.564,49.022l4.159,2.735s.961-6.669,2.567-4.316.565,2.256.565,2.256l1.176.475s.16-4.153,2.078-4.352,4.513,1.337,6.759-4l1.264-3.058s-4.9,1.834-8.522-.037-12.584.35-10.045,10.3" transform="translate(-444.817 -33.18)" fill="#25383f" stroke="rgba(0,0,0,0)" stroke-width="0.4"/>
        <path id="Path_88182" data-name="Path 88182" d="M507.564,49.022l4.159,2.735s.961-6.669,2.567-4.316.565,2.256.565,2.256l1.176.475s.16-4.153,2.078-4.352,4.513,1.337,6.759-4l1.264-3.058s-4.9,1.834-8.522-.037S505.025,39.074,507.564,49.022Z" transform="translate(-444.817 -33.18)" fill="none" stroke="#1a1a1a" stroke-linecap="round" stroke-linejoin="round" stroke-width="0.4"/>
        <path id="Path_88183" data-name="Path 88183" d="M471.873,324.988s3.63,24.848,19.362,7.878c2.553-2.754,7.93-2.054,9.567,1.462.935,2,.728,2.627-.821.886a3.847,3.847,0,0,1-4.96-.175c-3.97,6.314-20.8,24.363-30.479,12.05s-5.943-24.033-5.943-24.033Z" transform="translate(-401.637 -281.191)" fill="#fff" stroke="rgba(0,0,0,0)" stroke-width="0.4"/>
        <path id="Path_88184" data-name="Path 88184" d="M471.873,324.988s3.63,24.848,19.362,7.878c2.553-2.754,7.93-2.054,9.567,1.462.935,2,.728,2.627-.821.886a3.847,3.847,0,0,1-4.96-.175c-3.97,6.314-20.8,24.363-30.479,12.05s-5.943-24.033-5.943-24.033Z" transform="translate(-401.637 -281.191)" fill="none" stroke="#1a1a1a" stroke-linecap="round" stroke-linejoin="round" stroke-width="0.4"/>
        <path id="Path_88185" data-name="Path 88185" d="M454.762,267.671s-1.53-14.926,9.394-11.922,6.467,13.663,6.467,13.663Z" transform="translate(-398.83 -222.258)" fill="#ff395e" stroke="rgba(0,0,0,0)" stroke-width="0.4"/>
        <path id="Path_88186" data-name="Path 88186" d="M1416.25,1066.135s12.068-3.6,17.292,5.82c1.984,4.9.845,10.722.845,10.722H1416.25Z" transform="translate(-1242.261 -927.386)" fill="#25383f" stroke="rgba(0,0,0,0)" stroke-width="0.4"/>
        <path id="Path_88187" data-name="Path 88187" d="M1416.25,1066.135s12.068-3.6,17.292,5.82c1.984,4.9.845,10.722.845,10.722H1416.25Z" transform="translate(-1242.261 -927.386)" fill="none" stroke="#1a1a1a" stroke-linecap="round" stroke-linejoin="round" stroke-width="0.4"/>
        <rect id="Rectangle_13710" data-name="Rectangle 13710" width="47.406" height="43.364" transform="translate(121.912 112.294)" fill="#fff" stroke="rgba(0,0,0,0)" stroke-width="0.4"/>
        <rect id="Rectangle_13711" data-name="Rectangle 13711" width="47.406" height="43.364" transform="translate(121.912 112.294)" fill="none" stroke="#1a1a1a" stroke-linecap="round" stroke-linejoin="round" stroke-width="0.4"/>
        <rect id="Rectangle_13712" data-name="Rectangle 13712" width="27.876" height="25.499" transform="translate(125.266 42.476)" fill="#fff" stroke="rgba(0,0,0,0)" stroke-width="0.4"/>
        <rect id="Rectangle_13713" data-name="Rectangle 13713" width="27.876" height="25.499" transform="translate(125.266 42.476)" fill="none" stroke="#1a1a1a" stroke-linecap="round" stroke-linejoin="round" stroke-width="0.4"/>
        <path id="Path_88188" data-name="Path 88188" d="M1048.236,368.441c.263.265,20.581,18.279,20.581,18.279" transform="translate(-919.458 -320.694)" fill="none" stroke="#1a1a1a" stroke-linecap="round" stroke-linejoin="round" stroke-width="0.4"/>
        <line id="Line_945" data-name="Line 945" y1="17.909" x2="19.617" transform="translate(129.742 47.747)" fill="none" stroke="#1a1a1a" stroke-linecap="round" stroke-linejoin="round" stroke-width="0.4"/>
        <rect id="Rectangle_13714" data-name="Rectangle 13714" width="27.876" height="2.844" transform="translate(125.266 42.476)" fill="#fff" stroke="rgba(0,0,0,0)" stroke-width="0.4"/>
        <rect id="Rectangle_13715" data-name="Rectangle 13715" width="27.876" height="2.844" transform="translate(125.266 42.476)" fill="none" stroke="#1a1a1a" stroke-linecap="round" stroke-linejoin="round" stroke-width="0.4"/>
        <path id="Path_88189" data-name="Path 88189" d="M802.081,12.6c-.1,5.879-4.688,10.655-10.263,10.694a9.842,9.842,0,0,1-3.442-.594c-.509-.186-2.876.973-4.879,1.841a.993.993,0,0,1-1.192-1.451c.957-1.685,1.578-3.582,1.122-4.235a11.262,11.262,0,0,1-2.01-6.669c.1-5.829,4.61-10.585,10.136-10.693,5.863-.115,10.637,4.922,10.529,11.106" transform="translate(-685.416 -1.301)" fill="#fff" stroke="rgba(0,0,0,0)" stroke-width="0.4"/>
        <path id="Path_88190" data-name="Path 88190" d="M802.081,12.6c-.1,5.879-4.688,10.655-10.263,10.694a9.842,9.842,0,0,1-3.442-.594c-.509-.186-2.876.973-4.879,1.841a.993.993,0,0,1-1.192-1.451c.957-1.685,1.578-3.582,1.122-4.235a11.262,11.262,0,0,1-2.01-6.669c.1-5.829,4.61-10.585,10.136-10.693C797.415,1.382,802.19,6.419,802.081,12.6Z" transform="translate(-685.416 -1.301)" fill="none" stroke="#1a1a1a" stroke-linecap="round" stroke-linejoin="round" stroke-width="0.4"/>
        <path id="Path_88191" data-name="Path 88191" d="M830.858,45.751l1.011,2.161a.669.669,0,0,0,.5.384l2.261.347a.713.713,0,0,1,.369,1.2l-1.636,1.682a.726.726,0,0,0-.191.621l.386,2.375a.674.674,0,0,1-.966.74l-2.022-1.121a.635.635,0,0,0-.619,0l-2.022,1.121a.674.674,0,0,1-.966-.74l.386-2.375a.726.726,0,0,0-.191-.621l-1.636-1.682a.713.713,0,0,1,.369-1.2l2.261-.347a.669.669,0,0,0,.5-.384l1.011-2.161a.651.651,0,0,1,1.194,0" transform="translate(-723.929 -39.481)" fill="#ff395e" stroke="rgba(0,0,0,0)" stroke-width="0.4"/>
        <path id="Path_88192" data-name="Path 88192" d="M812.452,225.975a9.995,9.995,0,0,1-14.388,1.1,10.771,10.771,0,0,1-2.253-2.809c-.273-.49-2.786-1.23-4.844-1.941a1.031,1.031,0,0,1-.014-1.92c1.765-.626,3.405-1.644,3.46-2.452a11.169,11.169,0,0,1,2.577-6.448,9.992,9.992,0,0,1,14.291-1.191,11.312,11.312,0,0,1,1.172,15.657" transform="translate(-693.214 -180.918)" fill="#fff" stroke="rgba(0,0,0,0)" stroke-width="0.4"/>
        <path id="Path_88193" data-name="Path 88193" d="M812.452,225.975a9.995,9.995,0,0,1-14.388,1.1,10.771,10.771,0,0,1-2.253-2.809c-.273-.49-2.786-1.23-4.844-1.941a1.031,1.031,0,0,1-.014-1.92c1.765-.626,3.405-1.644,3.46-2.452a11.169,11.169,0,0,1,2.577-6.448,9.992,9.992,0,0,1,14.291-1.191A11.312,11.312,0,0,1,812.452,225.975Z" transform="translate(-693.214 -180.918)" fill="none" stroke="#1a1a1a" stroke-linecap="round" stroke-linejoin="round" stroke-width="0.4"/>
        <path id="Path_88194" data-name="Path 88194" d="M844.653,241.719h3.785a5.424,5.424,0,0,0,5.548,2.7c.1-7.994.016-8.263.016-8.263l-2.255.049a4.165,4.165,0,0,0,1.661-3.258c.023-2.156.023-2.046.023-2.046-.023-1.3-2.322-1.4-2.253,0v1.556s-3.066,2.376-2.857,3.724h-3.669Z" transform="translate(-740.886 -200.1)" fill="#fff" stroke="rgba(0,0,0,0)" stroke-width="0.4"/>
        <path id="Path_88195" data-name="Path 88195" d="M844.653,241.719h3.785a5.424,5.424,0,0,0,5.548,2.7c.1-7.994.016-8.263.016-8.263l-2.255.049a4.165,4.165,0,0,0,1.661-3.258c.023-2.156.023-2.046.023-2.046-.023-1.3-2.322-1.4-2.253,0v1.556s-3.066,2.376-2.857,3.724h-3.669Z" transform="translate(-740.886 -200.1)" fill="none" stroke="#1a1a1a" stroke-linecap="round" stroke-linejoin="round" stroke-width="0.4"/>
        <path id="Path_88196" data-name="Path 88196" d="M916.726,277.3h-3.543a1.1,1.1,0,0,1,0-2.2h3.543a1.1,1.1,0,0,1,0,2.2" transform="translate(-800.083 -239.449)" fill="#fff" stroke="rgba(0,0,0,0)" stroke-width="0.4"/>
        <path id="Path_88197" data-name="Path 88197" d="M916.726,277.3h-3.543a1.1,1.1,0,0,1,0-2.2h3.543a1.1,1.1,0,0,1,0,2.2Z" transform="translate(-800.083 -239.449)" fill="none" stroke="#1a1a1a" stroke-linecap="round" stroke-linejoin="round" stroke-width="0.4"/>
        <path id="Path_88198" data-name="Path 88198" d="M916.726,294.247h-3.543a1.1,1.1,0,0,1,0-2.2h3.543a1.1,1.1,0,0,1,0,2.2" transform="translate(-800.083 -254.203)" fill="#fff" stroke="rgba(0,0,0,0)" stroke-width="0.4"/>
        <path id="Path_88199" data-name="Path 88199" d="M916.726,294.247h-3.543a1.1,1.1,0,0,1,0-2.2h3.543a1.1,1.1,0,0,1,0,2.2Z" transform="translate(-800.083 -254.203)" fill="none" stroke="#1a1a1a" stroke-linecap="round" stroke-linejoin="round" stroke-width="0.4"/>
        <path id="Path_88200" data-name="Path 88200" d="M916.726,311.2h-3.543a1.1,1.1,0,0,1,0-2.2h3.543a1.1,1.1,0,0,1,0,2.2" transform="translate(-800.083 -268.957)" fill="#fff" stroke="rgba(0,0,0,0)" stroke-width="0.4"/>
        <path id="Path_88201" data-name="Path 88201" d="M916.726,311.2h-3.543a1.1,1.1,0,0,1,0-2.2h3.543a1.1,1.1,0,0,1,0,2.2Z" transform="translate(-800.083 -268.957)" fill="none" stroke="#1a1a1a" stroke-linecap="round" stroke-linejoin="round" stroke-width="0.4"/>
        <path id="Path_88202" data-name="Path 88202" d="M916.726,328.149h-3.543a1.1,1.1,0,0,1,0-2.2h3.543a1.1,1.1,0,0,1,0,2.2" transform="translate(-800.083 -283.712)" fill="#fff" stroke="rgba(0,0,0,0)" stroke-width="0.4"/>
        <path id="Path_88203" data-name="Path 88203" d="M916.726,328.149h-3.543a1.1,1.1,0,0,1,0-2.2h3.543a1.1,1.1,0,0,1,0,2.2Z" transform="translate(-800.083 -283.712)" fill="none" stroke="#1a1a1a" stroke-linecap="round" stroke-linejoin="round" stroke-width="0.4"/>
        <rect id="Rectangle_13716" data-name="Rectangle 13716" width="47.406" height="5.641" transform="translate(121.912 150.017)" fill="#25383f" stroke="rgba(0,0,0,0)" stroke-width="0.4"/>
        <rect id="Rectangle_13717" data-name="Rectangle 13717" width="47.406" height="5.641" transform="translate(121.912 150.017)" fill="none" stroke="#1a1a1a" stroke-linecap="round" stroke-linejoin="round" stroke-width="0.4"/>
        <path id="Path_88204" data-name="Path 88204" d="M992.343,866.535l6.866,8.392h34.725l5.815-8.392Z" transform="translate(-870.432 -754.241)" fill="#fff" stroke="rgba(0,0,0,0)" stroke-width="0.4"/>
        <path id="Path_88205" data-name="Path 88205" d="M992.343,866.535l6.866,8.392h34.725l5.815-8.392Z" transform="translate(-870.432 -754.241)" fill="none" stroke="#1a1a1a" stroke-linecap="round" stroke-linejoin="round" stroke-width="0.4"/>
        <rect id="Rectangle_13718" data-name="Rectangle 13718" width="6.656" height="2.525" transform="translate(159.518 134.867)" fill="#fff" stroke="rgba(0,0,0,0)" stroke-width="0.4"/>
        <rect id="Rectangle_13719" data-name="Rectangle 13719" width="6.656" height="2.525" transform="translate(159.518 134.867)" fill="none" stroke="#1a1a1a" stroke-linecap="round" stroke-linejoin="round" stroke-width="0.4"/>
        <rect id="Rectangle_13720" data-name="Rectangle 13720" width="6.656" height="8.499" transform="translate(159.518 138.993)" fill="#fff" stroke="rgba(0,0,0,0)" stroke-width="0.4"/>
        <rect id="Rectangle_13721" data-name="Rectangle 13721" width="6.656" height="8.499" transform="translate(159.518 138.993)" fill="none" stroke="#1a1a1a" stroke-linecap="round" stroke-linejoin="round" stroke-width="0.4"/>
        <rect id="Rectangle_13722" data-name="Rectangle 13722" width="3.678" height="3.88" transform="translate(129.625 143.612)" fill="#fff" stroke="rgba(0,0,0,0)" stroke-width="0.4"/>
        <rect id="Rectangle_13723" data-name="Rectangle 13723" width="3.678" height="3.88" transform="translate(129.625 143.612)" fill="none" stroke="#1a1a1a" stroke-linecap="round" stroke-linejoin="round" stroke-width="0.4"/>
        <rect id="Rectangle_13724" data-name="Rectangle 13724" width="3.678" height="3.88" transform="translate(135.638 143.612)" fill="#fff" stroke="rgba(0,0,0,0)" stroke-width="0.4"/>
        <rect id="Rectangle_13725" data-name="Rectangle 13725" width="3.678" height="3.88" transform="translate(135.638 143.612)" fill="none" stroke="#1a1a1a" stroke-linecap="round" stroke-linejoin="round" stroke-width="0.4"/>
        <path id="Path_88206" data-name="Path 88206" d="M1378.013,863.325l10.17-.478-.286,43.842h-9.884Z" transform="translate(-1208.721 -751.031)" fill="#ff395e" stroke="rgba(0,0,0,0)" stroke-width="0.4"/>
        <path id="Path_88207" data-name="Path 88207" d="M1246.553,327.768l4.658,7.031v18.467h-4.658Z" transform="translate(-1093.411 -285.292)" fill="#ff395e" stroke="rgba(0,0,0,0)" stroke-width="0.4"/>
        <rect id="Rectangle_13726" data-name="Rectangle 13726" width="47.406" height="43.364" transform="translate(132.996 68.453)" fill="#fff" stroke="rgba(0,0,0,0)" stroke-width="0.4"/>
        <rect id="Rectangle_13727" data-name="Rectangle 13727" width="47.406" height="43.364" transform="translate(132.996 68.453)" fill="none" stroke="#1a1a1a" stroke-linecap="round" stroke-linejoin="round" stroke-width="0.4"/>
        <path id="Path_88208" data-name="Path 88208" d="M1157.248,662.626V651.433h2.87l-3.921-4.326-3.922,4.326h2.871v11.193h-7.228V651.433h2.871l-3.922-4.326-3.922,4.326h2.87v11.193H1143.2v2.379h17.224v-2.379Z" transform="translate(-1002.533 -563.249)" fill="#ff395e" stroke="rgba(0,0,0,0)" stroke-width="0.4"/>
        <rect id="Rectangle_13728" data-name="Rectangle 13728" width="10.995" height="3.755" transform="translate(140.598 105.049)" fill="#fff" stroke="rgba(0,0,0,0)" stroke-width="0.4"/>
        <rect id="Rectangle_13729" data-name="Rectangle 13729" width="10.995" height="3.755" transform="translate(140.598 105.049)" fill="none" stroke="#1a1a1a" stroke-linecap="round" stroke-linejoin="round" stroke-width="0.4"/>
        <rect id="Rectangle_13730" data-name="Rectangle 13730" width="21.557" height="3.755" transform="translate(154.61 105.049)" fill="#fff" stroke="rgba(0,0,0,0)" stroke-width="0.4"/>
        <rect id="Rectangle_13731" data-name="Rectangle 13731" width="21.557" height="3.755" transform="translate(154.61 105.049)" fill="none" stroke="#1a1a1a" stroke-linecap="round" stroke-linejoin="round" stroke-width="0.4"/>
        <rect id="Rectangle_13732" data-name="Rectangle 13732" width="47.406" height="5.813" transform="translate(132.996 68.452)" fill="#fff" stroke="rgba(0,0,0,0)" stroke-width="0.4"/>
        <rect id="Rectangle_13733" data-name="Rectangle 13733" width="47.406" height="5.813" transform="translate(132.996 68.452)" fill="none" stroke="#1a1a1a" stroke-linecap="round" stroke-linejoin="round" stroke-width="0.4"/>
        <path id="Path_88209" data-name="Path 88209" d="M1474.084,532.743l-5.638-4.519v43.364h5.638Z" transform="translate(-1288.044 -459.771)" fill="#fff" stroke="rgba(0,0,0,0)" stroke-width="0.4"/>
        <path id="Path_88210" data-name="Path 88210" d="M1474.084,532.743l-5.638-4.519v43.364h5.638Z" transform="translate(-1288.044 -459.771)" fill="none" stroke="#1a1a1a" stroke-linecap="round" stroke-linejoin="round" stroke-width="0.4"/>
      </g>
    </g>
  </g>
</svg>
