<svg xmlns="http://www.w3.org/2000/svg" width="31.838" height="31.819" viewBox="0 0 31.838 31.819">
  <g id="Layer_4" transform="translate(-3.55 -3.55)">
    <g id="Group_31909" data-name="Group 31909" transform="translate(4 4)">
      <path id="Path_88015" data-name="Path 88015" d="M9.022,34.919h3.827a1.055,1.055,0,1,0,0-2.108H9.022a3.038,3.038,0,0,1-2.914-3.1V14.189H32.459v3.964a1.239,1.239,0,0,0,2.459,0V9.233A5.538,5.538,0,0,0,29.447,4H9.022A5.109,5.109,0,0,0,4,9.233V29.708a5.1,5.1,0,0,0,5.022,5.211ZM6.108,9.233A3.088,3.088,0,0,1,9.022,6.108H29.447a3.142,3.142,0,0,1,3.012,3.125v2.848H6.108Z" transform="translate(-4 -4)" fill="#1f2533" stroke="#efefef" stroke-width="0.9"/>
      <path id="Path_88016" data-name="Path 88016" d="M71.613,16h-.435a1.239,1.239,0,0,0,0,2.459h.435a1.239,1.239,0,0,0,0-2.459Z" transform="translate(-46.869 -11.784)" fill="#1f2533" stroke="#efefef" stroke-width="0.9"/>
      <path id="Path_88017" data-name="Path 88017" d="M61.078,16h-.435a1.239,1.239,0,0,0,0,2.459h.435a1.239,1.239,0,0,0,0-2.459Z" transform="translate(-40.035 -11.784)" fill="#1f2533" stroke="#efefef" stroke-width="0.9"/>
      <path id="Path_88018" data-name="Path 88018" d="M49.923,16h-.435a1.239,1.239,0,0,0,0,2.459h.435a1.239,1.239,0,0,0,0-2.459Z" transform="translate(-32.799 -11.784)" fill="#1f2533" stroke="#efefef" stroke-width="0.9"/>
      <path id="Path_88019" data-name="Path 88019" d="M40.891,47.135A11.794,11.794,0,0,0,30,54.6s2.286,8.416,10.891,8.233A11.1,11.1,0,0,0,51.784,54.6,11.8,11.8,0,0,0,40.891,47.135Zm.078,13.516a9.441,9.441,0,0,1-8.621-5.669,9.39,9.39,0,0,1,17.243,0A9.442,9.442,0,0,1,40.968,60.651Z" transform="translate(-20.865 -31.979)" fill="#1f2533" stroke="#efefef" stroke-width="0.9"/>
      <path id="Path_88020" data-name="Path 88020" d="M53.422,57.445a4.224,4.224,0,1,0,4.224,4.224A4.229,4.229,0,0,0,53.422,57.445Zm0,6.271a2.047,2.047,0,1,1,2.047-2.047,2.05,2.05,0,0,1-2.047,2.047Z" transform="translate(-33.317 -38.667)" fill="#1f2533" stroke="#efefef" stroke-width="0.9"/>
    </g>
  </g>
</svg>
