<svg width="217" height="55" viewBox="0 0 217 55" fill="none" xmlns="http://www.w3.org/2000/svg">
<ellipse cx="45.1818" cy="5.84388" rx="4.43571" ry="4.56849" fill="white"/>
<path d="M47.9304 23.131L46.2599 21.9779C41.249 18.5187 36.2369 15.0602 31.2234 11.6023C31.1844 11.5786 31.1531 11.5458 31.1326 11.5072C31.1122 11.4686 31.1034 11.4258 31.1072 11.383C31.1124 10.6271 31.1072 9.87168 31.1072 9.11572C31.0743 8.48757 31.2627 7.86639 31.6446 7.34419C32.0265 6.822 32.5815 6.42657 33.2275 6.21647C33.4753 6.13731 33.7354 6.09524 33.9978 6.09187C35.101 6.07869 36.2049 6.08588 37.3081 6.08648C37.3394 6.08648 37.3734 6.09067 37.4119 6.09367C37.423 6.23144 37.4341 6.36502 37.4445 6.4986C37.5225 7.18813 37.717 7.86231 38.021 8.49693C38.4134 9.36589 38.9654 10.1666 39.653 10.8643C40.2849 11.5272 40.8965 12.2085 41.488 12.9081C41.8796 13.37 42.1943 13.8893 42.5683 14.3643C43.1533 15.1413 43.6852 15.9507 44.1612 16.788C44.245 16.9713 44.3726 17.1351 44.5346 17.2672C44.6449 17.3382 44.7709 17.386 44.9036 17.4073C45.0364 17.4286 45.1726 17.4229 45.3026 17.3906C45.4327 17.3582 45.5534 17.3 45.6562 17.2201C45.759 17.1402 45.8414 17.0405 45.8976 16.9281C46.5193 15.8555 47.2002 14.8127 47.9376 13.8037C48.7141 12.7828 49.5589 11.8071 50.4672 10.8822C51.1764 10.1793 51.7446 9.36695 52.1455 8.48255C52.4704 7.7662 52.6521 7.00206 52.6821 6.22665C52.6854 6.11224 52.7219 6.08468 52.8336 6.08528C53.6169 6.08947 54.397 6.08528 55.1784 6.08828C55.9081 6.12671 56.599 6.40224 57.1275 6.86553C57.6559 7.32883 57.9874 7.94963 58.0625 8.61674C58.0836 8.78718 58.0945 8.95856 58.0951 9.1301C58.0951 10.4875 58.0951 11.8455 58.0984 13.2034C58.1008 13.2493 58.0926 13.2951 58.0744 13.3378C58.0562 13.3806 58.0283 13.4193 57.9926 13.4514C54.6703 16.6462 51.3495 19.841 48.0303 23.0357C47.9977 23.0669 47.965 23.0956 47.9265 23.1328" fill="#3E7C7B"/>
<path d="M53.4644 29.0825H53.2882C46.9152 29.0825 40.5419 29.0825 34.1684 29.0825C33.7159 29.0913 33.2676 29.0014 32.8604 28.82C32.4531 28.6387 32.0987 28.3712 31.8262 28.0396C31.3803 27.535 31.132 26.9076 31.1212 26.2581C31.1003 25.2901 31.1127 24.3215 31.1166 23.3535C31.1235 23.2949 31.1538 23.2407 31.2015 23.2013C32.0127 22.5332 32.8258 21.8671 33.641 21.203L37.544 18.0102C37.7092 17.8748 37.7079 17.8736 37.8789 17.9952L53.3247 28.9759C53.3606 29.0016 53.3952 29.0292 53.4638 29.0819" fill="#63B3B4"/>
<path d="M45.0825 15.0404C45.0284 14.9518 44.9827 14.8685 44.9285 14.7918C44.4785 14.1529 44.0274 13.5139 43.5752 12.875C43.5387 12.8234 43.4937 12.7773 43.4604 12.724C42.851 11.8488 42.1683 11.0184 41.4184 10.2405C41.0561 9.82115 40.6527 9.44137 40.3087 9.01068C39.6741 8.22417 39.292 7.29046 39.2054 6.31509C39.0892 5.40406 39.2189 4.48076 39.5832 3.62658C39.9475 2.77239 40.5351 2.01355 41.2944 1.41691C41.8692 0.931175 42.5503 0.563548 43.2923 0.338567C44.0342 0.113586 44.8199 0.0364283 45.597 0.112246C46.5686 0.188219 47.5059 0.478003 48.3296 0.957044C49.1532 1.43609 49.8389 2.09026 50.3284 2.86414C50.9175 3.70264 51.1775 4.70038 51.0654 5.69271C50.9708 7.12791 50.3672 8.49531 49.3466 9.58634C47.9597 10.9905 46.7228 12.5136 45.6531 14.1347C45.4573 14.4288 45.2784 14.7337 45.0813 15.0464M41.0274 6.09406C41.0265 6.84633 41.2283 7.58714 41.6149 8.25053C41.8786 8.75906 42.2704 9.20273 42.7578 9.5449C43.2453 9.88707 43.8144 10.1179 44.4183 10.2184C45.0222 10.3189 45.6435 10.2861 46.2308 10.1228C46.8182 9.95944 47.3547 9.67023 47.7962 9.27904C48.2634 8.85288 48.6315 8.34427 48.8785 7.78394C49.1255 7.2236 49.2462 6.62315 49.2333 6.01882C49.2205 5.4145 49.0743 4.81883 48.8036 4.26778C48.5329 3.71673 48.1434 3.22172 47.6585 2.81263C47.1342 2.3572 46.4739 2.05541 45.7619 1.94574C45.0499 1.83606 44.3184 1.92348 43.6608 2.19683C42.8539 2.53722 42.1739 3.08783 41.7054 3.78014C41.237 4.47245 41.0007 5.27588 41.0261 6.09046" fill="#F84464"/>
<path d="M49.3223 24.0051L58.088 15.4648C58.0932 15.5247 58.0991 15.5601 58.0991 15.5972C58.0991 19.0863 58.0991 22.5754 58.0991 26.0645C58.1234 26.5935 57.9931 27.1189 57.7218 27.5862C57.4504 28.0535 57.0479 28.4457 56.5559 28.7223C56.4798 28.7817 56.3823 28.8128 56.2825 28.8095C56.1827 28.8062 56.0879 28.7687 56.0167 28.7044C53.8272 27.1571 51.6279 25.6236 49.4319 24.0859C49.3993 24.0632 49.3666 24.038 49.3242 24.0057" fill="#F9AA1A"/>
<path d="M31.1133 21.4411V13.3633L36.2926 17.1197L31.1133 21.4417" fill="#F84464"/>
<path d="M47.7014 4.7109C47.6994 5.61298 47.4685 6.50223 47.027 7.30824C46.6164 7.99731 46.013 8.57341 45.2789 8.97712C45.2334 9.00197 45.1806 9.01324 45.1279 9.00937C45.0751 9.00551 45.025 8.9867 44.9844 8.95554C44.0546 8.44176 43.3472 7.64848 42.9823 6.71042C42.71 5.97471 42.5812 5.20072 42.6017 4.42396C42.6017 4.24426 42.6983 4.13104 42.8537 4.12805C43.5412 4.08415 44.1964 3.84366 44.7272 3.44038C44.8095 3.38467 44.8891 3.32417 44.9694 3.26546C44.992 3.2408 45.0202 3.22102 45.052 3.20754C45.0839 3.19406 45.1186 3.18722 45.1536 3.18751C45.1887 3.18779 45.2233 3.1952 45.2549 3.2092C45.2864 3.22319 45.3142 3.24343 45.3363 3.26846C45.7724 3.62606 46.2884 3.89184 46.8482 4.04718C47.0288 4.08739 47.213 4.11285 47.3985 4.12326C47.6015 4.13943 47.6942 4.22269 47.7001 4.42696C47.7001 4.5216 47.7001 4.61685 47.7001 4.71209M44.2494 6.38935C44.2494 6.47501 44.2494 6.56127 44.2494 6.64693C44.2494 6.73259 44.2494 6.81884 44.2526 6.9045C44.2492 6.96009 44.2583 7.01573 44.2796 7.06788C44.3009 7.12003 44.3337 7.16754 44.3761 7.20739C44.4185 7.24723 44.4695 7.27853 44.5258 7.2993C44.5821 7.32007 44.6424 7.32985 44.7031 7.32801C44.9977 7.33041 45.2926 7.33041 45.5876 7.32801C45.6532 7.33036 45.7185 7.31961 45.779 7.29653C45.8396 7.27345 45.894 7.23858 45.9384 7.19433C45.9829 7.15007 46.0163 7.09748 46.0364 7.0402C46.0566 6.98292 46.0629 6.92232 46.055 6.86258C46.0583 6.55049 46.055 6.2384 46.055 5.92631C46.0581 5.85275 46.0431 5.77951 46.0111 5.712C45.9791 5.6445 45.931 5.58446 45.8703 5.53635C45.8384 5.50248 45.818 5.46086 45.8115 5.41654C45.7952 5.34646 45.7959 5.27278 45.7808 5.20209C45.7691 5.11662 45.7368 5.0346 45.6863 4.96195C45.6359 4.88931 45.5684 4.82785 45.489 4.78201C45.4095 4.73617 45.3198 4.70708 45.2266 4.69686C45.1334 4.68663 45.0389 4.69552 44.9498 4.72288C44.8107 4.77333 44.6921 4.86211 44.6102 4.97701C44.5284 5.0919 44.4874 5.22726 44.4929 5.36443C44.4929 5.42739 44.4699 5.48854 44.4276 5.53814C44.37 5.58571 44.3242 5.64407 44.2932 5.70927C44.2622 5.77447 44.2468 5.84501 44.2481 5.91613C44.2481 6.07427 44.2481 6.23241 44.2481 6.39115" fill="#151414"/>
<path d="M44.6723 5.45058C44.6565 5.38397 44.6561 5.3151 44.671 5.24834C44.6859 5.18158 44.7159 5.11841 44.7589 5.06284C44.8018 5.00727 44.857 4.96053 44.9207 4.9256C44.9845 4.89066 45.0555 4.8683 45.1292 4.85994C45.436 4.84616 45.6469 5.08458 45.6423 5.45058H44.6723Z" fill="#151414"/>
<path d="M45.1539 6.83994C44.9417 6.83994 44.9261 6.81417 44.9581 6.60032C45.0069 6.4547 45.0143 6.30005 44.9796 6.15106C44.9733 6.12656 44.973 6.1011 44.9787 6.07648C44.9844 6.05187 44.996 6.02872 45.0126 6.00869C45.0292 5.98865 45.0504 5.97223 45.0747 5.9606C45.099 5.94897 45.1258 5.94242 45.1532 5.94141C45.2557 5.94141 45.3236 6.02946 45.3249 6.14327C45.3249 6.30261 45.3315 6.46195 45.3491 6.62249C45.3706 6.81417 45.3491 6.84353 45.1532 6.84353" fill="#151414"/>
<path d="M68.0117 22.084V7.71875H68.3242L77.875 18.7148V7.71875H79.291V22.084H78.9688L69.4961 11.2246V22.084H68.0117ZM89.6523 7.35742C91.8268 7.35742 93.6465 8.08333 95.1113 9.53516C96.5762 10.987 97.3086 12.7741 97.3086 14.8965C97.3086 16.9993 96.5762 18.7832 95.1113 20.248C93.653 21.7129 91.8724 22.4453 89.7695 22.4453C87.6406 22.4453 85.8438 21.7161 84.3789 20.2578C82.9141 18.7995 82.1816 17.0352 82.1816 14.9648C82.1816 13.5846 82.5137 12.3053 83.1777 11.127C83.8483 9.94857 84.7598 9.02734 85.9121 8.36328C87.0645 7.69271 88.3112 7.35742 89.6523 7.35742ZM89.7207 8.76367C88.6595 8.76367 87.6536 9.04036 86.7031 9.59375C85.7526 10.1471 85.0104 10.8926 84.4766 11.8301C83.9427 12.7676 83.6758 13.8125 83.6758 14.9648C83.6758 16.6706 84.265 18.1126 85.4434 19.291C86.6283 20.4629 88.054 21.0488 89.7207 21.0488C90.834 21.0488 91.8626 20.7786 92.8066 20.2383C93.7572 19.6979 94.4961 18.959 95.0234 18.0215C95.5573 17.084 95.8242 16.0423 95.8242 14.8965C95.8242 13.7572 95.5573 12.7285 95.0234 11.8105C94.4961 10.8861 93.7507 10.1471 92.7871 9.59375C91.8236 9.04036 90.8014 8.76367 89.7207 8.76367ZM100.189 7.71875H101.654V13.1094L107.387 7.71875H109.33L102.426 14.1641L109.867 22.084H107.963L101.654 15.3848V22.084H100.189V7.71875ZM117.875 7.71875L124.574 22.084H123.031L120.775 17.3574H114.584L112.338 22.084H110.736L117.523 7.71875H117.875ZM117.699 10.7656L115.229 15.9707H120.141L117.699 10.7656ZM126.85 7.71875H129.682C130.821 7.71875 131.697 7.85547 132.309 8.12891C132.921 8.39583 133.402 8.80924 133.754 9.36914C134.112 9.92904 134.291 10.5508 134.291 11.2344C134.291 11.8724 134.135 12.4551 133.822 12.9824C133.51 13.5033 133.051 13.9264 132.445 14.252C133.194 14.5059 133.77 14.8053 134.174 15.1504C134.577 15.4889 134.89 15.9023 135.111 16.3906C135.339 16.8724 135.453 17.3965 135.453 17.9629C135.453 19.1152 135.03 20.0918 134.184 20.8926C133.344 21.6868 132.214 22.084 130.795 22.084H126.85V7.71875ZM128.256 9.125V13.7246H129.076C130.072 13.7246 130.805 13.6335 131.273 13.4512C131.742 13.2624 132.113 12.9694 132.387 12.5723C132.66 12.1686 132.797 11.7227 132.797 11.2344C132.797 10.5768 132.566 10.0625 132.104 9.69141C131.648 9.3138 130.919 9.125 129.916 9.125H128.256ZM128.256 15.1699V20.6777H130.033C131.081 20.6777 131.85 20.5768 132.338 20.375C132.826 20.1667 133.217 19.8444 133.51 19.4082C133.809 18.972 133.959 18.5 133.959 17.9922C133.959 17.3542 133.751 16.7975 133.334 16.3223C132.917 15.847 132.344 15.5215 131.615 15.3457C131.127 15.2285 130.277 15.1699 129.066 15.1699H128.256ZM137.738 9.10547V7.71875H145.316L139.311 20.6875H145.014V22.084H137.094L143.139 9.10547H137.738ZM153.773 7.71875L160.473 22.084H158.93L156.674 17.3574H150.482L148.236 22.084H146.635L153.422 7.71875H153.773ZM153.598 10.7656L151.127 15.9707H156.039L153.598 10.7656ZM168.578 7.71875L175.277 22.084H173.734L171.479 17.3574H165.287L163.041 22.084H161.439L168.227 7.71875H168.578ZM168.402 10.7656L165.932 15.9707H170.844L168.402 10.7656Z" fill="#121212"/>
<circle cx="182.715" cy="14.584" r="3.10352" fill="#F9AA1A"/>
<path d="M6.15609 50.7722H7.99609V51.6602H5.03609V46.0762H6.15609V50.7722ZM8.41997 49.4282C8.41997 48.9802 8.50797 48.5828 8.68397 48.2362C8.8653 47.8895 9.10797 47.6228 9.41197 47.4362C9.7213 47.2495 10.0653 47.1562 10.444 47.1562C10.7746 47.1562 11.0626 47.2228 11.308 47.3562C11.5586 47.4895 11.7586 47.6575 11.908 47.8602V47.2282H13.036V51.6602H11.908V51.0122C11.764 51.2202 11.564 51.3935 11.308 51.5322C11.0573 51.6655 10.7666 51.7322 10.436 51.7322C10.0626 51.7322 9.7213 51.6362 9.41197 51.4442C9.10797 51.2522 8.8653 50.9828 8.68397 50.6362C8.50797 50.2842 8.41997 49.8815 8.41997 49.4282ZM11.908 49.4442C11.908 49.1722 11.8546 48.9402 11.748 48.7482C11.6413 48.5508 11.4973 48.4015 11.316 48.3002C11.1346 48.1935 10.94 48.1402 10.732 48.1402C10.524 48.1402 10.332 48.1908 10.156 48.2922C9.97997 48.3935 9.83597 48.5428 9.72397 48.7402C9.6173 48.9322 9.56397 49.1615 9.56397 49.4282C9.56397 49.6948 9.6173 49.9295 9.72397 50.1322C9.83597 50.3295 9.97997 50.4815 10.156 50.5882C10.3373 50.6948 10.5293 50.7482 10.732 50.7482C10.94 50.7482 11.1346 50.6975 11.316 50.5962C11.4973 50.4895 11.6413 50.3402 11.748 50.1482C11.8546 49.9508 11.908 49.7162 11.908 49.4442ZM16.5858 47.1642C17.1138 47.1642 17.5405 47.3322 17.8658 47.6682C18.1912 47.9988 18.3538 48.4628 18.3538 49.0602V51.6602H17.2338V49.2122C17.2338 48.8602 17.1458 48.5908 16.9698 48.4042C16.7938 48.2122 16.5538 48.1162 16.2498 48.1162C15.9405 48.1162 15.6952 48.2122 15.5138 48.4042C15.3378 48.5908 15.2498 48.8602 15.2498 49.2122V51.6602H14.1298V47.2282H15.2498V47.7802C15.3992 47.5882 15.5885 47.4388 15.8178 47.3322C16.0525 47.2202 16.3085 47.1642 16.5858 47.1642ZM19.1309 49.4282C19.1309 48.9802 19.2189 48.5828 19.3949 48.2362C19.5762 47.8895 19.8216 47.6228 20.1309 47.4362C20.4402 47.2495 20.7842 47.1562 21.1629 47.1562C21.4509 47.1562 21.7256 47.2202 21.9869 47.3482C22.2482 47.4708 22.4562 47.6362 22.6109 47.8442V45.7402H23.7469V51.6602H22.6109V51.0042C22.4722 51.2228 22.2776 51.3988 22.0269 51.5322C21.7762 51.6655 21.4856 51.7322 21.1549 51.7322C20.7816 51.7322 20.4402 51.6362 20.1309 51.4442C19.8216 51.2522 19.5762 50.9828 19.3949 50.6362C19.2189 50.2842 19.1309 49.8815 19.1309 49.4282ZM22.6189 49.4442C22.6189 49.1722 22.5656 48.9402 22.4589 48.7482C22.3522 48.5508 22.2082 48.4015 22.0269 48.3002C21.8456 48.1935 21.6509 48.1402 21.4429 48.1402C21.2349 48.1402 21.0429 48.1908 20.8669 48.2922C20.6909 48.3935 20.5469 48.5428 20.4349 48.7402C20.3282 48.9322 20.2749 49.1615 20.2749 49.4282C20.2749 49.6948 20.3282 49.9295 20.4349 50.1322C20.5469 50.3295 20.6909 50.4815 20.8669 50.5882C21.0482 50.6948 21.2402 50.7482 21.4429 50.7482C21.6509 50.7482 21.8456 50.6975 22.0269 50.5962C22.2082 50.4895 22.3522 50.3402 22.4589 50.1482C22.5656 49.9508 22.6189 49.7162 22.6189 49.4442ZM32.835 46.0762V51.6602H31.715V48.0282L30.219 51.6602H29.371L27.867 48.0282V51.6602H26.747V46.0762H28.019L29.795 50.2282L31.571 46.0762H32.835ZM35.9103 51.7322C35.4837 51.7322 35.0997 51.6388 34.7583 51.4522C34.417 51.2602 34.1477 50.9908 33.9503 50.6442C33.7583 50.2975 33.6623 49.8975 33.6623 49.4442C33.6623 48.9908 33.761 48.5908 33.9583 48.2442C34.161 47.8975 34.4357 47.6308 34.7823 47.4442C35.129 47.2522 35.5157 47.1562 35.9423 47.1562C36.369 47.1562 36.7557 47.2522 37.1023 47.4442C37.449 47.6308 37.721 47.8975 37.9183 48.2442C38.121 48.5908 38.2223 48.9908 38.2223 49.4442C38.2223 49.8975 38.1183 50.2975 37.9103 50.6442C37.7077 50.9908 37.4303 51.2602 37.0783 51.4522C36.7317 51.6388 36.3423 51.7322 35.9103 51.7322ZM35.9103 50.7562C36.113 50.7562 36.3023 50.7082 36.4783 50.6122C36.6597 50.5108 36.8037 50.3615 36.9103 50.1642C37.017 49.9668 37.0703 49.7268 37.0703 49.4442C37.0703 49.0228 36.9583 48.7002 36.7343 48.4762C36.5157 48.2468 36.2463 48.1322 35.9263 48.1322C35.6063 48.1322 35.337 48.2468 35.1183 48.4762C34.905 48.7002 34.7983 49.0228 34.7983 49.4442C34.7983 49.8655 34.9023 50.1908 35.1103 50.4202C35.3237 50.6442 35.5903 50.7562 35.9103 50.7562ZM41.4999 47.1642C42.0279 47.1642 42.4546 47.3322 42.7799 47.6682C43.1052 47.9988 43.2679 48.4628 43.2679 49.0602V51.6602H42.1479V49.2122C42.1479 48.8602 42.0599 48.5908 41.8839 48.4042C41.7079 48.2122 41.4679 48.1162 41.1639 48.1162C40.8546 48.1162 40.6092 48.2122 40.4279 48.4042C40.2519 48.5908 40.1639 48.8602 40.1639 49.2122V51.6602H39.0439V47.2282H40.1639V47.7802C40.3132 47.5882 40.5026 47.4388 40.7319 47.3322C40.9666 47.2202 41.2226 47.1642 41.4999 47.1642ZM44.901 46.7002C44.7036 46.7002 44.5383 46.6388 44.405 46.5162C44.277 46.3882 44.213 46.2308 44.213 46.0442C44.213 45.8575 44.277 45.7028 44.405 45.5802C44.5383 45.4522 44.7036 45.3882 44.901 45.3882C45.0983 45.3882 45.261 45.4522 45.389 45.5802C45.5223 45.7028 45.589 45.8575 45.589 46.0442C45.589 46.2308 45.5223 46.3882 45.389 46.5162C45.261 46.6388 45.0983 46.7002 44.901 46.7002ZM45.453 47.2282V51.6602H44.333V47.2282H45.453ZM47.8635 48.1482V50.2922C47.8635 50.4415 47.8982 50.5508 47.9675 50.6202C48.0422 50.6842 48.1649 50.7162 48.3355 50.7162H48.8555V51.6602H48.1515C47.2075 51.6602 46.7355 51.2015 46.7355 50.2842V48.1482H46.2075V47.2282H46.7355V46.1322H47.8635V47.2282H48.8555V48.1482H47.8635ZM51.6291 51.7322C51.2024 51.7322 50.8184 51.6388 50.4771 51.4522C50.1358 51.2602 49.8664 50.9908 49.6691 50.6442C49.4771 50.2975 49.3811 49.8975 49.3811 49.4442C49.3811 48.9908 49.4798 48.5908 49.6771 48.2442C49.8798 47.8975 50.1544 47.6308 50.5011 47.4442C50.8478 47.2522 51.2344 47.1562 51.6611 47.1562C52.0878 47.1562 52.4744 47.2522 52.8211 47.4442C53.1678 47.6308 53.4398 47.8975 53.6371 48.2442C53.8398 48.5908 53.9411 48.9908 53.9411 49.4442C53.9411 49.8975 53.8371 50.2975 53.6291 50.6442C53.4264 50.9908 53.1491 51.2602 52.7971 51.4522C52.4504 51.6388 52.0611 51.7322 51.6291 51.7322ZM51.6291 50.7562C51.8318 50.7562 52.0211 50.7082 52.1971 50.6122C52.3784 50.5108 52.5224 50.3615 52.6291 50.1642C52.7358 49.9668 52.7891 49.7268 52.7891 49.4442C52.7891 49.0228 52.6771 48.7002 52.4531 48.4762C52.2344 48.2468 51.9651 48.1322 51.6451 48.1322C51.3251 48.1322 51.0558 48.2468 50.8371 48.4762C50.6238 48.7002 50.5171 49.0228 50.5171 49.4442C50.5171 49.8655 50.6211 50.1908 50.8291 50.4202C51.0424 50.6442 51.3091 50.7562 51.6291 50.7562ZM55.8827 47.9162C56.0267 47.6815 56.2133 47.4975 56.4427 47.3642C56.6773 47.2308 56.944 47.1642 57.2427 47.1642V48.3402H56.9467C56.5947 48.3402 56.328 48.4228 56.1467 48.5882C55.9707 48.7535 55.8827 49.0415 55.8827 49.4522V51.6602H54.7627V47.2282H55.8827V47.9162ZM58.565 46.7002C58.3677 46.7002 58.2024 46.6388 58.069 46.5162C57.941 46.3882 57.877 46.2308 57.877 46.0442C57.877 45.8575 57.941 45.7028 58.069 45.5802C58.2024 45.4522 58.3677 45.3882 58.565 45.3882C58.7624 45.3882 58.925 45.4522 59.053 45.5802C59.1864 45.7028 59.253 45.8575 59.253 46.0442C59.253 46.2308 59.1864 46.3882 59.053 46.5162C58.925 46.6388 58.7624 46.7002 58.565 46.7002ZM59.117 47.2282V51.6602H57.997V47.2282H59.117ZM62.6796 47.1642C63.2076 47.1642 63.6343 47.3322 63.9596 47.6682C64.2849 47.9988 64.4476 48.4628 64.4476 49.0602V51.6602H63.3276V49.2122C63.3276 48.8602 63.2396 48.5908 63.0636 48.4042C62.8876 48.2122 62.6476 48.1162 62.3436 48.1162C62.0343 48.1162 61.7889 48.2122 61.6076 48.4042C61.4316 48.5908 61.3436 48.8602 61.3436 49.2122V51.6602H60.2236V47.2282H61.3436V47.7802C61.4929 47.5882 61.6823 47.4388 61.9116 47.3322C62.1463 47.2202 62.4023 47.1642 62.6796 47.1642ZM67.2487 47.1562C67.5793 47.1562 67.87 47.2228 68.1207 47.3562C68.3713 47.4842 68.5687 47.6522 68.7127 47.8602V47.2282H69.8407V51.6922C69.8407 52.1028 69.758 52.4682 69.5927 52.7882C69.4273 53.1135 69.1793 53.3695 68.8487 53.5562C68.518 53.7482 68.118 53.8442 67.6487 53.8442C67.0193 53.8442 66.502 53.6975 66.0967 53.4042C65.6967 53.1108 65.47 52.7108 65.4167 52.2042H66.5287C66.5873 52.4068 66.7127 52.5668 66.9047 52.6842C67.102 52.8068 67.3393 52.8682 67.6167 52.8682C67.942 52.8682 68.206 52.7695 68.4087 52.5722C68.6113 52.3802 68.7127 52.0868 68.7127 51.6922V51.0042C68.5687 51.2122 68.3687 51.3855 68.1127 51.5242C67.862 51.6628 67.574 51.7322 67.2487 51.7322C66.8753 51.7322 66.534 51.6362 66.2247 51.4442C65.9153 51.2522 65.67 50.9828 65.4887 50.6362C65.3127 50.2842 65.2247 49.8815 65.2247 49.4282C65.2247 48.9802 65.3127 48.5828 65.4887 48.2362C65.67 47.8895 65.9127 47.6228 66.2167 47.4362C66.526 47.2495 66.87 47.1562 67.2487 47.1562ZM68.7127 49.4442C68.7127 49.1722 68.6593 48.9402 68.5527 48.7482C68.446 48.5508 68.302 48.4015 68.1207 48.3002C67.9393 48.1935 67.7447 48.1402 67.5367 48.1402C67.3287 48.1402 67.1367 48.1908 66.9607 48.2922C66.7847 48.3935 66.6407 48.5428 66.5287 48.7402C66.422 48.9322 66.3687 49.1615 66.3687 49.4282C66.3687 49.6948 66.422 49.9295 66.5287 50.1322C66.6407 50.3295 66.7847 50.4815 66.9607 50.5882C67.142 50.6948 67.334 50.7482 67.5367 50.7482C67.7447 50.7482 67.9393 50.6975 68.1207 50.5962C68.302 50.4895 68.446 50.3402 68.5527 50.1482C68.6593 49.9508 68.7127 49.7162 68.7127 49.4442Z" fill="#1E1E1E"/>
<path d="M85.7523 51.7162C85.363 51.7162 85.011 51.6495 84.6963 51.5162C84.387 51.3828 84.1417 51.1908 83.9603 50.9402C83.779 50.6895 83.6857 50.3935 83.6803 50.0522H84.8803C84.8963 50.2815 84.9763 50.4628 85.1203 50.5962C85.2697 50.7295 85.4723 50.7962 85.7283 50.7962C85.9897 50.7962 86.195 50.7348 86.3443 50.6122C86.4937 50.4842 86.5683 50.3188 86.5683 50.1162C86.5683 49.9508 86.5177 49.8148 86.4163 49.7082C86.315 49.6015 86.187 49.5188 86.0323 49.4602C85.883 49.3962 85.675 49.3268 85.4083 49.2522C85.0457 49.1455 84.7497 49.0415 84.5203 48.9402C84.2963 48.8335 84.1017 48.6762 83.9363 48.4682C83.7763 48.2548 83.6963 47.9722 83.6963 47.6202C83.6963 47.2895 83.779 47.0015 83.9443 46.7562C84.1097 46.5108 84.3417 46.3242 84.6403 46.1962C84.939 46.0628 85.2803 45.9962 85.6643 45.9962C86.2403 45.9962 86.707 46.1375 87.0643 46.4202C87.427 46.6975 87.627 47.0868 87.6643 47.5882H86.4323C86.4217 47.3962 86.339 47.2388 86.1843 47.1162C86.035 46.9882 85.835 46.9242 85.5843 46.9242C85.3657 46.9242 85.1897 46.9802 85.0563 47.0922C84.9283 47.2042 84.8643 47.3668 84.8643 47.5802C84.8643 47.7295 84.9123 47.8548 85.0083 47.9562C85.1097 48.0522 85.2323 48.1322 85.3763 48.1962C85.5257 48.2548 85.7337 48.3242 86.0003 48.4042C86.363 48.5108 86.659 48.6175 86.8883 48.7242C87.1177 48.8308 87.315 48.9908 87.4803 49.2042C87.6457 49.4175 87.7283 49.6975 87.7283 50.0442C87.7283 50.3428 87.651 50.6202 87.4963 50.8762C87.3417 51.1322 87.115 51.3375 86.8163 51.4922C86.5177 51.6415 86.163 51.7162 85.7523 51.7162ZM92.8193 49.3482C92.8193 49.5082 92.8087 49.6522 92.7873 49.7802H89.5473C89.574 50.1002 89.686 50.3508 89.8833 50.5322C90.0807 50.7135 90.3233 50.8042 90.6113 50.8042C91.0273 50.8042 91.3233 50.6255 91.4993 50.2682H92.7073C92.5793 50.6948 92.334 51.0468 91.9713 51.3242C91.6087 51.5962 91.1633 51.7322 90.6353 51.7322C90.2087 51.7322 89.8247 51.6388 89.4833 51.4522C89.1473 51.2602 88.8833 50.9908 88.6913 50.6442C88.5047 50.2975 88.4113 49.8975 88.4113 49.4442C88.4113 48.9855 88.5047 48.5828 88.6913 48.2362C88.878 47.8895 89.1393 47.6228 89.4753 47.4362C89.8113 47.2495 90.198 47.1562 90.6353 47.1562C91.0567 47.1562 91.4327 47.2468 91.7633 47.4282C92.0993 47.6095 92.358 47.8682 92.5393 48.2042C92.726 48.5348 92.8193 48.9162 92.8193 49.3482ZM91.6593 49.0282C91.654 48.7402 91.55 48.5108 91.3473 48.3402C91.1447 48.1642 90.8967 48.0762 90.6033 48.0762C90.326 48.0762 90.0913 48.1615 89.8993 48.3322C89.7127 48.4975 89.598 48.7295 89.5553 49.0282H91.6593ZM93.3488 49.4282C93.3488 48.9802 93.4368 48.5828 93.6128 48.2362C93.7942 47.8895 94.0368 47.6228 94.3408 47.4362C94.6502 47.2495 94.9942 47.1562 95.3728 47.1562C95.7035 47.1562 95.9915 47.2228 96.2368 47.3562C96.4875 47.4895 96.6875 47.6575 96.8368 47.8602V47.2282H97.9648V51.6602H96.8368V51.0122C96.6928 51.2202 96.4928 51.3935 96.2368 51.5322C95.9862 51.6655 95.6955 51.7322 95.3648 51.7322C94.9915 51.7322 94.6502 51.6362 94.3408 51.4442C94.0368 51.2522 93.7942 50.9828 93.6128 50.6362C93.4368 50.2842 93.3488 49.8815 93.3488 49.4282ZM96.8368 49.4442C96.8368 49.1722 96.7835 48.9402 96.6768 48.7482C96.5702 48.5508 96.4262 48.4015 96.2448 48.3002C96.0635 48.1935 95.8688 48.1402 95.6608 48.1402C95.4528 48.1402 95.2608 48.1908 95.0848 48.2922C94.9088 48.3935 94.7648 48.5428 94.6528 48.7402C94.5462 48.9322 94.4928 49.1615 94.4928 49.4282C94.4928 49.6948 94.5462 49.9295 94.6528 50.1322C94.7648 50.3295 94.9088 50.4815 95.0848 50.5882C95.2662 50.6948 95.4582 50.7482 95.6608 50.7482C95.8688 50.7482 96.0635 50.6975 96.2448 50.5962C96.4262 50.4895 96.5702 50.3402 96.6768 50.1482C96.7835 49.9508 96.8368 49.7162 96.8368 49.4442ZM100.179 47.9162C100.323 47.6815 100.509 47.4975 100.739 47.3642C100.973 47.2308 101.24 47.1642 101.539 47.1642V48.3402H101.243C100.891 48.3402 100.624 48.4228 100.443 48.5882C100.267 48.7535 100.179 49.0415 100.179 49.4522V51.6602H99.0587V47.2282H100.179V47.9162ZM102.005 49.4442C102.005 48.9855 102.098 48.5855 102.285 48.2442C102.472 47.8975 102.73 47.6308 103.061 47.4442C103.392 47.2522 103.77 47.1562 104.197 47.1562C104.746 47.1562 105.2 47.2948 105.557 47.5722C105.92 47.8442 106.162 48.2282 106.285 48.7242H105.077C105.013 48.5322 104.904 48.3828 104.749 48.2762C104.6 48.1642 104.413 48.1082 104.189 48.1082C103.869 48.1082 103.616 48.2255 103.429 48.4602C103.242 48.6895 103.149 49.0175 103.149 49.4442C103.149 49.8655 103.242 50.1935 103.429 50.4282C103.616 50.6575 103.869 50.7722 104.189 50.7722C104.642 50.7722 104.938 50.5695 105.077 50.1642H106.285C106.162 50.6442 105.92 51.0255 105.557 51.3082C105.194 51.5908 104.741 51.7322 104.197 51.7322C103.77 51.7322 103.392 51.6388 103.061 51.4522C102.73 51.2602 102.472 50.9935 102.285 50.6522C102.098 50.3055 102.005 49.9028 102.005 49.4442ZM109.602 47.1642C109.938 47.1642 110.236 47.2388 110.498 47.3882C110.759 47.5322 110.962 47.7482 111.106 48.0362C111.255 48.3188 111.33 48.6602 111.33 49.0602V51.6602H110.21V49.2122C110.21 48.8602 110.122 48.5908 109.946 48.4042C109.77 48.2122 109.53 48.1162 109.226 48.1162C108.916 48.1162 108.671 48.2122 108.49 48.4042C108.314 48.5908 108.226 48.8602 108.226 49.2122V51.6602H107.106V45.7402H108.226V47.7802C108.37 47.5882 108.562 47.4388 108.802 47.3322C109.042 47.2202 109.308 47.1642 109.602 47.1642ZM117.181 51.6602L115.949 49.4842H115.421V51.6602H114.301V46.0762H116.397C116.829 46.0762 117.197 46.1535 117.501 46.3082C117.805 46.4575 118.032 46.6628 118.181 46.9242C118.336 47.1802 118.413 47.4682 118.413 47.7882C118.413 48.1562 118.306 48.4895 118.093 48.7882C117.88 49.0815 117.562 49.2842 117.141 49.3962L118.477 51.6602H117.181ZM115.421 48.6442H116.357C116.661 48.6442 116.888 48.5722 117.037 48.4282C117.186 48.2788 117.261 48.0735 117.261 47.8122C117.261 47.5562 117.186 47.3588 117.037 47.2202C116.888 47.0762 116.661 47.0042 116.357 47.0042H115.421V48.6442ZM123.546 49.3482C123.546 49.5082 123.535 49.6522 123.514 49.7802H120.274C120.301 50.1002 120.413 50.3508 120.61 50.5322C120.807 50.7135 121.05 50.8042 121.338 50.8042C121.754 50.8042 122.05 50.6255 122.226 50.2682H123.434C123.306 50.6948 123.061 51.0468 122.698 51.3242C122.335 51.5962 121.89 51.7322 121.362 51.7322C120.935 51.7322 120.551 51.6388 120.21 51.4522C119.874 51.2602 119.61 50.9908 119.418 50.6442C119.231 50.2975 119.138 49.8975 119.138 49.4442C119.138 48.9855 119.231 48.5828 119.418 48.2362C119.605 47.8895 119.866 47.6228 120.202 47.4362C120.538 47.2495 120.925 47.1562 121.362 47.1562C121.783 47.1562 122.159 47.2468 122.49 47.4282C122.826 47.6095 123.085 47.8682 123.266 48.2042C123.453 48.5348 123.546 48.9162 123.546 49.3482ZM122.386 49.0282C122.381 48.7402 122.277 48.5108 122.074 48.3402C121.871 48.1642 121.623 48.0762 121.33 48.0762C121.053 48.0762 120.818 48.1615 120.626 48.3322C120.439 48.4975 120.325 48.7295 120.282 49.0282H122.386ZM125.483 47.8682C125.627 47.6655 125.825 47.4975 126.075 47.3642C126.331 47.2255 126.622 47.1562 126.947 47.1562C127.326 47.1562 127.667 47.2495 127.971 47.4362C128.281 47.6228 128.523 47.8895 128.699 48.2362C128.881 48.5775 128.971 48.9748 128.971 49.4282C128.971 49.8815 128.881 50.2842 128.699 50.6362C128.523 50.9828 128.281 51.2522 127.971 51.4442C127.667 51.6362 127.326 51.7322 126.947 51.7322C126.622 51.7322 126.334 51.6655 126.083 51.5322C125.838 51.3988 125.638 51.2308 125.483 51.0282V53.7722H124.363V47.2282H125.483V47.8682ZM127.827 49.4282C127.827 49.1615 127.771 48.9322 127.659 48.7402C127.553 48.5428 127.409 48.3935 127.227 48.2922C127.051 48.1908 126.859 48.1402 126.651 48.1402C126.449 48.1402 126.257 48.1935 126.075 48.3002C125.899 48.4015 125.755 48.5508 125.643 48.7482C125.537 48.9455 125.483 49.1775 125.483 49.4442C125.483 49.7108 125.537 49.9428 125.643 50.1402C125.755 50.3375 125.899 50.4895 126.075 50.5962C126.257 50.6975 126.449 50.7482 126.651 50.7482C126.859 50.7482 127.051 50.6948 127.227 50.5882C127.409 50.4815 127.553 50.3295 127.659 50.1322C127.771 49.9348 127.827 49.7002 127.827 49.4282ZM131.753 51.7322C131.327 51.7322 130.943 51.6388 130.601 51.4522C130.26 51.2602 129.991 50.9908 129.793 50.6442C129.601 50.2975 129.505 49.8975 129.505 49.4442C129.505 48.9908 129.604 48.5908 129.801 48.2442C130.004 47.8975 130.279 47.6308 130.625 47.4442C130.972 47.2522 131.359 47.1562 131.785 47.1562C132.212 47.1562 132.599 47.2522 132.945 47.4442C133.292 47.6308 133.564 47.8975 133.761 48.2442C133.964 48.5908 134.065 48.9908 134.065 49.4442C134.065 49.8975 133.961 50.2975 133.753 50.6442C133.551 50.9908 133.273 51.2602 132.921 51.4522C132.575 51.6388 132.185 51.7322 131.753 51.7322ZM131.753 50.7562C131.956 50.7562 132.145 50.7082 132.321 50.6122C132.503 50.5108 132.647 50.3615 132.753 50.1642C132.86 49.9668 132.913 49.7268 132.913 49.4442C132.913 49.0228 132.801 48.7002 132.577 48.4762C132.359 48.2468 132.089 48.1322 131.769 48.1322C131.449 48.1322 131.18 48.2468 130.961 48.4762C130.748 48.7002 130.641 49.0228 130.641 49.4442C130.641 49.8655 130.745 50.1908 130.953 50.4202C131.167 50.6442 131.433 50.7562 131.753 50.7562ZM136.007 47.9162C136.151 47.6815 136.337 47.4975 136.567 47.3642C136.801 47.2308 137.068 47.1642 137.367 47.1642V48.3402H137.071C136.719 48.3402 136.452 48.4228 136.271 48.5882C136.095 48.7535 136.007 49.0415 136.007 49.4522V51.6602H134.887V47.2282H136.007V47.9162ZM139.425 48.1482V50.2922C139.425 50.4415 139.46 50.5508 139.529 50.6202C139.604 50.6842 139.727 50.7162 139.897 50.7162H140.417V51.6602H139.713C138.769 51.6602 138.297 51.2015 138.297 50.2842V48.1482H137.769V47.2282H138.297V46.1322H139.425V47.2282H140.417V48.1482H139.425ZM142.919 51.7322C142.556 51.7322 142.231 51.6682 141.943 51.5402C141.655 51.4068 141.425 51.2282 141.255 51.0042C141.089 50.7802 140.999 50.5322 140.983 50.2602H142.111C142.132 50.4308 142.215 50.5722 142.359 50.6842C142.508 50.7962 142.692 50.8522 142.911 50.8522C143.124 50.8522 143.289 50.8095 143.407 50.7242C143.529 50.6388 143.591 50.5295 143.591 50.3962C143.591 50.2522 143.516 50.1455 143.367 50.0762C143.223 50.0015 142.991 49.9215 142.671 49.8362C142.34 49.7562 142.068 49.6735 141.855 49.5882C141.647 49.5028 141.465 49.3722 141.311 49.1962C141.161 49.0202 141.087 48.7828 141.087 48.4842C141.087 48.2388 141.156 48.0148 141.295 47.8122C141.439 47.6095 141.641 47.4495 141.903 47.3322C142.169 47.2148 142.481 47.1562 142.839 47.1562C143.367 47.1562 143.788 47.2895 144.103 47.5562C144.417 47.8175 144.591 48.1722 144.623 48.6202H143.551C143.535 48.4442 143.46 48.3055 143.327 48.2042C143.199 48.0975 143.025 48.0442 142.807 48.0442C142.604 48.0442 142.447 48.0815 142.335 48.1562C142.228 48.2308 142.175 48.3348 142.175 48.4682C142.175 48.6175 142.249 48.7322 142.399 48.8122C142.548 48.8868 142.78 48.9642 143.095 49.0442C143.415 49.1242 143.679 49.2068 143.887 49.2922C144.095 49.3775 144.273 49.5108 144.423 49.6922C144.577 49.8682 144.657 50.1028 144.663 50.3962C144.663 50.6522 144.591 50.8815 144.447 51.0842C144.308 51.2868 144.105 51.4468 143.839 51.5642C143.577 51.6762 143.271 51.7322 142.919 51.7322Z" fill="#1E1E1E"/>
<path d="M76.0703 46.2012L76.0703 51.1201" stroke="#1E1E1E" stroke-width="1.5" stroke-linecap="round"/>
<path opacity="0.9" d="M175.15 33.3477L67.3584 33.3477" stroke="#1E1E1E" stroke-linecap="round"/>
<path d="M152.943 46.2012L152.943 51.1201" stroke="#1E1E1E" stroke-width="1.5" stroke-linecap="round"/>
<path d="M166.785 46.0762V51.6602H165.665V48.0282L164.169 51.6602H163.321L161.817 48.0282V51.6602H160.697V46.0762H161.969L163.745 50.2282L165.521 46.0762H166.785ZM167.605 49.4282C167.605 48.9802 167.693 48.5828 167.869 48.2362C168.05 47.8895 168.293 47.6228 168.597 47.4362C168.906 47.2495 169.25 47.1562 169.629 47.1562C169.959 47.1562 170.247 47.2228 170.493 47.3562C170.743 47.4895 170.943 47.6575 171.093 47.8602V47.2282H172.221V51.6602H171.093V51.0122C170.949 51.2202 170.749 51.3935 170.493 51.5322C170.242 51.6655 169.951 51.7322 169.621 51.7322C169.247 51.7322 168.906 51.6362 168.597 51.4442C168.293 51.2522 168.05 50.9828 167.869 50.6362C167.693 50.2842 167.605 49.8815 167.605 49.4282ZM171.093 49.4442C171.093 49.1722 171.039 48.9402 170.933 48.7482C170.826 48.5508 170.682 48.4015 170.501 48.3002C170.319 48.1935 170.125 48.1402 169.917 48.1402C169.709 48.1402 169.517 48.1908 169.341 48.2922C169.165 48.3935 169.021 48.5428 168.909 48.7402C168.802 48.9322 168.749 49.1615 168.749 49.4282C168.749 49.6948 168.802 49.9295 168.909 50.1322C169.021 50.3295 169.165 50.4815 169.341 50.5882C169.522 50.6948 169.714 50.7482 169.917 50.7482C170.125 50.7482 170.319 50.6975 170.501 50.5962C170.682 50.4895 170.826 50.3402 170.933 50.1482C171.039 49.9508 171.093 49.7162 171.093 49.4442ZM174.435 47.9162C174.579 47.6815 174.765 47.4975 174.995 47.3642C175.229 47.2308 175.496 47.1642 175.795 47.1642V48.3402H175.499C175.147 48.3402 174.88 48.4228 174.699 48.5882C174.523 48.7535 174.435 49.0415 174.435 49.4522V51.6602H173.315V47.2282H174.435V47.9162ZM179.173 51.6602L177.669 49.7722V51.6602H176.549V45.7402H177.669V49.1082L179.157 47.2282H180.613L178.661 49.4522L180.629 51.6602H179.173ZM185.341 49.3482C185.341 49.5082 185.33 49.6522 185.309 49.7802H182.069C182.096 50.1002 182.208 50.3508 182.405 50.5322C182.602 50.7135 182.845 50.8042 183.133 50.8042C183.549 50.8042 183.845 50.6255 184.021 50.2682H185.229C185.101 50.6948 184.856 51.0468 184.493 51.3242C184.13 51.5962 183.685 51.7322 183.157 51.7322C182.73 51.7322 182.346 51.6388 182.005 51.4522C181.669 51.2602 181.405 50.9908 181.213 50.6442C181.026 50.2975 180.933 49.8975 180.933 49.4442C180.933 48.9855 181.026 48.5828 181.213 48.2362C181.4 47.8895 181.661 47.6228 181.997 47.4362C182.333 47.2495 182.72 47.1562 183.157 47.1562C183.578 47.1562 183.954 47.2468 184.285 47.4282C184.621 47.6095 184.88 47.8682 185.061 48.2042C185.248 48.5348 185.341 48.9162 185.341 49.3482ZM184.181 49.0282C184.176 48.7402 184.072 48.5108 183.869 48.3402C183.666 48.1642 183.418 48.0762 183.125 48.0762C182.848 48.0762 182.613 48.1615 182.421 48.3322C182.234 48.4975 182.12 48.7295 182.077 49.0282H184.181ZM187.462 48.1482V50.2922C187.462 50.4415 187.497 50.5508 187.566 50.6202C187.641 50.6842 187.764 50.7162 187.934 50.7162H188.454V51.6602H187.75C186.806 51.6602 186.334 51.2015 186.334 50.2842V48.1482H185.806V47.2282H186.334V46.1322H187.462V47.2282H188.454V48.1482H187.462ZM195.238 47.8042C195.238 48.1028 195.166 48.3828 195.022 48.6442C194.884 48.9055 194.662 49.1162 194.358 49.2762C194.06 49.4362 193.681 49.5162 193.222 49.5162H192.286V51.6602H191.166V46.0762H193.222C193.654 46.0762 194.022 46.1508 194.326 46.3002C194.63 46.4495 194.857 46.6548 195.006 46.9162C195.161 47.1775 195.238 47.4735 195.238 47.8042ZM193.174 48.6122C193.484 48.6122 193.713 48.5428 193.862 48.4042C194.012 48.2602 194.086 48.0602 194.086 47.8042C194.086 47.2602 193.782 46.9882 193.174 46.9882H192.286V48.6122H193.174ZM197.153 45.7402V51.6602H196.033V45.7402H197.153ZM197.972 49.4282C197.972 48.9802 198.06 48.5828 198.236 48.2362C198.417 47.8895 198.66 47.6228 198.964 47.4362C199.273 47.2495 199.617 47.1562 199.996 47.1562C200.327 47.1562 200.615 47.2228 200.86 47.3562C201.111 47.4895 201.311 47.6575 201.46 47.8602V47.2282H202.588V51.6602H201.46V51.0122C201.316 51.2202 201.116 51.3935 200.86 51.5322C200.609 51.6655 200.319 51.7322 199.988 51.7322C199.615 51.7322 199.273 51.6362 198.964 51.4442C198.66 51.2522 198.417 50.9828 198.236 50.6362C198.06 50.2842 197.972 49.8815 197.972 49.4282ZM201.46 49.4442C201.46 49.1722 201.407 48.9402 201.3 48.7482C201.193 48.5508 201.049 48.4015 200.868 48.3002C200.687 48.1935 200.492 48.1402 200.284 48.1402C200.076 48.1402 199.884 48.1908 199.708 48.2922C199.532 48.3935 199.388 48.5428 199.276 48.7402C199.169 48.9322 199.116 49.1615 199.116 49.4282C199.116 49.6948 199.169 49.9295 199.276 50.1322C199.388 50.3295 199.532 50.4815 199.708 50.5882C199.889 50.6948 200.081 50.7482 200.284 50.7482C200.492 50.7482 200.687 50.6975 200.868 50.5962C201.049 50.4895 201.193 50.3402 201.3 50.1482C201.407 49.9508 201.46 49.7162 201.46 49.4442ZM203.394 49.4442C203.394 48.9855 203.487 48.5855 203.674 48.2442C203.86 47.8975 204.119 47.6308 204.45 47.4442C204.78 47.2522 205.159 47.1562 205.586 47.1562C206.135 47.1562 206.588 47.2948 206.946 47.5722C207.308 47.8442 207.551 48.2282 207.674 48.7242H206.466C206.402 48.5322 206.292 48.3828 206.138 48.2762C205.988 48.1642 205.802 48.1082 205.578 48.1082C205.258 48.1082 205.004 48.2255 204.818 48.4602C204.631 48.6895 204.538 49.0175 204.538 49.4442C204.538 49.8655 204.631 50.1935 204.818 50.4282C205.004 50.6575 205.258 50.7722 205.578 50.7722C206.031 50.7722 206.327 50.5695 206.466 50.1642H207.674C207.551 50.6442 207.308 51.0255 206.946 51.3082C206.583 51.5908 206.13 51.7322 205.586 51.7322C205.159 51.7322 204.78 51.6388 204.45 51.4522C204.119 51.2602 203.86 50.9935 203.674 50.6522C203.487 50.3055 203.394 49.9028 203.394 49.4442ZM212.614 49.3482C212.614 49.5082 212.604 49.6522 212.582 49.7802H209.342C209.369 50.1002 209.481 50.3508 209.678 50.5322C209.876 50.7135 210.118 50.8042 210.406 50.8042C210.822 50.8042 211.118 50.6255 211.294 50.2682H212.502C212.374 50.6948 212.129 51.0468 211.766 51.3242C211.404 51.5962 210.958 51.7322 210.43 51.7322C210.004 51.7322 209.62 51.6388 209.278 51.4522C208.942 51.2602 208.678 50.9908 208.486 50.6442C208.3 50.2975 208.206 49.8975 208.206 49.4442C208.206 48.9855 208.3 48.5828 208.486 48.2362C208.673 47.8895 208.934 47.6228 209.27 47.4362C209.606 47.2495 209.993 47.1562 210.43 47.1562C210.852 47.1562 211.228 47.2468 211.558 47.4282C211.894 47.6095 212.153 47.8682 212.334 48.2042C212.521 48.5348 212.614 48.9162 212.614 49.3482ZM211.454 49.0282C211.449 48.7402 211.345 48.5108 211.142 48.3402C210.94 48.1642 210.692 48.0762 210.398 48.0762C210.121 48.0762 209.886 48.1615 209.694 48.3322C209.508 48.4975 209.393 48.7295 209.35 49.0282H211.454Z" fill="#1E1E1E"/>
</svg>
