<svg width="103" height="18" viewBox="0 0 103 18" fill="none" xmlns="http://www.w3.org/2000/svg">
<ellipse cx="8.2846" cy="4.08109" rx="2.46429" ry="2.52055" fill="white"/>
<path d="M9.81117 13.6181L8.88311 12.9819C6.09929 11.0734 3.31476 9.16528 0.529492 7.25745C0.507839 7.2444 0.490426 7.22629 0.479071 7.20501C0.467716 7.18373 0.462836 7.16007 0.464938 7.13649C0.467839 6.71941 0.464938 6.30266 0.464938 5.88557C0.446645 5.53901 0.551334 5.19628 0.763496 4.90818C0.975657 4.62007 1.28401 4.4019 1.64287 4.28599C1.78055 4.24231 1.92505 4.2191 2.07082 4.21724C2.68372 4.20997 3.29699 4.21393 3.90989 4.21427C3.9273 4.21427 3.94616 4.21658 3.96755 4.21823C3.97372 4.29425 3.97988 4.36795 3.98569 4.44165C4.029 4.82207 4.13704 5.19403 4.30592 5.54417C4.52394 6.02359 4.83061 6.46538 5.21258 6.85029C5.56364 7.21603 5.90346 7.59191 6.23203 7.97793C6.44963 8.23274 6.62443 8.51927 6.83224 8.78136C7.1572 9.21002 7.45274 9.6566 7.71714 10.1185C7.7637 10.2197 7.83459 10.3101 7.92459 10.3829C7.98589 10.4221 8.05588 10.4485 8.12962 10.4602C8.20336 10.472 8.27903 10.4689 8.35128 10.451C8.42353 10.4332 8.49059 10.4011 8.54772 10.357C8.60484 10.3129 8.65062 10.2579 8.68183 10.1959C9.02724 9.60409 9.4055 9.02873 9.81516 8.47202C10.2466 7.90877 10.7159 7.37047 11.2205 6.8602C11.6145 6.4724 11.9301 6.02418 12.1529 5.53624C12.3334 5.14101 12.4343 4.71942 12.451 4.2916C12.4528 4.22848 12.4731 4.21327 12.5351 4.2136C12.9703 4.21592 13.4037 4.21361 13.8378 4.21526C14.2432 4.23646 14.6271 4.38848 14.9206 4.64409C15.2142 4.8997 15.3984 5.24221 15.4401 5.61027C15.4518 5.70431 15.4579 5.79886 15.4582 5.89351C15.4582 6.6424 15.4582 7.39163 15.46 8.14086C15.4614 8.16616 15.4569 8.19142 15.4467 8.215C15.4366 8.23859 15.4211 8.25995 15.4013 8.27769C13.5556 10.0403 11.7107 11.803 9.86666 13.5656C9.84852 13.5828 9.83039 13.5986 9.80899 13.6191" fill="#3E7C7B"/>
<path d="M12.8843 16.9025H12.7864C9.24583 16.9025 5.70513 16.9025 2.16432 16.9025C1.91292 16.9074 1.66384 16.8578 1.43761 16.7577C1.21138 16.6577 1.01446 16.5101 0.863079 16.3271C0.615374 16.0487 0.477441 15.7026 0.471401 15.3443C0.459796 14.8102 0.466685 14.2758 0.468861 13.7417C0.472718 13.7094 0.489504 13.6795 0.516009 13.6577C0.96668 13.2891 1.41844 12.9216 1.87129 12.5552L4.03966 10.7937C4.13141 10.719 4.13069 10.7183 4.2257 10.7854L12.8067 16.8437C12.8267 16.8579 12.8459 16.8731 12.884 16.9022" fill="#63B3B4"/>
<path d="M8.22945 9.15417C8.19935 9.10525 8.17397 9.05931 8.14387 9.01701C7.89387 8.66448 7.64327 8.31196 7.39206 7.95943C7.37176 7.93101 7.34673 7.90556 7.32824 7.87615C6.98971 7.39326 6.61043 6.93513 6.19383 6.50592C5.99255 6.27458 5.76842 6.06504 5.57729 5.82742C5.22476 5.39348 5.01246 4.87833 4.96439 4.3402C4.8998 3.83756 4.97186 3.32815 5.17425 2.85688C5.37663 2.3856 5.70311 1.96693 6.12492 1.63775C6.44426 1.36976 6.82265 1.16693 7.23485 1.0428C7.64704 0.918675 8.08356 0.876106 8.51524 0.917936C9.05504 0.959852 9.57578 1.11973 10.0334 1.38403C10.4909 1.64833 10.8719 2.00926 11.1438 2.43622C11.4711 2.89885 11.6155 3.44932 11.5533 3.99681C11.5007 4.78865 11.1654 5.54307 10.5984 6.14502C9.82785 6.91974 9.14072 7.76007 8.54643 8.65446C8.43763 8.81673 8.33826 8.98495 8.22873 9.15747M5.97658 4.21825C5.97609 4.63329 6.08822 5.04201 6.30299 5.40802C6.44949 5.68859 6.66713 5.93337 6.93794 6.12216C7.20874 6.31094 7.52495 6.43831 7.86044 6.49375C8.19592 6.54919 8.54108 6.5311 8.86738 6.44099C9.19369 6.35087 9.49178 6.19131 9.73706 5.97548C9.99657 5.74035 10.2011 5.45975 10.3383 5.15059C10.4755 4.84144 10.5426 4.51016 10.5355 4.17674C10.5283 3.84332 10.4471 3.51467 10.2967 3.21064C10.1463 2.90662 9.92993 2.63351 9.66053 2.4078C9.36924 2.15653 9.00242 1.99003 8.60686 1.92952C8.2113 1.86901 7.80494 1.91724 7.43958 2.06805C6.99131 2.25585 6.61353 2.55964 6.35328 2.9416C6.09302 3.32356 5.96177 3.76684 5.97586 4.21626" fill="#F84464"/>
<path d="M10.584 14.1005L15.4538 9.38867C15.4567 9.42172 15.46 9.44121 15.46 9.4617C15.46 11.3867 15.46 13.3117 15.46 15.2367C15.4735 15.5286 15.4011 15.8185 15.2504 16.0763C15.0996 16.3341 14.876 16.5505 14.6027 16.7032C14.5604 16.7359 14.5062 16.7531 14.4508 16.7512C14.3953 16.7494 14.3426 16.7287 14.3031 16.6932C13.0867 15.8396 11.8649 14.9935 10.6449 14.1451C10.6268 14.1326 10.6086 14.1187 10.5851 14.1008" fill="#F9AA1A"/>
<path d="M0.46875 12.6852V8.22852L3.34613 10.301L0.46875 12.6855" fill="#F84464"/>
<path d="M9.68393 3.45573C9.68281 3.95343 9.55454 4.44405 9.30929 4.88875C9.08118 5.26892 8.74593 5.58677 8.33808 5.80951C8.31283 5.82322 8.28351 5.82943 8.25421 5.8273C8.22491 5.82517 8.19706 5.81479 8.17451 5.7976C7.65792 5.51413 7.26492 5.07647 7.06223 4.55891C6.91095 4.15301 6.83937 3.72598 6.85079 3.29742C6.85079 3.19827 6.90446 3.13581 6.99077 3.13416C7.37271 3.10994 7.73673 2.97725 8.03163 2.75475C8.07732 2.72402 8.12157 2.69064 8.16618 2.65825C8.1787 2.64464 8.19436 2.63373 8.21205 2.62629C8.22975 2.61885 8.24903 2.61508 8.26851 2.61524C8.28799 2.6154 8.3072 2.61948 8.32474 2.62721C8.34229 2.63493 8.35774 2.64609 8.36999 2.6599C8.61225 2.8572 8.89893 3.00384 9.20992 3.08954C9.31027 3.11173 9.41258 3.12577 9.51565 3.13151C9.62843 3.14044 9.67993 3.18637 9.6832 3.29907C9.6832 3.35129 9.6832 3.40384 9.6832 3.45639M7.76615 4.38177C7.76615 4.42903 7.76615 4.47662 7.76615 4.52389C7.76615 4.57115 7.76615 4.61873 7.76796 4.666C7.76603 4.69666 7.77113 4.72736 7.78294 4.75613C7.79475 4.7849 7.81301 4.81112 7.83655 4.8331C7.86009 4.85509 7.88842 4.87236 7.91969 4.88381C7.95097 4.89527 7.98451 4.90067 8.0182 4.89965C8.18189 4.90098 8.34569 4.90098 8.50962 4.89965C8.54603 4.90095 8.58231 4.89502 8.61596 4.88229C8.64961 4.86955 8.67982 4.85031 8.70451 4.8259C8.7292 4.80148 8.74778 4.77246 8.75896 4.74086C8.77014 4.70926 8.77367 4.67583 8.76929 4.64286C8.7711 4.47068 8.76929 4.29849 8.76929 4.1263C8.77099 4.08572 8.76264 4.04531 8.74487 4.00806C8.72711 3.97082 8.70037 3.9377 8.66665 3.91115C8.64896 3.89247 8.63763 3.8695 8.63401 3.84505C8.62494 3.80638 8.62531 3.76573 8.61696 3.72673C8.61043 3.67957 8.5925 3.63432 8.56446 3.59424C8.53642 3.55416 8.49896 3.52026 8.4548 3.49496C8.41064 3.46967 8.36085 3.45363 8.30906 3.44798C8.25727 3.44234 8.20475 3.44724 8.15529 3.46234C8.078 3.49017 8.01209 3.53916 7.96663 3.60255C7.92116 3.66594 7.89839 3.74062 7.90143 3.8163C7.90142 3.85104 7.88865 3.88477 7.86516 3.91214C7.83315 3.93839 7.80769 3.97058 7.79049 4.00656C7.77328 4.04253 7.76474 4.08145 7.76543 4.12068C7.76543 4.20793 7.76543 4.29518 7.76543 4.38276" fill="#151414"/>
<path d="M8.00086 3.86329C7.99214 3.82654 7.9919 3.78854 8.00019 3.75171C8.00847 3.71488 8.02509 3.68002 8.04897 3.64937C8.07286 3.61871 8.10348 3.59292 8.13891 3.57365C8.17433 3.55437 8.21377 3.54203 8.25472 3.53742C8.42517 3.52982 8.54232 3.66136 8.53978 3.86329H8.00086Z" fill="#151414"/>
<path d="M8.26822 4.63051C8.15035 4.63051 8.14165 4.61629 8.15942 4.49831C8.18655 4.41796 8.19066 4.33264 8.17139 4.25044C8.1679 4.23692 8.16773 4.22287 8.1709 4.20929C8.17407 4.19571 8.1805 4.18294 8.18971 4.17189C8.19893 4.16083 8.21071 4.15177 8.22422 4.14536C8.23773 4.13894 8.25263 4.13532 8.26785 4.13477C8.32479 4.13477 8.36251 4.18334 8.36323 4.24614C8.36323 4.33405 8.36687 4.42196 8.37666 4.51053C8.38863 4.61629 8.37665 4.63249 8.26785 4.63249" fill="#151414"/>
<path d="M21.2461 14.3887V5.05127H21.4492L27.6572 12.1987V5.05127H28.5776V14.3887H28.3682L22.2109 7.33008V14.3887H21.2461ZM35.3125 4.81641C36.7259 4.81641 37.9087 5.28825 38.8608 6.23193C39.813 7.17562 40.2891 8.33724 40.2891 9.7168C40.2891 11.0837 39.813 12.2432 38.8608 13.1953C37.9129 14.1475 36.7555 14.6235 35.3887 14.6235C34.0049 14.6235 32.8369 14.1496 31.8848 13.2017C30.9326 12.2537 30.4565 11.1069 30.4565 9.76123C30.4565 8.8641 30.6724 8.03255 31.104 7.2666C31.5399 6.50065 32.1323 5.90186 32.8813 5.47021C33.6304 5.03434 34.4408 4.81641 35.3125 4.81641ZM35.3569 5.73047C34.6672 5.73047 34.0133 5.91032 33.3955 6.27002C32.7777 6.62972 32.2952 7.11426 31.9482 7.72363C31.6012 8.33301 31.4277 9.01221 31.4277 9.76123C31.4277 10.87 31.8107 11.8073 32.5767 12.5732C33.3468 13.335 34.2736 13.7158 35.3569 13.7158C36.0806 13.7158 36.7492 13.5402 37.3628 13.189C37.9806 12.8377 38.4609 12.3574 38.8037 11.748C39.1507 11.1387 39.3242 10.4616 39.3242 9.7168C39.3242 8.97624 39.1507 8.30762 38.8037 7.71094C38.4609 7.11003 37.9764 6.62972 37.3501 6.27002C36.7238 5.91032 36.0594 5.73047 35.3569 5.73047ZM42.1616 5.05127H43.1138V8.55518L46.8398 5.05127H48.103L43.6152 9.24072L48.4521 14.3887H47.2144L43.1138 10.0342V14.3887H42.1616V5.05127ZM53.6572 5.05127L58.0117 14.3887H57.0088L55.5425 11.3164H51.5181L50.0581 14.3887H49.0171L53.4287 5.05127H53.6572ZM53.543 7.03174L51.937 10.415H55.1299L53.543 7.03174ZM59.4907 5.05127H61.3315C62.0721 5.05127 62.6413 5.14014 63.0391 5.31787C63.4368 5.49137 63.75 5.76009 63.9785 6.12402C64.2113 6.48796 64.3276 6.89209 64.3276 7.33643C64.3276 7.75114 64.2261 8.12988 64.0229 8.47266C63.8198 8.8112 63.5215 9.08626 63.1279 9.29785C63.6146 9.46289 63.9891 9.65755 64.2515 9.88184C64.5138 10.1019 64.717 10.3706 64.8608 10.688C65.009 11.0011 65.083 11.3418 65.083 11.71C65.083 12.459 64.8079 13.0938 64.2578 13.6143C63.7119 14.1305 62.9777 14.3887 62.0552 14.3887H59.4907V5.05127ZM60.4048 5.96533V8.95508H60.938C61.5854 8.95508 62.0615 8.89583 62.3662 8.77734C62.6709 8.65462 62.9121 8.46419 63.0898 8.20605C63.2676 7.94368 63.3564 7.65381 63.3564 7.33643C63.3564 6.90902 63.2062 6.57471 62.9058 6.3335C62.6095 6.08805 62.1356 5.96533 61.4839 5.96533H60.4048ZM60.4048 9.89453V13.4746H61.5601C62.2414 13.4746 62.7407 13.409 63.0581 13.2778C63.3755 13.1424 63.6294 12.9329 63.8198 12.6494C64.0145 12.3659 64.1118 12.0591 64.1118 11.729C64.1118 11.3143 63.9764 10.9525 63.7056 10.6436C63.4347 10.3346 63.0623 10.123 62.5884 10.0088C62.271 9.93262 61.7188 9.89453 60.9316 9.89453H60.4048ZM66.5684 5.95264V5.05127H71.4941L67.5903 13.481H71.2974V14.3887H66.1494L70.0786 5.95264H66.5684ZM76.9912 5.05127L81.3457 14.3887H80.3428L78.8765 11.3164H74.8521L73.3921 14.3887H72.3511L76.7627 5.05127H76.9912ZM76.877 7.03174L75.271 10.415H78.4639L76.877 7.03174ZM86.6143 5.05127L90.9688 14.3887H89.9658L88.4995 11.3164H84.4751L83.0151 14.3887H81.9741L86.3857 5.05127H86.6143ZM86.5 7.03174L84.894 10.415H88.0869L86.5 7.03174Z" fill="#121212"/>
<circle cx="99.8809" cy="8.29883" r="3.10352" fill="#F9AA1A"/>
</svg>
